<svg width="48" height="48" viewBox="0 0 48 48" fill="none" xmlns="http://www.w3.org/2000/svg">
<rect x="0.5" y="0.5" width="47" height="47" stroke="#E90707" stroke-opacity="0.2"/>
<g clip-path="url(#clip0)">
<path d="M29.6002 15.0645H23.4595C23.0708 15.0645 22.6976 15.2192 22.4226 15.4942L14.4295 23.4857C13.8568 24.0584 13.8568 24.9868 14.4295 25.5603L20.5702 31.701C21.1429 32.2737 22.0713 32.2737 22.644 31.701L30.6371 23.7094C30.912 23.4337 31.0668 23.0604 31.0668 22.671V16.5311C31.0668 15.7208 30.4105 15.0645 29.6002 15.0645ZM27.0336 20.1976C26.4264 20.1976 25.9336 19.7048 25.9336 19.0976C25.9336 18.4905 26.4264 17.9977 27.0336 17.9977C27.6408 17.9977 28.1336 18.4905 28.1336 19.0976C28.1336 19.7048 27.6408 20.1976 27.0336 20.1976Z" fill="#EC1C2A"/>
<path d="M32.5329 16.5312L32.5322 23.3576C32.5322 23.6956 32.398 24.0205 32.1582 24.2596L24.0361 32.3817L24.1608 32.5063C24.7335 33.079 25.6619 33.079 26.2346 32.5063L33.5691 25.1733C33.8448 24.8983 33.9996 24.525 33.9996 24.1364V17.9979C33.9996 17.1876 33.3432 16.5312 32.5329 16.5312Z" fill="#EC1C2A"/>
</g>
<defs>
<clipPath id="clip0">
<rect width="20" height="20" fill="white" transform="translate(14 14)"/>
</clipPath>
</defs>
</svg>
