<svg width="48" height="48" viewBox="0 0 48 48" fill="none" xmlns="http://www.w3.org/2000/svg">
<rect x="0.5" y="0.5" width="47" height="47" stroke="#E90707" stroke-opacity="0.2"/>
<g clip-path="url(#clip0)">
<path d="M24.0034 15.6406C19.9519 15.6406 16.6562 18.969 16.6562 23.0204C16.6562 24.3317 17.0005 25.583 17.6359 26.6833V25.9592C17.6359 20.608 22.009 20.5717 23.7044 20.5715C24.9604 20.5715 25.9861 19.716 26.2802 18.6294L26.5579 16.1495C25.7482 15.8473 24.8908 15.6406 24.0034 15.6406Z" fill="#EC1C2A"/>
<path d="M31.3505 23.0204C31.3505 20.5948 30.1609 18.3347 28.1687 16.9734L27.4966 16.5146L27.2748 18.5141C27.2425 18.805 27.1665 19.0948 27.0503 19.3642L27.4311 19.6085C29.2717 20.7871 30.3709 22.7951 30.3709 24.9796V26.6833C31.0062 25.583 31.3505 24.3317 31.3505 23.0204Z" fill="#EC1C2A"/>
<path d="M26.4523 24.4902C25.9122 24.4902 25.4727 24.9298 25.4727 25.4698C25.4727 26.0099 25.9122 26.4495 26.4523 26.4495C26.9923 26.4495 27.4319 26.0099 27.4319 25.4698C27.4319 24.9298 26.9923 24.4902 26.4523 24.4902Z" fill="#EC1C2A"/>
<path d="M21.5543 24.4902C21.0143 24.4902 20.5747 24.9298 20.5747 25.4698C20.5747 26.0099 21.0143 26.4495 21.5543 26.4495C22.0943 26.4495 22.5339 26.0099 22.5339 25.4698C22.5339 24.9298 22.0943 24.4902 21.5543 24.4902Z" fill="#EC1C2A"/>
<path d="M26.9022 20.4336L26.5703 20.2207L26.2919 20.4996C25.6237 21.1683 24.6933 21.5514 23.7386 21.5514C22.0755 21.5514 18.6152 21.5514 18.6152 25.9597V26.9719C18.6152 27.3589 18.6521 27.7239 18.7229 28.0487C19.227 30.5465 21.4474 32.3598 24.0031 32.3598C26.5588 32.3598 28.7792 30.5465 29.2815 28.0558C29.3542 27.7239 29.391 27.3589 29.391 26.9719V24.9801C29.391 23.1308 28.4607 21.4313 26.9022 20.4336ZM19.5948 25.4699C19.5948 24.3893 20.4735 23.5106 21.5541 23.5106C22.6346 23.5106 23.5133 24.3893 23.5133 25.4699C23.5133 26.5504 22.6346 27.4291 21.5541 27.4291C20.4735 27.4291 19.5948 26.5504 19.5948 25.4699ZM24.0031 30.4006C23.133 30.4006 22.3208 29.9318 21.8827 29.177L22.7303 28.6853C22.9934 29.1392 23.4813 29.421 24.0031 29.421C24.525 29.421 25.0129 29.1392 25.2759 28.6853L26.1235 29.1771C25.6854 29.9318 24.8732 30.4006 24.0031 30.4006ZM26.4521 27.4291C25.3716 27.4291 24.4929 26.5504 24.4929 25.4699C24.4929 24.3893 25.3716 23.5106 26.4521 23.5106C27.5327 23.5106 28.4114 24.3893 28.4114 25.4699C28.4114 26.5504 27.5327 27.4291 26.4521 27.4291Z" fill="#EC1C2A"/>
<path d="M14 18.6094V14H18.6094" stroke="#EC1C2A" stroke-width="1.5"/>
<path d="M34 18.6094V14H29.3906" stroke="#EC1C2A" stroke-width="1.5"/>
<path d="M14 29.3906V34H18.6094" stroke="#EC1C2A" stroke-width="1.5"/>
<path d="M34 29.3906V34H29.3906" stroke="#EC1C2A" stroke-width="1.5"/>
</g>
<defs>
<clipPath id="clip0">
<rect width="20" height="20" fill="white" transform="translate(14 14)"/>
</clipPath>
</defs>
</svg>
