<svg width="48" height="48" viewBox="0 0 48 48" fill="none" xmlns="http://www.w3.org/2000/svg">
<rect x="0.5" y="0.5" width="47" height="47" stroke="#E90707" stroke-opacity="0.2"/>
<g clip-path="url(#clip0)">
<path fill-rule="evenodd" clip-rule="evenodd" d="M14.8333 14H33.1667C33.6275 14 34 14.3733 34 14.8333V28.1667C34 28.6267 33.6275 29 33.1666 29H14.8333C14.3725 29 14 28.6267 14 28.1666V14.8333C14 14.3733 14.3725 14 14.8333 14ZM26.7344 16.7957C26.9514 16.6508 27.2063 16.5737 27.4674 16.5737C28.1982 16.5737 28.7883 17.1664 28.7883 17.8947V20.9802C28.4449 20.7727 28.1841 20.7239 27.8947 20.6697L27.8338 20.6582C27.7327 20.1688 27.2996 19.8009 26.7803 19.8009C26.5544 19.8009 26.3346 19.7202 26.1622 19.5743C25.9884 19.4272 25.876 19.2317 25.833 18.9772C25.6949 18.1542 24.7066 17.7953 24.0724 18.3386L22.6349 19.5707C22.4617 19.7191 22.2408 19.8009 22.0127 19.8009H20.4694C19.9502 19.8009 19.5171 20.1688 19.4159 20.6582L19.3527 20.6701C19.0815 20.7207 18.806 20.772 18.4614 20.9802V18.0299C18.4614 16.909 19.3704 16 20.4913 16H24.3309C24.9699 16 25.5716 16.3008 25.9549 16.8122L26.2066 17.1474L26.7344 16.7957ZM23.3348 20.3875L24.7723 19.1554C24.95 20.2063 25.8249 20.8766 26.7803 20.8766V24.0321C26.7803 25.7747 25.3676 27.1875 23.6249 27.1875C21.8822 27.1875 20.4694 25.7747 20.4694 24.0321V20.8766H22.0127C22.4979 20.8766 22.9665 20.7031 23.3348 20.3875ZM18.4614 22.8841C18.4614 23.4434 18.8615 23.9105 19.3937 24.0115V21.7568C18.863 21.8575 18.4614 22.324 18.4614 22.8841ZM28.7883 22.8841C28.7883 23.4435 28.3883 23.9105 27.8561 24.0115V21.7568C28.3867 21.8575 28.7883 22.324 28.7883 22.8841Z" fill="#EC1C2A"/>
<path d="M32.3335 29.834H15.6668C15.206 29.834 14.8335 30.2073 14.8335 30.6673C14.8335 31.1273 15.206 31.5007 15.6668 31.5007H32.3335C32.7943 31.5007 33.1668 31.1273 33.1668 30.6673C33.1668 30.2073 32.7943 29.834 32.3335 29.834Z" fill="#EC1C2A"/>
<path d="M30.6667 32.334H17.3333C16.8725 32.334 16.5 32.7073 16.5 33.1673C16.5 33.6273 16.8725 34.0007 17.3333 34.0007H30.6666C31.1275 34.0007 31.5 33.6273 31.5 33.1673C31.5 32.7073 31.1275 32.334 30.6667 32.334Z" fill="#EC1C2A"/>
</g>
<defs>
<clipPath id="clip0">
<rect width="20" height="20" fill="white" transform="translate(14 14)"/>
</clipPath>
</defs>
</svg>
