<svg width="48" height="48" viewBox="0 0 48 48" fill="none" xmlns="http://www.w3.org/2000/svg">
<rect x="0.5" y="0.5" width="47" height="47" stroke="#E90707" stroke-opacity="0.2"/>
<path d="M21.5002 23.1663C22.4206 23.1663 23.1668 22.4201 23.1668 21.4997C23.1668 20.5792 22.4206 19.833 21.5002 19.833C20.5797 19.833 19.8335 20.5792 19.8335 21.4997C19.8335 22.4201 20.5797 23.1663 21.5002 23.1663Z" fill="#EC1C2A"/>
<path d="M33.1667 29.8333H31.5V19C31.5 17.6217 30.3783 16.5 29 16.5H18.1667V14.8333C18.1667 14.3733 17.7942 14 17.3333 14C16.8725 14 16.5 14.3733 16.5 14.8333V16.5H14.8333C14.3725 16.5 14 16.8733 14 17.3333C14 17.7933 14.3725 18.1667 14.8333 18.1667H16.5V29C16.5 30.3783 17.6217 31.5 19 31.5H29.8333V33.1667C29.8333 33.6267 30.2058 34 30.6667 34C31.1275 34 31.5 33.6267 31.5 33.1667V31.5H33.1667C33.6275 31.5 34 31.1267 34 30.6667C34 30.2067 33.6275 29.8333 33.1667 29.8333ZM29 18.1667C29.46 18.1667 29.8333 18.5408 29.8333 19V24.7833L27.95 22.9C27.4 22.3492 26.4333 22.3492 25.8833 22.9L21.9167 26.8667L20.8667 25.8167C20.3167 25.2658 19.35 25.2658 18.8 25.8167L18.1667 26.4492V18.1667H29Z" fill="#EC1C2A"/>
</svg>
