<svg width="48" height="48" viewBox="0 0 48 48" fill="none" xmlns="http://www.w3.org/2000/svg">
<rect x="0.5" y="0.5" width="47" height="47" stroke="#E90707" stroke-opacity="0.2"/>
<g clip-path="url(#clip0)">
<path fill-rule="evenodd" clip-rule="evenodd" d="M22.7918 31.5H28.2293C28.5743 31.5 28.8543 31.22 28.8543 30.875V27.8708C28.8543 27.015 29.1185 26.1908 29.6177 25.4883C30.0316 24.9051 30.3277 24.2613 30.4977 23.5834H33.5832C33.9282 23.5834 34.2082 23.3034 34.2082 22.9584C34.2082 22.6134 33.9282 22.3334 33.5832 22.3334H30.6654C30.6664 22.2912 30.6668 22.249 30.6668 22.2067C30.6668 19.06 28.0818 16.5 24.906 16.5C21.7302 16.5 19.146 19.06 19.146 22.2083C19.1461 22.2502 19.1446 22.2919 19.1414 22.3334H14.4165C14.0715 22.3334 13.7915 22.6134 13.7915 22.9584C13.7915 23.3034 14.0715 23.5834 14.4165 23.5834H18.57L17.4777 25.2992C17.3835 25.4492 17.3335 25.62 17.3335 25.7933C17.3335 26.3033 17.7493 26.7175 18.2602 26.7175H19.146V28.185C19.146 29.0242 19.8335 29.7067 20.6777 29.7067C20.8443 29.7067 21.0027 29.6817 21.1235 29.6383L22.1668 29.325V30.875C22.1668 31.22 22.4468 31.5 22.7918 31.5ZM18.57 23.5834H30.4977C30.5995 23.1771 30.6561 22.7585 30.6654 22.3334H19.1414C19.1213 22.5971 19.0357 22.8531 18.891 23.0792L18.57 23.5834Z" fill="#EC1C2A"/>
<path d="M14.625 19.4167C14.28 19.4167 14 19.1367 14 18.7917V16.2917C14 15.0275 15.0275 14 16.2917 14H18.7917C19.1367 14 19.4167 14.28 19.4167 14.625C19.4167 14.97 19.1367 15.25 18.7917 15.25H16.2917C15.7175 15.25 15.25 15.7175 15.25 16.2917V18.7917C15.25 19.1367 14.97 19.4167 14.625 19.4167Z" fill="#EC1C2A"/>
<path d="M18.7917 33.9997H16.2917C15.0275 33.9997 14 32.9722 14 31.708V29.208C14 28.863 14.28 28.583 14.625 28.583C14.97 28.583 15.25 28.863 15.25 29.208V31.708C15.25 32.2822 15.7175 32.7497 16.2917 32.7497H18.7917C19.1367 32.7497 19.4167 33.0297 19.4167 33.3747C19.4167 33.7197 19.1367 33.9997 18.7917 33.9997Z" fill="#EC1C2A"/>
<path d="M33.3752 19.4167C33.0302 19.4167 32.7502 19.1367 32.7502 18.7917V16.2917C32.7502 15.7175 32.2827 15.25 31.7085 15.25H29.2085C28.8635 15.25 28.5835 14.97 28.5835 14.625C28.5835 14.28 28.8635 14 29.2085 14H31.7085C32.9727 14 34.0001 15.0275 34.0001 16.2917V18.7917C34.0001 19.1367 33.7201 19.4167 33.3752 19.4167Z" fill="#EC1C2A"/>
<path d="M31.7085 33.9997H29.2085C28.8635 33.9997 28.5835 33.7197 28.5835 33.3747C28.5835 33.0297 28.8635 32.7497 29.2085 32.7497H31.7085C32.2827 32.7497 32.7502 32.2822 32.7502 31.708V29.208C32.7502 28.863 33.0302 28.583 33.3752 28.583C33.7201 28.583 34.0001 28.863 34.0001 29.208V31.708C34.0001 32.9722 32.9727 33.9997 31.7085 33.9997Z" fill="#EC1C2A"/>
</g>
<defs>
<clipPath id="clip0">
<rect width="20" height="20" fill="white" transform="translate(14 14)"/>
</clipPath>
</defs>
</svg>
