<svg width="48" height="48" viewBox="0 0 48 48" fill="none" xmlns="http://www.w3.org/2000/svg">
<rect x="0.5" y="0.5" width="47" height="47" stroke="#E90707" stroke-opacity="0.2"/>
<path fill-rule="evenodd" clip-rule="evenodd" d="M23.806 15.0306C22.5476 15.1828 21.5138 16.1299 21.2303 17.3903C21.1578 17.7129 21.1568 24.8213 21.2293 25.287C21.4964 27.0046 22.4084 28.467 23.7874 29.3894C27.3449 31.7688 32.1332 29.7219 32.9058 25.4914C33.0241 24.8437 33.0343 17.7518 32.9176 17.316C32.6133 16.18 31.8167 15.381 30.6875 15.0791C30.4317 15.0107 24.3266 14.9677 23.806 15.0306ZM16.6547 18.6362C15.1924 18.8072 14.1363 19.9602 14.0259 21.5059L14 21.8682L16.1561 21.8684C18.2418 21.8685 18.3161 21.8709 18.4336 21.9423C18.6644 22.0827 18.7684 22.3985 18.6695 22.6581C18.6509 22.7069 18.5936 22.8836 18.5421 23.0507L18.4486 23.3546H19.2463H20.0441V20.9764V18.5981L18.4705 18.6029C17.605 18.6057 16.7879 18.6206 16.6547 18.6362ZM25.3758 19.8602C27.0031 20.362 27.0031 22.7056 25.3758 23.2073C24.2378 23.5582 23.0983 22.7208 23.0983 21.5338C23.0983 20.345 24.2362 19.5088 25.3758 19.8602ZM29.8453 19.8602C31.4727 20.362 31.4727 22.7056 29.8453 23.2073C28.7074 23.5582 27.5679 22.7208 27.5679 21.5338C27.5679 20.345 28.7057 19.5088 29.8453 19.8602ZM24.6441 20.9579C24.3503 21.0614 24.1731 21.3864 24.2517 21.6775C24.4195 22.2995 25.3024 22.2941 25.4434 21.6703C25.5496 21.2007 25.0977 20.7981 24.6441 20.9579ZM29.1136 20.9579C28.6892 21.1074 28.5676 21.6467 28.8864 21.9648C29.2775 22.355 29.923 22.086 29.923 21.5329C29.923 21.0992 29.5217 20.8141 29.1136 20.9579ZM14.0206 25.8165C14.0318 27.8024 14.0502 28.7325 14.0821 28.9257C14.8899 33.8215 20.7787 35.7163 24.1787 32.1743C24.4689 31.872 24.9234 31.2909 24.9234 31.2222C24.9234 31.2128 24.7935 31.1594 24.6347 31.1035C22.046 30.1918 20.0508 27.4418 20.0448 24.7774L20.0441 24.4722L18.7239 24.4615L17.4037 24.4509L17.2749 24.3262C17.0366 24.0958 17.0351 23.92 17.2651 23.2524L17.3579 22.983H15.6812H14.0045L14.0206 25.8165ZM18.4342 26.1241C18.8658 26.252 19.1875 26.5835 19.1875 26.9004C19.1875 27.4031 18.677 27.6328 18.2514 27.3216C18.0477 27.1726 17.8246 27.1571 17.6908 27.2826C17.291 27.6573 16.6916 27.4189 16.6921 26.8855C16.6926 26.2978 17.6331 25.8867 18.4342 26.1241ZM25.8291 26.3699C25.8738 26.3933 25.9789 26.4746 26.0624 26.5507C26.3166 26.782 26.5813 26.863 27.0837 26.863C27.5861 26.863 27.8508 26.782 28.105 26.5507C28.6845 26.0232 29.4386 26.5742 29.0258 27.2236C28.3562 28.2771 25.8112 28.2771 25.1416 27.2236C24.8288 26.7315 25.3298 26.1095 25.8291 26.3699ZM18.6778 29.9374C18.7225 29.9607 18.8275 30.042 18.9111 30.1181C19.1653 30.3495 19.43 30.4304 19.9324 30.4304C20.4348 30.4304 20.6995 30.3495 20.9536 30.1181C21.5332 29.5906 22.2873 30.1416 21.8745 30.7911C21.2049 31.8445 18.6599 31.8445 17.9903 30.7911C17.6775 30.299 18.1785 29.6769 18.6778 29.9374Z" fill="#EC1C2A"/>
</svg>
