<svg width="48" height="48" viewBox="0 0 48 48" fill="none" xmlns="http://www.w3.org/2000/svg">
<rect x="0.5" y="0.5" width="47" height="47" stroke="#E90707" stroke-opacity="0.2"/>
<g clip-path="url(#clip0)">
<path d="M33.1667 24.8327H14.8333C14.3733 24.8327 14 24.4602 14 23.9994C14 23.5385 14.3733 23.166 14.8333 23.166H33.1667C33.6267 23.166 34 23.5385 34 23.9994C34 24.4602 33.6267 24.8327 33.1667 24.8327Z" fill="#EC1C2A"/>
<path d="M29.6777 26.084C29.5936 26.4623 29.4836 26.8357 29.3177 27.1932C29.2244 27.384 28.9744 27.7915 28.8536 27.9815C27.6161 29.7882 26.0311 30.6673 24.0069 30.6673C21.9402 30.6673 20.3327 29.7615 19.1094 27.9248C19.1061 27.919 18.8069 27.4348 18.6886 27.1907C18.5202 26.8323 18.4094 26.4607 18.3252 26.084H16.6152C16.7236 26.7065 16.9069 27.3165 17.1844 27.9073C17.3311 28.2115 17.6902 28.7973 17.7061 28.8223C19.2561 31.1523 21.3769 32.334 24.0069 32.334C26.5852 32.334 28.6786 31.1865 30.2427 28.9015C30.2836 28.8373 30.6486 28.2657 30.8219 27.9115C31.0969 27.3198 31.2786 26.7082 31.3861 26.0848H29.6777V26.084Z" fill="#EC1C2A"/>
<path d="M18.8842 23.9993L19.0783 23.496C19.6333 23.2927 20.7717 22.7693 21.3633 21.741C22.3558 22.5935 24.4758 23.5402 29 23.5977L29.1492 23.9993H31.5V21.3902C31.5 17.6318 27.7308 15.666 24.0067 15.666C20.3908 15.666 16.5 17.4543 16.5 21.3827V23.9993H18.8842Z" fill="#EC1C2A"/>
<path d="M18.1667 14H16.5C15.1217 14 14 15.1217 14 16.5V18.1667C14 18.6275 14.3733 19 14.8333 19C15.2933 19 15.6667 18.6275 15.6667 18.1667V16.5C15.6667 16.04 16.0408 15.6667 16.5 15.6667H18.1667C18.6267 15.6667 19 15.2942 19 14.8333C19 14.3725 18.6267 14 18.1667 14Z" fill="#EC1C2A"/>
<path d="M18.1667 32.3333H16.5C16.0408 32.3333 15.6667 31.96 15.6667 31.5V29.8333C15.6667 29.3725 15.2933 29 14.8333 29C14.3733 29 14 29.3725 14 29.8333V31.5C14 32.8783 15.1217 34 16.5 34H18.1667C18.6267 34 19 33.6275 19 33.1667C19 32.7058 18.6267 32.3333 18.1667 32.3333Z" fill="#EC1C2A"/>
<path d="M31.5 14H29.8333C29.3733 14 29 14.3725 29 14.8333C29 15.2942 29.3733 15.6667 29.8333 15.6667H31.5C31.9592 15.6667 32.3333 16.04 32.3333 16.5V18.1667C32.3333 18.6275 32.7067 19 33.1667 19C33.6267 19 34 18.6275 34 18.1667V16.5C34 15.1217 32.8783 14 31.5 14Z" fill="#EC1C2A"/>
<path d="M33.1667 29C32.7067 29 32.3333 29.3725 32.3333 29.8333V31.5C32.3333 31.96 31.9592 32.3333 31.5 32.3333H29.8333C29.3733 32.3333 29 32.7058 29 33.1667C29 33.6275 29.3733 34 29.8333 34H31.5C32.8783 34 34 32.8783 34 31.5V29.8333C34 29.3725 33.6267 29 33.1667 29Z" fill="#EC1C2A"/>
</g>
<defs>
<clipPath id="clip0">
<rect width="20" height="20" fill="white" transform="translate(14 14)"/>
</clipPath>
</defs>
</svg>
