<svg width="84" height="62" viewBox="0 0 84 62" fill="none" xmlns="http://www.w3.org/2000/svg">
<g clip-path="url(#clip0)">
<path d="M27.4262 30.5805C27.4262 37.9009 25.9519 43.3658 23.0034 46.9752C20.0549 50.5845 15.6152 52.3892 9.68431 52.3892C7.43057 52.3892 5.81228 52.2537 4.82945 51.9825V46.9752C6.33759 47.3988 7.8542 47.6106 9.37929 47.6106C13.4123 47.6106 16.4201 46.5261 18.4027 44.3571C20.3853 42.1881 21.4699 38.782 21.6563 34.139H21.3512C20.3515 35.6641 19.1399 36.7655 17.7164 37.4434C16.31 38.1212 14.6578 38.4601 12.7599 38.4601C9.47249 38.4601 6.88831 37.4349 5.00737 35.3845C3.12643 33.3341 2.18596 30.5212 2.18596 26.9457C2.18596 23.0652 3.27047 19.9811 5.43948 17.6935C7.62544 15.3889 10.5994 14.2366 14.3612 14.2366C17.0047 14.2366 19.3093 14.8805 21.275 16.1684C23.2406 17.4562 24.7573 19.3287 25.8248 21.7858C26.8924 24.2259 27.4262 27.1575 27.4262 30.5805ZM14.4629 19.1931C12.3956 19.1931 10.8112 19.871 9.70973 21.2266C8.60827 22.5653 8.05755 24.4547 8.05755 26.8948C8.05755 29.013 8.56591 30.6821 9.58264 31.9022C10.6163 33.1053 12.1753 33.7069 14.2596 33.7069C16.2761 33.7069 17.9706 33.1053 19.3432 31.9022C20.7158 30.6991 21.4021 29.2926 21.4021 27.6828C21.4021 26.1747 21.1055 24.7682 20.5124 23.4634C19.9363 22.1416 19.1229 21.0995 18.0723 20.337C17.0217 19.5744 15.8186 19.1931 14.4629 19.1931ZM57.2162 33.3002C57.2162 39.7564 56.1741 44.552 54.0898 47.6869C52.0224 50.8218 48.8537 52.3892 44.5834 52.3892C40.4487 52.3892 37.3138 50.7709 35.1787 47.5344C33.0436 44.2978 31.976 39.5531 31.976 33.3002C31.976 26.7423 33.0097 21.9129 35.077 18.8119C37.1613 15.6939 40.3301 14.1349 44.5834 14.1349C48.735 14.1349 51.8784 15.7617 54.0135 19.0152C56.1487 22.2687 57.2162 27.0304 57.2162 33.3002ZM38.0255 33.3002C38.0255 38.3669 38.5424 41.9847 39.576 44.1537C40.6267 46.3228 42.2958 47.4073 44.5834 47.4073C46.871 47.4073 48.5402 46.3058 49.5908 44.1029C50.6583 41.9 51.1921 38.2991 51.1921 33.3002C51.1921 28.3182 50.6583 24.7173 49.5908 22.4975C48.5402 20.2607 46.871 19.1423 44.5834 19.1423C42.2958 19.1423 40.6267 20.2353 39.576 22.4212C38.5424 24.6072 38.0255 28.2335 38.0255 33.3002ZM63.3466 37.6837C63.3466 39.0609 63.4806 40.0868 63.7487 40.7616C64.0167 41.4363 64.4558 41.7737 65.0658 41.7737C66.2859 41.7737 66.8959 40.4103 66.8959 37.6837C66.8959 34.957 66.2859 33.5937 65.0658 33.5937C64.4558 33.5937 64.0167 33.931 63.7487 34.6058C63.4806 35.2805 63.3466 36.3065 63.3466 37.6837ZM69.5856 37.6559C69.5856 39.7818 69.202 41.3809 68.4349 42.453C67.6769 43.516 66.5539 44.0475 65.0658 44.0475C63.6609 44.0475 62.5702 43.4975 61.7938 42.3976C61.0266 41.2884 60.643 39.7079 60.643 37.6559C60.643 33.4319 62.1173 31.3199 65.0658 31.3199C66.5169 31.3199 67.6307 31.8699 68.4071 32.9698C69.1928 34.0604 69.5856 35.6225 69.5856 37.6559ZM76.5456 45.7805C76.5456 47.1577 76.6796 48.1883 76.9476 48.8723C77.2249 49.5563 77.6686 49.8982 78.2786 49.8982C79.4894 49.8982 80.0949 48.5257 80.0949 45.7805C80.0949 43.0723 79.4894 41.7182 78.2786 41.7182C77.6686 41.7182 77.2249 42.051 76.9476 42.7165C76.6796 43.382 76.5456 44.4033 76.5456 45.7805ZM82.7846 45.7805C82.7846 47.9064 82.401 49.5008 81.6338 50.5637C80.8666 51.6267 79.7482 52.1581 78.2786 52.1581C76.8737 52.1581 75.783 51.6128 75.0066 50.5221C74.2302 49.4222 73.842 47.8417 73.842 45.7805C73.842 41.5565 75.3209 39.4445 78.2786 39.4445C79.702 39.4445 80.8066 39.9898 81.5922 41.0805C82.3871 42.1711 82.7846 43.7378 82.7846 45.7805ZM78.6668 31.6111L67.4228 51.8809H64.7331L75.9771 31.6111H78.6668Z" fill="#EC1C2A"/>
</g>
<defs>
<clipPath id="clip0">
<rect width="84" height="62" fill="white"/>
</clipPath>
</defs>
</svg>
