<svg width="62" height="62" viewBox="0 0 62 62" fill="none" xmlns="http://www.w3.org/2000/svg">
<path d="M46.0058 39.7188C41.6759 39.7188 37.9152 42.2019 36.0724 45.8188C34.5461 44.9277 32.7949 44.4414 31 44.4414C29.1819 44.4414 27.446 44.92 25.925 45.8136C24.0812 42.1995 20.3221 39.7188 15.9942 39.7188C9.85123 39.7188 4.85357 44.7164 4.85357 50.8594C4.85357 57.0023 9.85123 62 15.9942 62C22.1372 62 27.1348 57.0023 27.1348 50.8594C27.1348 50.3779 27.1041 49.9036 27.0445 49.438C28.1679 48.554 29.543 48.0742 31 48.0742C32.4386 48.0742 33.8334 48.5636 34.9552 49.4399C34.8958 49.9048 34.8652 50.3786 34.8652 50.8594C34.8652 57.0023 39.8629 62 46.0058 62C52.1488 62 57.1465 57.0023 57.1465 50.8594C57.1465 44.7164 52.1488 39.7188 46.0058 39.7188Z" fill="#EC1C2A"/>
<path d="M10.8494 16.7109H51.1507L50.0653 13.0781H11.9348L10.8494 16.7109Z" fill="#EC1C2A"/>
<path d="M52.3818 20.3438H9.61823L2.17969 23.0711V24.3398C2.17969 27.3131 3.73889 31.4597 11.1673 34.3291C16.1933 36.2706 23.0513 37.2969 31 37.2969C38.9487 37.2969 45.8067 36.2706 50.8327 34.3291C58.2611 31.4597 59.8203 27.3131 59.8203 24.3398V23.0711L52.3818 20.3438Z" fill="#EC1C2A"/>
<path d="M48.9798 9.44531L46.1577 0H36.8681L31.0001 2.93398L25.132 0H15.8424L13.0203 9.44531H48.9798Z" fill="#EC1C2A"/>
</svg>
