<svg width="84" height="62" viewBox="0 0 84 62" fill="none" xmlns="http://www.w3.org/2000/svg">
<g clip-path="url(#clip0)">
<path d="M27.4262 30.5805C27.4262 37.9009 25.9519 43.3658 23.0034 46.9752C20.0549 50.5845 15.6152 52.3892 9.68431 52.3892C7.43057 52.3892 5.81228 52.2537 4.82945 51.9825V46.9752C6.33759 47.3988 7.8542 47.6106 9.37929 47.6106C13.4123 47.6106 16.4201 46.5261 18.4027 44.3571C20.3853 42.1881 21.4699 38.782 21.6563 34.139H21.3512C20.3515 35.6641 19.1399 36.7655 17.7164 37.4434C16.31 38.1212 14.6578 38.4601 12.7599 38.4601C9.47249 38.4601 6.88831 37.4349 5.00737 35.3845C3.12643 33.3341 2.18596 30.5212 2.18596 26.9457C2.18596 23.0652 3.27047 19.9811 5.43948 17.6935C7.62544 15.3889 10.5994 14.2366 14.3612 14.2366C17.0047 14.2366 19.3093 14.8805 21.275 16.1684C23.2406 17.4562 24.7573 19.3287 25.8248 21.7858C26.8924 24.2259 27.4262 27.1575 27.4262 30.5805ZM14.4629 19.1931C12.3956 19.1931 10.8112 19.871 9.70973 21.2266C8.60827 22.5653 8.05755 24.4547 8.05755 26.8948C8.05755 29.013 8.56591 30.6821 9.58264 31.9022C10.6163 33.1053 12.1753 33.7069 14.2596 33.7069C16.2761 33.7069 17.9706 33.1053 19.3432 31.9022C20.7158 30.6991 21.4021 29.2926 21.4021 27.6828C21.4021 26.1747 21.1055 24.7682 20.5124 23.4634C19.9363 22.1416 19.1229 21.0995 18.0723 20.337C17.0217 19.5744 15.8186 19.1931 14.4629 19.1931ZM57.2162 51.8809H32.0268V47.3564L41.6095 37.723C44.4394 34.8253 46.3118 32.7749 47.2269 31.5718C48.1589 30.3517 48.8367 29.2079 49.2603 28.1403C49.684 27.0728 49.8958 25.9289 49.8958 24.7089C49.8958 23.0313 49.3874 21.7095 48.3707 20.7436C47.3709 19.7778 45.9814 19.2948 44.2021 19.2948C42.7787 19.2948 41.3977 19.5575 40.059 20.0828C38.7372 20.6081 37.2037 21.557 35.4583 22.9296L32.2302 18.9898C34.2975 17.2444 36.3056 16.0074 38.2543 15.2787C40.203 14.5501 42.2788 14.1858 44.4817 14.1858C47.9386 14.1858 50.7092 15.0923 52.7935 16.9055C54.8778 18.7017 55.9199 21.1249 55.9199 24.1751C55.9199 25.8527 55.6149 27.4456 55.0048 28.9537C54.4118 30.4618 53.4882 32.0208 52.2343 33.6306C50.9973 35.2235 48.9299 37.3841 46.0322 40.1123L39.576 46.3651V46.6193H57.2162V51.8809ZM63.3466 37.6837C63.3466 39.0609 63.4806 40.0868 63.7487 40.7616C64.0167 41.4363 64.4558 41.7737 65.0658 41.7737C66.2859 41.7737 66.8959 40.4103 66.8959 37.6837C66.8959 34.957 66.2859 33.5937 65.0658 33.5937C64.4558 33.5937 64.0167 33.931 63.7487 34.6058C63.4806 35.2805 63.3466 36.3065 63.3466 37.6837ZM69.5856 37.6559C69.5856 39.7818 69.202 41.3809 68.4349 42.453C67.6769 43.516 66.5539 44.0475 65.0658 44.0475C63.6609 44.0475 62.5702 43.4975 61.7938 42.3976C61.0266 41.2884 60.643 39.7079 60.643 37.6559C60.643 33.4319 62.1173 31.3199 65.0658 31.3199C66.5169 31.3199 67.6307 31.8699 68.4071 32.9698C69.1928 34.0604 69.5856 35.6225 69.5856 37.6559ZM76.5456 45.7805C76.5456 47.1577 76.6796 48.1883 76.9476 48.8723C77.2249 49.5563 77.6686 49.8982 78.2786 49.8982C79.4894 49.8982 80.0949 48.5257 80.0949 45.7805C80.0949 43.0723 79.4894 41.7182 78.2786 41.7182C77.6686 41.7182 77.2249 42.051 76.9476 42.7165C76.6796 43.382 76.5456 44.4033 76.5456 45.7805ZM82.7846 45.7805C82.7846 47.9064 82.401 49.5008 81.6338 50.5637C80.8666 51.6267 79.7482 52.1581 78.2786 52.1581C76.8737 52.1581 75.783 51.6128 75.0066 50.5221C74.2302 49.4222 73.842 47.8417 73.842 45.7805C73.842 41.5565 75.3209 39.4445 78.2786 39.4445C79.702 39.4445 80.8066 39.9898 81.5922 41.0805C82.3871 42.1711 82.7846 43.7378 82.7846 45.7805ZM78.6668 31.6111L67.4228 51.8809H64.7331L75.9771 31.6111H78.6668Z" fill="#EC1C2A"/>
</g>
<defs>
<clipPath id="clip0">
<rect width="84" height="62" fill="white"/>
</clipPath>
</defs>
</svg>
