<svg width="84" height="62" viewBox="0 0 84 62" fill="none" xmlns="http://www.w3.org/2000/svg">
<g clip-path="url(#clip0)">
<path d="M27.477 51.8809H2.28763V47.3564L11.8703 37.723C14.7002 34.8253 16.5726 32.7749 17.4877 31.5718C18.4197 30.3517 19.0975 29.2079 19.5211 28.1403C19.9448 27.0728 20.1566 25.9289 20.1566 24.7089C20.1566 23.0313 19.6482 21.7095 18.6315 20.7436C17.6317 19.7778 16.2422 19.2948 14.4629 19.2948C13.0395 19.2948 11.6585 19.5575 10.3198 20.0828C8.99802 20.6081 7.46446 21.557 5.71908 22.9296L2.49098 18.9898C4.55832 17.2444 6.56635 16.0074 8.51508 15.2787C10.4638 14.5501 12.5396 14.1858 14.7425 14.1858C18.1994 14.1858 20.97 15.0923 23.0542 16.9055C25.1385 18.7017 26.1807 21.1249 26.1807 24.1751C26.1807 25.8527 25.8757 27.4456 25.2656 28.9537C24.6725 30.4618 23.749 32.0208 22.495 33.6306C21.258 35.2235 19.1907 37.3841 16.293 40.1123L9.83682 46.3651V46.6193H27.477V51.8809ZM57.2162 33.3002C57.2162 39.7564 56.1741 44.552 54.0898 47.6869C52.0224 50.8218 48.8537 52.3892 44.5834 52.3892C40.4487 52.3892 37.3138 50.7709 35.1787 47.5344C33.0436 44.2978 31.976 39.5531 31.976 33.3002C31.976 26.7423 33.0097 21.9129 35.077 18.8119C37.1613 15.6939 40.3301 14.1349 44.5834 14.1349C48.735 14.1349 51.8784 15.7617 54.0135 19.0152C56.1487 22.2687 57.2162 27.0304 57.2162 33.3002ZM38.0255 33.3002C38.0255 38.3669 38.5424 41.9847 39.576 44.1537C40.6267 46.3228 42.2958 47.4073 44.5834 47.4073C46.871 47.4073 48.5402 46.3058 49.5908 44.1029C50.6583 41.9 51.1921 38.2991 51.1921 33.3002C51.1921 28.3182 50.6583 24.7173 49.5908 22.4975C48.5402 20.2607 46.871 19.1423 44.5834 19.1423C42.2958 19.1423 40.6267 20.2353 39.576 22.4212C38.5424 24.6072 38.0255 28.2335 38.0255 33.3002ZM65.2183 44.0475L60.0746 36.5468H63.7903L67.2841 41.9123L70.8057 36.5468H74.4936L69.3361 44.0475L74.757 51.8809H71.0691L67.2841 46.141L63.513 51.8809H59.825L65.2183 44.0475Z" fill="#EC1C2A"/>
</g>
<defs>
<clipPath id="clip0">
<rect width="84" height="62" fill="white"/>
</clipPath>
</defs>
</svg>
