<svg width="84" height="62" viewBox="0 0 84 62" fill="none" xmlns="http://www.w3.org/2000/svg">
<g clip-path="url(#clip0)">
<path d="M26.079 23.26C26.079 25.6155 25.3927 27.5811 24.0201 29.157C22.6476 30.716 20.7158 31.7666 18.2248 32.3089V32.5122C21.2072 32.885 23.444 33.817 24.9352 35.3082C26.4264 36.7825 27.172 38.7482 27.172 41.2052C27.172 44.7807 25.9096 47.5428 23.3847 49.4916C20.8598 51.4233 17.2674 52.3892 12.6074 52.3892C8.48966 52.3892 5.01585 51.7199 2.18596 50.3812V45.0688C3.76188 45.8483 5.43101 46.4499 7.19333 46.8735C8.95566 47.2971 10.6502 47.5089 12.277 47.5089C15.1577 47.5089 17.3097 46.9752 18.7332 45.9076C20.1566 44.84 20.8683 43.1879 20.8683 40.9511C20.8683 38.9684 20.0803 37.5111 18.5044 36.5791C16.9285 35.6471 14.4544 35.1811 11.0823 35.1811H7.8542V30.3263H11.1331C17.064 30.3263 20.0295 28.2759 20.0295 24.1751C20.0295 22.5822 19.5127 21.3537 18.479 20.4895C17.4453 19.6252 15.9202 19.1931 13.9037 19.1931C12.4972 19.1931 11.1416 19.3965 9.83682 19.8032C8.53202 20.1929 6.98999 20.9639 5.21072 22.1162L2.28763 17.9476C5.69366 15.4397 9.65042 14.1858 14.1579 14.1858C17.9028 14.1858 20.8259 14.9907 22.9272 16.6005C25.0284 18.2103 26.079 20.4302 26.079 23.26ZM57.2162 33.3002C57.2162 39.7564 56.1741 44.552 54.0898 47.6869C52.0224 50.8218 48.8537 52.3892 44.5834 52.3892C40.4487 52.3892 37.3138 50.7709 35.1787 47.5344C33.0436 44.2978 31.976 39.5531 31.976 33.3002C31.976 26.7423 33.0097 21.9129 35.077 18.8119C37.1613 15.6939 40.3301 14.1349 44.5834 14.1349C48.735 14.1349 51.8784 15.7617 54.0135 19.0152C56.1487 22.2687 57.2162 27.0304 57.2162 33.3002ZM38.0255 33.3002C38.0255 38.3669 38.5424 41.9847 39.576 44.1537C40.6267 46.3228 42.2958 47.4073 44.5834 47.4073C46.871 47.4073 48.5402 46.3058 49.5908 44.1029C50.6583 41.9 51.1921 38.2991 51.1921 33.3002C51.1921 28.3182 50.6583 24.7173 49.5908 22.4975C48.5402 20.2607 46.871 19.1423 44.5834 19.1423C42.2958 19.1423 40.6267 20.2353 39.576 22.4212C38.5424 24.6072 38.0255 28.2335 38.0255 33.3002ZM65.2183 44.0475L60.0746 36.5468H63.7903L67.2841 41.9123L70.8057 36.5468H74.4936L69.3361 44.0475L74.757 51.8809H71.0691L67.2841 46.141L63.513 51.8809H59.825L65.2183 44.0475Z" fill="#EC1C2A"/>
</g>
<defs>
<clipPath id="clip0">
<rect width="84" height="62" fill="white"/>
</clipPath>
</defs>
</svg>
