<svg width="62" height="62" viewBox="0 0 62 62" fill="none" xmlns="http://www.w3.org/2000/svg">
<path d="M35.1212 45.5011H58.9942C59.5675 45.5011 60.0322 45.0363 60.0322 44.463V41.3496H35.1212V45.5011Z" fill="#EC1C2A"/>
<path d="M27.5136 46.5493C27.471 46.5188 27.4203 46.5007 27.3681 46.4975C27.3436 46.4957 27.3188 46.4993 27.295 46.5078C27.2085 46.5479 27.1382 46.6178 27.0985 46.7051L22.9775 54.666V54.6767L22.3546 55.8808H32.3813L27.6381 46.7051C27.6104 46.6433 27.5675 46.5898 27.5136 46.5493Z" fill="#EC1C2A"/>
<path d="M19.5526 52.0508L17.2374 55.8812H20.0195L20.8702 54.2305L19.5526 52.0508Z" fill="#EC1C2A"/>
<path d="M1.90723 58.9937C1.90723 59.5671 2.37197 60.0318 2.94527 60.0318H32.0078C32.5807 60.0318 33.0455 59.5671 33.0455 58.9937V57.9561H1.90723L1.90723 58.9937Z" fill="#EC1C2A"/>
<path d="M41.474 30.9697C41.4041 30.9747 41.3424 31.013 41.3076 31.0733L37.0731 39.2734H39.6778L41.8369 35.1006L42.771 33.2842L41.6297 31.0733C41.6024 31.0116 41.5414 30.9704 41.474 30.9697Z" fill="#EC1C2A"/>
<path d="M32.0078 9.69141C32.0078 11.6983 30.3812 13.3242 28.375 13.3242C26.3684 13.3242 24.7422 11.6983 24.7422 9.69141C24.7422 7.68555 26.3684 6.05859 28.375 6.05859C30.3812 6.05859 32.0078 7.68555 32.0078 9.69141Z" fill="#EC1C2A"/>
<path d="M10.2109 37.1972C10.2109 38.3438 9.28142 39.2733 8.13481 39.2733C6.9882 39.2733 6.05872 38.3438 6.05872 37.1972C6.05872 36.0506 6.9882 35.1211 8.13481 35.1211C9.28142 35.1211 10.2109 36.0506 10.2109 37.1972Z" fill="#EC1C2A"/>
<path fill-rule="evenodd" clip-rule="evenodd" d="M21.6284 1.90723H58.9942C59.5675 1.90723 60.0322 2.37197 60.0322 2.94527V36.045L53.4517 23.3202C52.9227 22.2815 51.8563 21.628 50.6909 21.628C49.5255 21.628 48.4583 22.2815 47.9297 23.3202L43.9439 31.0318L43.477 30.1186C43.0914 29.3676 42.3184 28.8947 41.474 28.894C40.6279 28.8894 39.8524 29.3633 39.4703 30.1186L35.1212 38.5259V36.1596C35.1212 35.586 34.6565 35.1212 34.0839 35.1212C33.739 35.1248 33.418 35.295 33.2221 35.5781C33.1051 35.7491 33.0433 35.9524 33.0455 36.1596V52.6527L29.4754 45.75C29.1235 45.076 28.4722 44.6098 27.7208 44.4941C27.6456 44.4821 27.5693 44.4753 27.4927 44.4736C27.4519 44.4647 27.4096 44.4615 27.3681 44.4629C27.3089 44.4615 27.25 44.4647 27.1915 44.4736H27.1709C26.3563 44.5399 25.634 45.0228 25.2612 45.75L21.9913 52.0713L21.0781 50.5663C20.7766 50.0037 20.1901 49.6532 19.5526 49.6532C18.9144 49.6532 18.328 50.0037 18.0264 50.5663L14.8193 55.8807H1.90723V32.0078C1.90723 31.4345 2.37197 30.9697 2.94527 30.9697H27.8556C28.1316 30.9697 28.3959 30.8615 28.5928 30.6685C28.6407 30.6221 28.6822 30.5695 28.7173 30.5128C28.8344 30.3418 28.8961 30.1392 28.894 29.9317C28.894 29.3587 28.4292 28.894 27.8556 28.894H20.59V2.94527C20.59 2.37197 21.0547 1.90723 21.6284 1.90723ZM3.98297 37.1973C3.98297 39.4905 5.84195 41.3495 8.1348 41.3495C10.428 41.3495 12.287 39.4905 12.287 37.1973C12.287 34.9044 10.428 33.0455 8.1348 33.0455C5.84195 33.0455 3.98297 34.9044 3.98297 37.1973ZM22.6661 9.69152C22.6661 12.8447 25.2221 15.4004 28.375 15.4004C31.5253 15.3951 34.0778 12.8426 34.0839 9.69152C34.0839 6.53906 31.5274 3.98297 28.375 3.98297C25.2221 3.98297 22.6661 6.53906 22.6661 9.69152ZM40.8301 19.5526H51.2095C53.789 19.5526 55.8807 17.4609 55.8807 14.8814C55.8807 12.3019 53.789 10.2109 51.2095 10.2109C50.6203 10.2116 50.0363 10.3202 49.4868 10.5323C48.8684 8.27671 46.677 6.82607 44.359 7.13791C42.0406 7.4501 40.3107 9.42864 40.3111 11.7676C40.3111 11.9514 40.3217 12.1352 40.3423 12.3179C38.4418 12.568 37.0632 14.2517 37.1923 16.1639C37.3215 18.0761 38.9133 19.5597 40.8301 19.5526ZM30.7004 31.9695L26.5692 37.1282C26.3354 37.4173 26.2736 37.8093 26.4078 38.1563C26.5411 38.5029 26.8498 38.7527 27.2173 38.8101C27.5849 38.868 27.9549 38.725 28.1883 38.4359L31.6033 34.1595L31.7278 34.0041L35.6821 29.0629V29.219C35.6821 29.792 36.1468 30.2567 36.7205 30.2567C37.2938 30.2567 37.7582 29.792 37.7582 29.219V26.1052C37.7582 26.0948 37.7556 26.087 37.753 26.0792C37.7521 26.0765 37.7513 26.0738 37.7505 26.071C37.7501 26.0698 37.7498 26.0685 37.7495 26.0672C37.7485 26.0629 37.7479 26.0583 37.7479 26.0531C37.7443 25.9786 37.7301 25.9055 37.7064 25.8353C37.6922 25.7742 37.6712 25.7153 37.6439 25.6586C37.617 25.6022 37.5822 25.55 37.5403 25.5028C37.5013 25.4429 37.4559 25.3875 37.4055 25.3372C37.4023 25.3339 37.3991 25.3298 37.3956 25.3252C37.3876 25.3149 37.3782 25.3027 37.3637 25.2953C37.3197 25.2559 37.2657 25.2275 37.2083 25.2123C37.1742 25.1825 37.1355 25.158 37.0937 25.1399C36.9741 25.0959 36.8482 25.0711 36.7205 25.0668H33.6063C33.033 25.0668 32.5686 25.5316 32.5686 26.1052C32.5686 26.6785 33.033 27.1429 33.6063 27.1429H34.561L30.7004 31.9695Z" fill="#EC1C2A"/>
<path d="M51.2095 12.287C50.5309 12.2834 49.8781 12.5481 49.3931 13.0238C49.2399 13.1799 49.0394 13.2818 48.8223 13.3144L48.7187 13.3243C48.3941 13.3736 48.0656 13.2669 47.8322 13.0359C47.5991 12.8042 47.4891 12.4764 47.5356 12.1515C47.5583 12.0248 47.5725 11.8968 47.5767 11.7676C47.5767 10.3347 46.4149 9.17285 44.9823 9.17285C43.5491 9.17285 42.3868 10.3347 42.3868 11.7676C42.3876 12.1529 42.4766 12.5328 42.6465 12.8784C42.7906 13.175 42.7831 13.5226 42.626 13.8125C42.4716 14.1009 42.1914 14.3007 41.8682 14.3521L41.5049 14.4039C41.3839 14.4213 41.2612 14.4181 41.1416 14.3936C41.0394 14.3723 40.9348 14.3624 40.8301 14.3627C39.9702 14.3627 39.2734 15.0599 39.2734 15.9198C39.2734 16.7794 39.9702 17.4765 40.8301 17.4765H51.2095C52.6428 17.4765 53.8047 16.3147 53.8047 14.8814C53.8047 13.4481 52.6428 12.287 51.2095 12.287Z" fill="#EC1C2A"/>
<path d="M58.1949 37.0004L51.6044 24.2749C51.4341 23.9258 51.0793 23.7041 50.6909 23.7041C50.3024 23.7041 49.9476 23.9258 49.7773 24.2749L44.8677 33.7617L42.0136 39.2734H59.3681L58.1949 37.0004Z" fill="#EC1C2A"/>
<path d="M9.17284 28.8944C9.74615 28.8944 10.2109 28.4297 10.2109 27.856V26.8187C10.2109 26.245 9.74615 25.7803 9.17284 25.7803C8.59954 25.7803 8.1348 26.245 8.1348 26.8187V27.856C8.1348 28.4297 8.59954 28.8944 9.17284 28.8944Z" fill="#EC1C2A"/>
<path d="M9.17284 23.7042C9.74615 23.7042 10.2109 23.2395 10.2109 22.6662V20.5901C10.2109 20.0175 9.74615 19.5527 9.17284 19.5527C8.59954 19.5527 8.1348 20.0175 8.1348 20.5901V22.6662C8.1348 23.2395 8.59954 23.7042 9.17284 23.7042Z" fill="#EC1C2A"/>
<path d="M9.17284 17.4766C9.74615 17.4766 10.2109 17.0119 10.2109 16.4386V15.4005C10.2109 14.8276 10.6753 14.3629 11.2486 14.3629H12.287C12.8596 14.3629 13.3243 13.8981 13.3243 13.3244C13.3243 12.7519 12.8596 12.2871 12.287 12.2871H11.2486C9.52903 12.2871 8.1348 13.6806 8.1348 15.4005V16.4386C8.1348 17.0119 8.59954 17.4766 9.17284 17.4766Z" fill="#EC1C2A"/>
<path d="M16.4385 14.3629H17.4765C18.0495 14.3629 18.5142 13.8981 18.5142 13.3244C18.5142 12.7519 18.0495 12.2871 17.4765 12.2871H16.4385C15.8652 12.2871 15.4004 12.7519 15.4004 13.3244C15.4004 13.8981 15.8652 14.3629 16.4385 14.3629Z" fill="#EC1C2A"/>
<path d="M50.6909 47.5771C50.1172 47.5771 49.6525 48.0419 49.6525 48.6156V49.6529C49.6525 50.2265 50.1172 50.6913 50.6909 50.6913C51.2642 50.6913 51.7286 50.2265 51.7286 49.6529V48.6156C51.7286 48.0419 51.2642 47.5771 50.6909 47.5771Z" fill="#EC1C2A"/>
<path d="M50.6909 52.7666C50.1172 52.7666 49.6525 53.2313 49.6525 53.8046V54.8423C49.6525 55.416 49.1877 55.8807 48.6151 55.8807H47.5767C47.0034 55.8807 46.539 56.3455 46.539 56.9181C46.539 57.4917 47.0034 57.9565 47.5767 57.9565H48.6151C50.3347 57.9565 51.7286 56.5623 51.7286 54.8423V53.8046C51.7286 53.2313 51.2642 52.7666 50.6909 52.7666Z" fill="#EC1C2A"/>
<path d="M43.4252 55.8809H41.3495C40.7758 55.8809 40.3111 56.3456 40.3111 56.9182C40.3111 57.4919 40.7758 57.9566 41.3495 57.9566H43.4252C43.9985 57.9566 44.4629 57.4919 44.4629 56.9182C44.4629 56.3456 43.9985 55.8809 43.4252 55.8809Z" fill="#EC1C2A"/>
<path d="M37.1973 55.8809H36.1596C35.586 55.8809 35.1212 56.3456 35.1212 56.9182C35.1212 57.4919 35.586 57.9566 36.1596 57.9566H37.1973C37.7706 57.9566 38.2354 57.4919 38.2354 56.9182C38.2354 56.3456 37.7706 55.8809 37.1973 55.8809Z" fill="#EC1C2A"/>
</svg>
