<svg width="84" height="62" viewBox="0 0 84 62" fill="none" xmlns="http://www.w3.org/2000/svg">
<g clip-path="url(#clip0)">
<path d="M14.8066 49.4473L0.984375 43.3086V40.957L14.8066 34.0391V38.0996L6.33008 41.9688L14.8066 45.4141V49.4473ZM30.7544 28.6741C34.4993 28.6741 37.4648 29.6654 39.6507 31.648C41.8367 33.6306 42.9297 36.3334 42.9297 39.7564C42.9297 43.7216 41.6842 46.8227 39.1932 49.0594C36.7192 51.2793 33.1945 52.3892 28.6193 52.3892C24.4676 52.3892 21.2057 51.7199 18.8333 50.3812V44.9671C20.2059 45.7466 21.7818 46.3482 23.5611 46.7718C25.3403 47.1954 26.9925 47.4073 28.5176 47.4073C31.2119 47.4073 33.2623 46.8057 34.6688 45.6026C36.0753 44.3995 36.7785 42.6371 36.7785 40.3156C36.7785 35.8759 33.9486 33.6561 28.2888 33.6561C27.4924 33.6561 26.5096 33.7408 25.3403 33.9102C24.1711 34.0627 23.1459 34.2407 22.2647 34.444L19.5958 32.8681L21.0193 14.7195H40.337V20.0319H26.2808L25.442 29.2333C26.0351 29.1316 26.7553 29.013 27.6026 28.8774C28.4668 28.7419 29.5174 28.6741 30.7544 28.6741ZM58.2291 47.5136C58.2291 49.0109 57.6838 50.1617 56.5931 50.9658C55.5024 51.7607 53.9404 52.1581 51.9069 52.1581C49.8642 52.1581 48.2236 51.8485 46.985 51.2292V48.4148C48.7874 49.2466 50.465 49.6625 52.0178 49.6625C54.0236 49.6625 55.0264 49.0571 55.0264 47.8463C55.0264 47.4581 54.9155 47.1346 54.6937 46.8758C54.4718 46.617 54.1067 46.3489 53.5984 46.0717C53.09 45.7944 52.3829 45.4801 51.4771 45.1289C49.7117 44.4449 48.5147 43.7609 47.8862 43.0769C47.2669 42.393 46.9573 41.5056 46.9573 40.415C46.9573 39.1025 47.4842 38.0857 48.5379 37.3648C49.6008 36.6346 51.0427 36.2695 52.8636 36.2695C54.6659 36.2695 56.3713 36.6346 57.9795 37.3648L56.9258 39.8188C55.2714 39.1348 53.8803 38.7928 52.7526 38.7928C51.0335 38.7928 50.1739 39.2827 50.1739 40.2625C50.1739 40.7431 50.3957 41.1498 50.8394 41.4825C51.2923 41.8153 52.272 42.2728 53.7786 42.8551C55.0449 43.345 55.9646 43.7933 56.5376 44.2C57.1107 44.6067 57.5359 45.078 57.8132 45.6141C58.0905 46.141 58.2291 46.7741 58.2291 47.5136Z" fill="#EC1C2A"/>
</g>
<defs>
<clipPath id="clip0">
<rect width="84" height="62" fill="white"/>
</clipPath>
</defs>
</svg>
