<svg width="84" height="62" viewBox="0 0 84 62" fill="none" xmlns="http://www.w3.org/2000/svg">
<g clip-path="url(#clip0)">
<path d="M27.4262 30.5805C27.4262 37.9009 25.9519 43.3658 23.0034 46.9752C20.0549 50.5845 15.6152 52.3892 9.68431 52.3892C7.43057 52.3892 5.81228 52.2537 4.82945 51.9825V46.9752C6.33759 47.3988 7.8542 47.6106 9.37929 47.6106C13.4123 47.6106 16.4201 46.5261 18.4027 44.3571C20.3853 42.1881 21.4699 38.782 21.6563 34.139H21.3512C20.3515 35.6641 19.1399 36.7655 17.7164 37.4434C16.31 38.1212 14.6578 38.4601 12.7599 38.4601C9.47249 38.4601 6.88831 37.4349 5.00737 35.3845C3.12643 33.3341 2.18596 30.5212 2.18596 26.9457C2.18596 23.0652 3.27047 19.9811 5.43948 17.6935C7.62544 15.3889 10.5994 14.2366 14.3612 14.2366C17.0047 14.2366 19.3093 14.8805 21.275 16.1684C23.2406 17.4562 24.7573 19.3287 25.8248 21.7858C26.8924 24.2259 27.4262 27.1575 27.4262 30.5805ZM14.4629 19.1931C12.3956 19.1931 10.8112 19.871 9.70973 21.2266C8.60827 22.5653 8.05755 24.4547 8.05755 26.8948C8.05755 29.013 8.56591 30.6821 9.58264 31.9022C10.6163 33.1053 12.1753 33.7069 14.2596 33.7069C16.2761 33.7069 17.9706 33.1053 19.3432 31.9022C20.7158 30.6991 21.4021 29.2926 21.4021 27.6828C21.4021 26.1747 21.1055 24.7682 20.5124 23.4634C19.9363 22.1416 19.1229 21.0995 18.0723 20.337C17.0217 19.5744 15.8186 19.1931 14.4629 19.1931ZM44.5834 14.2366C48.1081 14.2366 50.8956 15.05 52.946 16.6767C54.9964 18.2866 56.0216 20.4471 56.0216 23.1584C56.0216 26.9711 53.7339 30.0043 49.1587 32.2581C52.0733 33.7154 54.1406 35.2489 55.3607 36.8587C56.5977 38.4686 57.2162 40.2648 57.2162 42.2474C57.2162 45.3145 56.0894 47.7716 53.8356 49.6186C51.5819 51.4657 48.5317 52.3892 44.6851 52.3892C40.6521 52.3892 37.5256 51.525 35.3058 49.7966C33.0859 48.0681 31.976 45.6195 31.976 42.4507C31.976 40.3834 32.5522 38.5279 33.7044 36.8842C34.8737 35.2235 36.78 33.7493 39.4235 32.4614C37.1528 31.1058 35.5346 29.6739 34.5687 28.1657C33.6028 26.6576 33.1198 24.9631 33.1198 23.0821C33.1198 20.3878 34.1789 18.2442 36.2971 16.6513C38.4153 15.0415 41.1774 14.2366 44.5834 14.2366ZM37.6951 42.2474C37.6951 44.0097 38.3136 45.3823 39.5506 46.3651C40.7876 47.331 42.4652 47.814 44.5834 47.814C46.7694 47.814 48.4639 47.3141 49.667 46.3143C50.8871 45.2976 51.4971 43.925 51.4971 42.1966C51.4971 40.824 50.9379 39.57 49.8195 38.4347C48.7011 37.2993 47.0066 36.2487 44.7359 35.2828L43.9988 34.9524C41.762 35.9352 40.1522 37.0197 39.1693 38.2059C38.1865 39.3751 37.6951 40.7223 37.6951 42.2474ZM44.5326 18.8373C42.838 18.8373 41.4739 19.2609 40.4403 20.1082C39.4066 20.9385 38.8897 22.0739 38.8897 23.5142C38.8897 24.3954 39.0761 25.1833 39.4489 25.8781C39.8217 26.5729 40.364 27.2083 41.0757 27.7845C41.7874 28.3437 42.9905 29.0215 44.6851 29.8179C46.7185 28.9198 48.1504 27.9793 48.9807 26.9965C49.828 25.9967 50.2517 24.836 50.2517 23.5142C50.2517 22.0739 49.7263 20.9385 48.6757 20.1082C47.6421 19.2609 46.261 18.8373 44.5326 18.8373ZM63.3466 37.6837C63.3466 39.0609 63.4806 40.0868 63.7487 40.7616C64.0167 41.4363 64.4558 41.7737 65.0658 41.7737C66.2859 41.7737 66.8959 40.4103 66.8959 37.6837C66.8959 34.957 66.2859 33.5937 65.0658 33.5937C64.4558 33.5937 64.0167 33.931 63.7487 34.6058C63.4806 35.2805 63.3466 36.3065 63.3466 37.6837ZM69.5856 37.6559C69.5856 39.7818 69.202 41.3809 68.4349 42.453C67.6769 43.516 66.5539 44.0475 65.0658 44.0475C63.6609 44.0475 62.5702 43.4975 61.7938 42.3976C61.0266 41.2884 60.643 39.7079 60.643 37.6559C60.643 33.4319 62.1173 31.3199 65.0658 31.3199C66.5169 31.3199 67.6307 31.8699 68.4071 32.9698C69.1928 34.0604 69.5856 35.6225 69.5856 37.6559ZM76.5456 45.7805C76.5456 47.1577 76.6796 48.1883 76.9476 48.8723C77.2249 49.5563 77.6686 49.8982 78.2786 49.8982C79.4894 49.8982 80.0949 48.5257 80.0949 45.7805C80.0949 43.0723 79.4894 41.7182 78.2786 41.7182C77.6686 41.7182 77.2249 42.051 76.9476 42.7165C76.6796 43.382 76.5456 44.4033 76.5456 45.7805ZM82.7846 45.7805C82.7846 47.9064 82.401 49.5008 81.6338 50.5637C80.8666 51.6267 79.7482 52.1581 78.2786 52.1581C76.8737 52.1581 75.783 51.6128 75.0066 50.5221C74.2302 49.4222 73.842 47.8417 73.842 45.7805C73.842 41.5565 75.3209 39.4445 78.2786 39.4445C79.702 39.4445 80.8066 39.9898 81.5922 41.0805C82.3871 42.1711 82.7846 43.7378 82.7846 45.7805ZM78.6668 31.6111L67.4228 51.8809H64.7331L75.9771 31.6111H78.6668Z" fill="#EC1C2A"/>
</g>
<defs>
<clipPath id="clip0">
<rect width="84" height="62" fill="white"/>
</clipPath>
</defs>
</svg>
