<svg width="84" height="62" viewBox="0 0 84 62" fill="none" xmlns="http://www.w3.org/2000/svg">
<g clip-path="url(#clip0)">
<path d="M27.4262 30.5805C27.4262 37.9009 25.9519 43.3658 23.0034 46.9752C20.0549 50.5845 15.6152 52.3892 9.68431 52.3892C7.43057 52.3892 5.81228 52.2537 4.82945 51.9825V46.9752C6.33759 47.3988 7.8542 47.6106 9.37929 47.6106C13.4123 47.6106 16.4201 46.5261 18.4027 44.3571C20.3853 42.1881 21.4699 38.782 21.6563 34.139H21.3512C20.3515 35.6641 19.1399 36.7655 17.7164 37.4434C16.31 38.1212 14.6578 38.4601 12.7599 38.4601C9.47249 38.4601 6.88831 37.4349 5.00737 35.3845C3.12643 33.3341 2.18596 30.5212 2.18596 26.9457C2.18596 23.0652 3.27047 19.9811 5.43948 17.6935C7.62544 15.3889 10.5994 14.2366 14.3612 14.2366C17.0047 14.2366 19.3093 14.8805 21.275 16.1684C23.2406 17.4562 24.7573 19.3287 25.8248 21.7858C26.8924 24.2259 27.4262 27.1575 27.4262 30.5805ZM14.4629 19.1931C12.3956 19.1931 10.8112 19.871 9.70973 21.2266C8.60827 22.5653 8.05755 24.4547 8.05755 26.8948C8.05755 29.013 8.56591 30.6821 9.58264 31.9022C10.6163 33.1053 12.1753 33.7069 14.2596 33.7069C16.2761 33.7069 17.9706 33.1053 19.3432 31.9022C20.7158 30.6991 21.4021 29.2926 21.4021 27.6828C21.4021 26.1747 21.1055 24.7682 20.5124 23.4634C19.9363 22.1416 19.1229 21.0995 18.0723 20.337C17.0217 19.5744 15.8186 19.1931 14.4629 19.1931ZM57.1654 30.5805C57.1654 37.9009 55.6911 43.3658 52.7426 46.9752C49.7941 50.5845 45.3544 52.3892 39.4235 52.3892C37.1698 52.3892 35.5515 52.2537 34.5687 51.9825V46.9752C36.0768 47.3988 37.5934 47.6106 39.1185 47.6106C43.1515 47.6106 46.1593 46.5261 48.1419 44.3571C50.1246 42.1881 51.2091 38.782 51.3955 34.139H51.0905C50.0907 35.6641 48.8791 36.7655 47.4557 37.4434C46.0492 38.1212 44.397 38.4601 42.4991 38.4601C39.2117 38.4601 36.6275 37.4349 34.7466 35.3845C32.8656 33.3341 31.9252 30.5212 31.9252 26.9457C31.9252 23.0652 33.0097 19.9811 35.1787 17.6935C37.3647 15.3889 40.3386 14.2366 44.1005 14.2366C46.7439 14.2366 49.0485 14.8805 51.0142 16.1684C52.9799 17.4562 54.4965 19.3287 55.564 21.7858C56.6316 24.2259 57.1654 27.1575 57.1654 30.5805ZM44.2021 19.1931C42.1348 19.1931 40.5504 19.871 39.4489 21.2266C38.3475 22.5653 37.7968 24.4547 37.7968 26.8948C37.7968 29.013 38.3051 30.6821 39.3219 31.9022C40.3555 33.1053 41.9145 33.7069 43.9988 33.7069C46.0153 33.7069 47.7098 33.1053 49.0824 31.9022C50.455 30.6991 51.1413 29.2926 51.1413 27.6828C51.1413 26.1747 50.8447 24.7682 50.2517 23.4634C49.6755 22.1416 48.8621 21.0995 47.8115 20.337C46.7609 19.5744 45.5578 19.1931 44.2021 19.1931ZM63.3466 37.6837C63.3466 39.0609 63.4806 40.0868 63.7487 40.7616C64.0167 41.4363 64.4558 41.7737 65.0658 41.7737C66.2859 41.7737 66.8959 40.4103 66.8959 37.6837C66.8959 34.957 66.2859 33.5937 65.0658 33.5937C64.4558 33.5937 64.0167 33.931 63.7487 34.6058C63.4806 35.2805 63.3466 36.3065 63.3466 37.6837ZM69.5856 37.6559C69.5856 39.7818 69.202 41.3809 68.4349 42.453C67.6769 43.516 66.5539 44.0475 65.0658 44.0475C63.6609 44.0475 62.5702 43.4975 61.7938 42.3976C61.0266 41.2884 60.643 39.7079 60.643 37.6559C60.643 33.4319 62.1173 31.3199 65.0658 31.3199C66.5169 31.3199 67.6307 31.8699 68.4071 32.9698C69.1928 34.0604 69.5856 35.6225 69.5856 37.6559ZM76.5456 45.7805C76.5456 47.1577 76.6796 48.1883 76.9476 48.8723C77.2249 49.5563 77.6686 49.8982 78.2786 49.8982C79.4894 49.8982 80.0949 48.5257 80.0949 45.7805C80.0949 43.0723 79.4894 41.7182 78.2786 41.7182C77.6686 41.7182 77.2249 42.051 76.9476 42.7165C76.6796 43.382 76.5456 44.4033 76.5456 45.7805ZM82.7846 45.7805C82.7846 47.9064 82.401 49.5008 81.6338 50.5637C80.8666 51.6267 79.7482 52.1581 78.2786 52.1581C76.8737 52.1581 75.783 51.6128 75.0066 50.5221C74.2302 49.4222 73.842 47.8417 73.842 45.7805C73.842 41.5565 75.3209 39.4445 78.2786 39.4445C79.702 39.4445 80.8066 39.9898 81.5922 41.0805C82.3871 42.1711 82.7846 43.7378 82.7846 45.7805ZM78.6668 31.6111L67.4228 51.8809H64.7331L75.9771 31.6111H78.6668Z" fill="#EC1C2A"/>
</g>
<defs>
<clipPath id="clip0">
<rect width="84" height="62" fill="white"/>
</clipPath>
</defs>
</svg>
