<svg width="84" height="62" viewBox="0 0 84 62" fill="none" xmlns="http://www.w3.org/2000/svg">
<g clip-path="url(#clip0)">
<path d="M28.7987 43.7725H23.7914V51.8809H17.9706V43.7725H0.991307V39.1718L17.9706 14.6179H23.7914V38.8159H28.7987V43.7725ZM17.9706 38.8159V29.4875C17.9706 26.1662 18.0553 23.4464 18.2248 21.3283H18.0215C17.547 22.4467 16.8014 23.8023 15.7847 25.3952L6.55788 38.8159H17.9706ZM57.2162 33.3002C57.2162 39.7564 56.1741 44.552 54.0898 47.6869C52.0224 50.8218 48.8537 52.3892 44.5834 52.3892C40.4487 52.3892 37.3138 50.7709 35.1787 47.5344C33.0436 44.2978 31.976 39.5531 31.976 33.3002C31.976 26.7423 33.0097 21.9129 35.077 18.8119C37.1613 15.6939 40.3301 14.1349 44.5834 14.1349C48.735 14.1349 51.8784 15.7617 54.0135 19.0152C56.1487 22.2687 57.2162 27.0304 57.2162 33.3002ZM38.0255 33.3002C38.0255 38.3669 38.5424 41.9847 39.576 44.1537C40.6267 46.3228 42.2958 47.4073 44.5834 47.4073C46.871 47.4073 48.5402 46.3058 49.5908 44.1029C50.6583 41.9 51.1921 38.2991 51.1921 33.3002C51.1921 28.3182 50.6583 24.7173 49.5908 22.4975C48.5402 20.2607 46.871 19.1423 44.5834 19.1423C42.2958 19.1423 40.6267 20.2353 39.576 22.4212C38.5424 24.6072 38.0255 28.2335 38.0255 33.3002ZM65.2183 44.0475L60.0746 36.5468H63.7903L67.2841 41.9123L70.8057 36.5468H74.4936L69.3361 44.0475L74.757 51.8809H71.0691L67.2841 46.141L63.513 51.8809H59.825L65.2183 44.0475Z" fill="#EC1C2A"/>
</g>
<defs>
<clipPath id="clip0">
<rect width="84" height="62" fill="white"/>
</clipPath>
</defs>
</svg>
