<svg width="62" height="62" viewBox="0 0 62 62" fill="none" xmlns="http://www.w3.org/2000/svg">
<path d="M49.2534 47.6021H49.0497C49.0399 47.6021 49.0305 47.5996 49.0208 47.5996C49.005 47.6 48.9896 47.6021 48.9736 47.6021H44.7471V50.9279H49.2536C50.1102 50.9279 50.8342 50.1663 50.8342 49.265C50.8338 48.3633 50.11 47.6021 49.2534 47.6021Z" fill="#EC1C2A"/>
<path d="M49.1085 43.0129C49.1085 42.1201 48.3847 41.3662 47.5279 41.3662H44.7471V44.2763H48.5102C48.7948 44.0685 49.1085 43.6064 49.1085 43.0129Z" fill="#EC1C2A"/>
<path d="M54.9437 32.0125H44.3426C48.2714 32.0125 51.3988 28.7613 51.3988 24.8327V8.7352C51.3988 4.80614 48.2714 1.66406 44.3426 1.66406H28.2453C24.3165 1.66406 21.0507 4.80594 21.0507 8.7352V24.8325C21.0507 26.2912 21.5265 27.6484 22.2817 28.779L21.9963 28.4761C20.6547 27.1348 18.874 26.3958 16.9664 26.3958C15.0586 26.3958 13.2737 27.1348 11.9321 28.4761L2.08306 38.3274C-0.695048 41.1056 -0.694008 45.6262 2.0841 48.4045L11.9359 58.2561C13.2774 59.5974 15.0671 60.3364 16.9747 60.3364C18.8823 60.3364 20.6718 59.5974 22.0133 58.2561L31.8304 48.4045C32.85 47.3851 33.5224 46.1307 33.7303 44.8137V53.1023C33.7303 57.0309 36.996 60.2821 40.9249 60.2821H54.9435C58.8723 60.2821 61.9997 57.0309 61.9997 53.1023V39.0837C61.9999 35.1544 58.8725 32.0125 54.9437 32.0125ZM37.186 7.5907C39.5916 7.5907 41.8596 8.52089 43.5727 10.2102C44.2264 10.855 44.2341 11.9076 43.5891 12.5618C42.9439 13.2157 41.891 13.2232 41.2373 12.5784C40.1508 11.5071 38.7119 10.9167 37.186 10.9167C34.0046 10.9167 31.4165 13.5049 31.4165 16.6862C31.4165 19.8676 34.0046 22.4557 37.186 22.4557C38.872 22.4557 40.469 21.7209 41.5676 20.4396C42.1654 19.7425 43.2153 19.6618 43.9123 20.2598C44.6095 20.8575 44.6901 21.9074 44.0923 22.6044C42.3612 24.6238 39.844 25.7816 37.1858 25.7816C32.1707 25.7816 28.0905 21.7014 28.0905 16.6862C28.0907 11.6709 32.1709 7.5907 37.186 7.5907ZM27.5966 43.9419C27.2975 44.8099 26.3513 45.2714 25.4828 44.9723L23.031 44.1277L17.7654 49.3933L18.5886 51.8958C18.8756 52.7682 18.4011 53.7082 17.5285 53.9952C17.3559 54.052 17.1807 54.0788 17.0086 54.0788C16.3097 54.0788 15.6593 53.635 15.429 52.9351L10.9323 39.2651C10.735 38.665 10.8945 38.0048 11.3443 37.5613C11.7939 37.1175 12.4563 36.9674 13.0535 37.1732L26.5658 41.8279C27.4345 42.1272 27.8959 43.0736 27.5966 43.9419ZM33.7303 39.0834V41.9189C33.5224 40.6023 32.8497 39.3474 31.8302 38.3276L24.2814 30.7888C25.4119 31.544 26.7865 32.0125 28.2453 32.0125H40.9251C36.996 32.0125 33.7303 35.1544 33.7303 39.0834ZM49.2536 54.254H43.1534C42.2351 54.254 41.4213 53.455 41.4213 52.5367V39.649C41.4213 38.7307 42.2351 38.0406 43.1534 38.0406H47.5279C50.2333 38.0406 52.4343 40.244 52.4343 42.9859C52.4343 43.7211 52.2701 44.4189 51.9642 45.0681C53.2866 45.9625 54.16 47.5124 54.16 49.2451C54.1598 51.9954 51.9588 54.254 49.2536 54.254Z" fill="#EC1C2A"/>
<path d="M16.6008 45.8537L19.5321 42.9226L15.1387 41.4092L16.6008 45.8537Z" fill="#EC1C2A"/>
</svg>
