<svg width="62" height="62" viewBox="0 0 62 62" fill="none" xmlns="http://www.w3.org/2000/svg">
<path d="M60.1836 50.9803H54.6133V49.916L38.2656 33.5684L35.3849 36.4491L39.5499 40.6141C40.2594 41.3236 40.2594 42.4731 39.5499 43.1826C38.8405 43.8921 37.6909 43.8921 36.9814 43.1826L23.7344 29.9355L7.38672 46.2832V52.7967C7.38672 53.8007 8.19914 54.6131 9.20312 54.6131H50.9805V60.1834C50.9805 61.1874 51.7929 61.9998 52.7969 61.9998C53.8009 61.9998 54.6133 61.1874 54.6133 60.1834V54.6131H60.1836C61.1876 54.6131 62 53.8007 62 52.7967C62 51.7927 61.1876 50.9803 60.1836 50.9803Z" fill="#EC1C2A"/>
<path d="M40.082 21.918C42.0884 21.918 43.7148 20.2915 43.7148 18.2852C43.7148 16.2788 42.0884 14.6523 40.082 14.6523C38.0757 14.6523 36.4492 16.2788 36.4492 18.2852C36.4492 20.2915 38.0757 21.918 40.082 21.918Z" fill="#EC1C2A"/>
<path d="M9.20312 0C8.19914 0 7.38672 0.812418 7.38672 1.81641V7.38672H1.81641C0.812418 7.38672 0 8.19914 0 9.20312C0 10.2071 0.812418 11.0195 1.81641 11.0195H7.38672V41.1463L22.4502 26.0829C23.1597 25.3734 24.3092 25.3734 25.0187 26.0829L32.8164 33.8807L36.9814 29.7157C37.6909 29.0062 38.8405 29.0062 39.5499 29.7157L54.6133 44.7791V9.20312C54.6133 8.19914 53.8009 7.38672 52.7969 7.38672H11.0195V1.81641C11.0195 0.812418 10.2071 0 9.20312 0ZM40.082 11.0195C44.0873 11.0195 47.3477 14.278 47.3477 18.2852C47.3477 22.2923 44.0873 25.5508 40.082 25.5508C36.0767 25.5508 32.8164 22.2923 32.8164 18.2852C32.8164 14.278 36.0767 11.0195 40.082 11.0195Z" fill="#EC1C2A"/>
</svg>
