<svg width="84" height="62" viewBox="0 0 84 62" fill="none" xmlns="http://www.w3.org/2000/svg">
<g clip-path="url(#clip0)">
<path d="M27.4262 30.5805C27.4262 37.9009 25.9519 43.3658 23.0034 46.9752C20.0549 50.5845 15.6152 52.3892 9.68431 52.3892C7.43057 52.3892 5.81228 52.2537 4.82945 51.9825V46.9752C6.33759 47.3988 7.8542 47.6106 9.37929 47.6106C13.4123 47.6106 16.4201 46.5261 18.4027 44.3571C20.3853 42.1881 21.4699 38.782 21.6563 34.139H21.3512C20.3515 35.6641 19.1399 36.7655 17.7164 37.4434C16.31 38.1212 14.6578 38.4601 12.7599 38.4601C9.47249 38.4601 6.88831 37.4349 5.00737 35.3845C3.12643 33.3341 2.18596 30.5212 2.18596 26.9457C2.18596 23.0652 3.27047 19.9811 5.43948 17.6935C7.62544 15.3889 10.5994 14.2366 14.3612 14.2366C17.0047 14.2366 19.3093 14.8805 21.275 16.1684C23.2406 17.4562 24.7573 19.3287 25.8248 21.7858C26.8924 24.2259 27.4262 27.1575 27.4262 30.5805ZM14.4629 19.1931C12.3956 19.1931 10.8112 19.871 9.70973 21.2266C8.60827 22.5653 8.05755 24.4547 8.05755 26.8948C8.05755 29.013 8.56591 30.6821 9.58264 31.9022C10.6163 33.1053 12.1753 33.7069 14.2596 33.7069C16.2761 33.7069 17.9706 33.1053 19.3432 31.9022C20.7158 30.6991 21.4021 29.2926 21.4021 27.6828C21.4021 26.1747 21.1055 24.7682 20.5124 23.4634C19.9363 22.1416 19.1229 21.0995 18.0723 20.337C17.0217 19.5744 15.8186 19.1931 14.4629 19.1931ZM32.1285 36.0454C32.1285 21.5062 38.0509 14.2366 49.8958 14.2366C51.7598 14.2366 53.3357 14.3806 54.6236 14.6687V19.6507C53.3357 19.2779 51.8445 19.0915 50.15 19.0915C46.1678 19.0915 43.1769 20.159 41.1774 22.2942C39.1778 24.4293 38.0933 27.8522 37.9239 32.5631H38.2289C39.0253 31.1905 40.1437 30.1314 41.5841 29.3858C43.0244 28.6233 44.719 28.242 46.6677 28.242C50.0398 28.242 52.6664 29.2757 54.5473 31.343C56.4283 33.4103 57.3687 36.2148 57.3687 39.7564C57.3687 43.6539 56.2758 46.7379 54.0898 49.0086C51.9208 51.2624 48.9553 52.3892 45.1934 52.3892C42.533 52.3892 40.22 51.7538 38.2543 50.4829C36.2886 49.195 34.772 47.331 33.7044 44.8909C32.6538 42.4338 32.1285 39.4853 32.1285 36.0454ZM45.0918 47.4581C47.1422 47.4581 48.7181 46.7972 49.8195 45.4755C50.9379 44.1537 51.4971 42.2643 51.4971 39.8072C51.4971 37.6721 50.9718 35.9945 49.9212 34.7745C48.8875 33.5544 47.3286 32.9443 45.2443 32.9443C43.9564 32.9443 42.7702 33.2239 41.6857 33.7831C40.6012 34.3254 39.7455 35.0795 39.1185 36.0454C38.4915 36.9943 38.178 37.9687 38.178 38.9684C38.178 41.3578 38.822 43.3743 40.1098 45.018C41.4146 46.6447 43.0753 47.4581 45.0918 47.4581ZM63.3466 37.6837C63.3466 39.0609 63.4806 40.0868 63.7487 40.7616C64.0167 41.4363 64.4558 41.7737 65.0658 41.7737C66.2859 41.7737 66.8959 40.4103 66.8959 37.6837C66.8959 34.957 66.2859 33.5937 65.0658 33.5937C64.4558 33.5937 64.0167 33.931 63.7487 34.6058C63.4806 35.2805 63.3466 36.3065 63.3466 37.6837ZM69.5856 37.6559C69.5856 39.7818 69.202 41.3809 68.4349 42.453C67.6769 43.516 66.5539 44.0475 65.0658 44.0475C63.6609 44.0475 62.5702 43.4975 61.7938 42.3976C61.0266 41.2884 60.643 39.7079 60.643 37.6559C60.643 33.4319 62.1173 31.3199 65.0658 31.3199C66.5169 31.3199 67.6307 31.8699 68.4071 32.9698C69.1928 34.0604 69.5856 35.6225 69.5856 37.6559ZM76.5456 45.7805C76.5456 47.1577 76.6796 48.1883 76.9476 48.8723C77.2249 49.5563 77.6686 49.8982 78.2786 49.8982C79.4894 49.8982 80.0949 48.5257 80.0949 45.7805C80.0949 43.0723 79.4894 41.7182 78.2786 41.7182C77.6686 41.7182 77.2249 42.051 76.9476 42.7165C76.6796 43.382 76.5456 44.4033 76.5456 45.7805ZM82.7846 45.7805C82.7846 47.9064 82.401 49.5008 81.6338 50.5637C80.8666 51.6267 79.7482 52.1581 78.2786 52.1581C76.8737 52.1581 75.783 51.6128 75.0066 50.5221C74.2302 49.4222 73.842 47.8417 73.842 45.7805C73.842 41.5565 75.3209 39.4445 78.2786 39.4445C79.702 39.4445 80.8066 39.9898 81.5922 41.0805C82.3871 42.1711 82.7846 43.7378 82.7846 45.7805ZM78.6668 31.6111L67.4228 51.8809H64.7331L75.9771 31.6111H78.6668Z" fill="#EC1C2A"/>
</g>
<defs>
<clipPath id="clip0">
<rect width="84" height="62" fill="white"/>
</clipPath>
</defs>
</svg>
