<svg width="62" height="62" viewBox="0 0 62 62" fill="none" xmlns="http://www.w3.org/2000/svg">
<path d="M52.3125 17.5586C52.0819 17.5586 51.852 17.5668 51.623 17.5832C50.9328 15.3821 49.6355 13.3962 47.8663 11.8688C45.4881 9.81537 42.4086 8.73195 39.2582 8.84844C36.1706 3.43422 30.3982 0 24.2188 0C16.4564 0 9.5876 5.33503 7.52561 12.8193C3.0581 14.8053 0.121094 19.2665 0.121094 24.2187C0.121094 29.0472 2.879 33.2434 6.90234 35.3153V30.7578C6.90234 27.7531 9.34686 25.3086 12.3516 25.3086H49.6484C52.6533 25.3086 55.0977 27.7531 55.0977 30.7578V36.2759C59.0182 35.0804 61.8789 31.4315 61.8789 27.125C61.8789 21.85 57.5873 17.5586 52.3125 17.5586Z" fill="#EC1C2A"/>
<path d="M49.6484 28.9414H12.3516C11.3484 28.9414 10.5352 29.7547 10.5352 30.7578V43.587H51.4648V30.7578C51.4648 29.7547 50.6515 28.9414 49.6484 28.9414ZM26.1096 38.2656H16.4688C15.4656 38.2656 14.6523 37.4524 14.6523 36.4492C14.6523 35.4461 15.4656 34.6328 16.4688 34.6328H26.1096C27.1126 34.6328 27.926 35.4461 27.926 36.4492C27.926 37.4524 27.1126 38.2656 26.1096 38.2656ZM37.7812 38.2482C36.7781 38.2482 35.9648 37.4349 35.9648 36.4318C35.9648 35.4286 36.7781 34.6154 37.7812 34.6154C38.7843 34.6154 39.5977 35.4286 39.5977 36.4318C39.5977 37.4349 38.7843 38.2482 37.7812 38.2482ZM45.5312 38.2482C44.5281 38.2482 43.7148 37.4349 43.7148 36.4318C43.7148 35.4286 44.5281 34.6154 45.5312 34.6154C46.5343 34.6154 47.3477 35.4286 47.3477 36.4318C47.3477 37.4349 46.5343 38.2482 45.5312 38.2482Z" fill="#EC1C2A"/>
<path d="M10.5352 60.1835C10.5352 61.1867 11.3484 61.9999 12.3516 61.9999H49.6484C50.6515 61.9999 51.4648 61.1867 51.4648 60.1835V47.2197H10.5352V60.1835ZM45.5312 52.3124C46.5343 52.3124 47.3477 53.1257 47.3477 54.1288C47.3477 55.132 46.5343 55.9452 45.5312 55.9452C44.5281 55.9452 43.7148 55.132 43.7148 54.1288C43.7148 53.1257 44.5281 52.3124 45.5312 52.3124ZM37.7812 52.3124C38.7843 52.3124 39.5977 53.1257 39.5977 54.1288C39.5977 55.132 38.7843 55.9452 37.7812 55.9452C36.7781 55.9452 35.9648 55.132 35.9648 54.1288C35.9648 53.1257 36.7781 52.3124 37.7812 52.3124ZM16.4688 52.3124H26.1096C27.1126 52.3124 27.926 53.1257 27.926 54.1288C27.926 55.132 27.1126 55.9452 26.1096 55.9452H16.4688C15.4656 55.9452 14.6523 55.132 14.6523 54.1288C14.6523 53.1257 15.4656 52.3124 16.4688 52.3124Z" fill="#EC1C2A"/>
</svg>
