<svg width="1130" height="163" viewBox="0 0 1130 163" fill="none" xmlns="http://www.w3.org/2000/svg">
<path d="M407.915 109.521C402.049 109.521 397.203 107.572 393.378 103.673C389.554 99.7745 387.642 94.9661 387.642 89.2479C387.642 83.4926 389.554 78.6841 393.378 74.8225C397.203 70.9237 402.049 68.9743 407.915 68.9743C411.443 68.9743 414.692 69.8098 417.662 71.4807C420.67 73.1144 423.009 75.3423 424.68 78.1643L418.052 82.0073C417.087 80.2622 415.713 78.9069 413.93 77.9415C412.148 76.9389 410.143 76.4377 407.915 76.4377C404.128 76.4377 401.065 77.6259 398.725 80.0022C396.423 82.3786 395.272 85.4605 395.272 89.2479C395.272 92.9981 396.423 96.0614 398.725 98.4378C401.065 100.814 404.128 102.002 407.915 102.002C410.143 102.002 412.148 101.52 413.93 100.554C415.75 99.5518 417.124 98.1965 418.052 96.4884L424.68 100.332C423.009 103.153 420.688 105.4 417.718 107.071C414.747 108.705 411.48 109.521 407.915 109.521ZM462.383 103.673C458.447 107.572 453.657 109.521 448.013 109.521C442.369 109.521 437.58 107.572 433.644 103.673C429.745 99.7374 427.795 94.9289 427.795 89.2479C427.795 83.5668 429.745 78.7769 433.644 74.8782C437.58 70.9423 442.369 68.9743 448.013 68.9743C453.657 68.9743 458.447 70.9423 462.383 74.8782C466.319 78.7769 468.287 83.5668 468.287 89.2479C468.287 94.9289 466.319 99.7374 462.383 103.673ZM439.046 98.4378C441.46 100.814 444.449 102.002 448.013 102.002C451.578 102.002 454.567 100.814 456.98 98.4378C459.394 96.0243 460.601 92.961 460.601 89.2479C460.601 85.5348 459.394 82.4715 456.98 80.0579C454.567 77.6444 451.578 76.4377 448.013 76.4377C444.449 76.4377 441.46 77.6444 439.046 80.0579C436.633 82.4715 435.426 85.5348 435.426 89.2479C435.426 92.961 436.633 96.0243 439.046 98.4378ZM512.398 69.7541V108.742H504.768V83.4554L493.796 101.557H492.904L481.932 83.5111V108.742H474.246V69.7541H482.155L493.35 88.1897L504.489 69.7541H512.398ZM534.756 69.7541C538.507 69.7541 541.663 71.0165 544.225 73.5414C546.787 76.0664 548.068 79.1668 548.068 82.8428C548.068 86.5188 546.787 89.6192 544.225 92.1441C541.663 94.669 538.507 95.9315 534.756 95.9315H527.906V108.742H520.22V69.7541H534.756ZM534.756 88.7466C536.39 88.7466 537.745 88.1897 538.822 87.0757C539.899 85.9247 540.437 84.5137 540.437 82.8428C540.437 81.1347 539.899 79.7238 538.822 78.6098C537.745 77.4959 536.39 76.9389 534.756 76.9389H527.906V88.7466H534.756ZM568.166 109.521C563.821 109.521 560.257 108.296 557.472 105.845C554.687 103.395 553.295 100.109 553.295 95.9872V69.7541H560.925V95.3745C560.925 97.4167 561.501 99.0319 562.652 100.22C563.84 101.408 565.678 102.002 568.166 102.002C570.653 102.002 572.473 101.408 573.624 100.22C574.812 99.0319 575.406 97.4167 575.406 95.3745V69.7541H583.092V95.9872C583.092 100.109 581.7 103.395 578.915 105.845C576.13 108.296 572.547 109.521 568.166 109.521ZM616.361 69.7541V77.106H605.834V108.742H598.148V77.106H587.677V69.7541H616.361ZM628.895 101.39H645.326V108.742H621.209V69.7541H645.047V77.106H628.895V85.4048H643.655V92.6454H628.895V101.39ZM672.688 108.742L664.835 95.2074H658.986V108.742H651.3V69.7541H666.895C670.497 69.7541 673.56 71.0165 676.085 73.5414C678.61 76.0664 679.873 79.1111 679.873 82.6757C679.873 85.0892 679.186 87.3356 677.812 89.415C676.438 91.4572 674.619 92.9981 672.354 94.0378L680.987 108.742H672.688ZM658.986 76.9389V88.4681H666.895C668.343 88.4681 669.587 87.9112 670.627 86.7972C671.667 85.6462 672.187 84.2723 672.187 82.6757C672.187 81.079 671.667 79.7238 670.627 78.6098C669.587 77.4959 668.343 76.9389 666.895 76.9389H658.986ZM710.186 108.742L697.097 69.7541H705.452L714.976 99.7188L724.444 69.7541H732.854L719.71 108.742H710.186ZM737.169 69.7541H744.855V108.742H737.169V69.7541ZM765.342 109.521C761.481 109.521 758.232 108.667 755.595 106.959C752.959 105.214 751.102 102.856 750.026 99.8859L756.598 96.0429C758.12 100.016 761.109 102.002 765.565 102.002C767.719 102.002 769.297 101.613 770.299 100.833C771.302 100.053 771.803 99.0691 771.803 97.8809C771.803 96.507 771.19 95.4488 769.965 94.7062C768.74 93.9264 766.549 93.091 763.393 92.1998C761.648 91.68 760.162 91.1601 758.937 90.6403C757.749 90.1205 756.542 89.4335 755.317 88.5795C754.129 87.6884 753.219 86.5744 752.588 85.2377C751.956 83.901 751.641 82.3415 751.641 80.5592C751.641 77.0318 752.885 74.2284 755.372 72.149C757.897 70.0326 760.924 68.9743 764.451 68.9743C767.607 68.9743 770.373 69.7541 772.75 71.3136C775.163 72.836 777.038 74.971 778.375 77.7187L771.914 81.4504C770.355 78.1086 767.867 76.4377 764.451 76.4377C762.854 76.4377 761.592 76.809 760.664 77.5516C759.772 78.2571 759.327 79.1854 759.327 80.3364C759.327 81.5618 759.828 82.5643 760.831 83.344C761.87 84.0867 763.838 84.9036 766.735 85.7947C767.923 86.166 768.814 86.4631 769.408 86.6858C770.039 86.8715 770.875 87.1871 771.914 87.6327C772.991 88.0411 773.808 88.431 774.365 88.8023C774.959 89.1736 775.627 89.6749 776.37 90.3061C777.113 90.9373 777.67 91.5871 778.041 92.2555C778.449 92.9239 778.784 93.7407 779.044 94.7062C779.341 95.6344 779.489 96.6555 779.489 97.7695C779.489 101.371 778.171 104.23 775.535 106.347C772.935 108.463 769.538 109.521 765.342 109.521ZM784.787 69.7541H792.473V108.742H784.787V69.7541ZM833.053 103.673C829.117 107.572 824.327 109.521 818.683 109.521C813.039 109.521 808.249 107.572 804.313 103.673C800.414 99.7374 798.465 94.9289 798.465 89.2479C798.465 83.5668 800.414 78.7769 804.313 74.8782C808.249 70.9423 813.039 68.9743 818.683 68.9743C824.327 68.9743 829.117 70.9423 833.053 74.8782C836.989 78.7769 838.956 83.5668 838.956 89.2479C838.956 94.9289 836.989 99.7374 833.053 103.673ZM809.716 98.4378C812.129 100.814 815.118 102.002 818.683 102.002C822.248 102.002 825.237 100.814 827.65 98.4378C830.064 96.0243 831.27 92.961 831.27 89.2479C831.27 85.5348 830.064 82.4715 827.65 80.0579C825.237 77.6444 822.248 76.4377 818.683 76.4377C815.118 76.4377 812.129 77.6444 809.716 80.0579C807.302 82.4715 806.095 85.5348 806.095 89.2479C806.095 92.961 807.302 96.0243 809.716 98.4378ZM867.473 69.7541H875.159V108.742H869.311L852.602 84.9036V108.742H844.916V69.7541H850.764L867.473 93.5365V69.7541ZM907.065 108.742L893.976 69.7541H902.331L911.855 99.7188L921.323 69.7541H929.733L916.589 108.742H907.065ZM934.048 69.7541H941.734V108.742H934.048V69.7541ZM957.194 101.39H973.624V108.742H949.508V69.7541H973.346V77.106H957.194V85.4048H971.953V92.6454H957.194V101.39ZM1005.39 69.7541V77.106H994.86V108.742H987.174V77.106H976.703V69.7541H1005.39ZM1032.79 69.7541H1040.48V108.742H1034.63L1017.92 84.9036V108.742H1010.23V69.7541H1016.08L1032.79 93.5365V69.7541ZM1073.33 108.742L1070.99 101.724H1055.45L1053.11 108.742H1044.81L1058.46 69.7541H1067.98L1081.68 108.742H1073.33ZM1057.9 94.5391H1068.6L1063.25 78.6098L1057.9 94.5391ZM1124.18 69.7541V108.742H1116.55V83.4554L1105.58 101.557H1104.69L1093.71 83.5111V108.742H1086.03V69.7541H1093.94L1105.13 88.1897L1116.27 69.7541H1124.18Z" fill="#EC1C2A"/>
<path d="M399.318 151.885L392.302 134.507H392.199C392.268 135.571 392.302 136.661 392.302 137.777V151.885H391.041V133.065H393.075L399.743 149.62H399.82L406.488 133.065H408.47V151.885H407.144V137.622C407.144 136.627 407.196 135.597 407.299 134.533H407.196L400.154 151.885H399.318ZM435.78 145.243H428.134L425.508 151.885H424.053L431.622 132.988H432.459L439.873 151.885H438.393L435.78 145.243ZM428.61 144.059H435.342L432.781 137.275C432.566 136.743 432.309 136.005 432.008 135.061C431.777 135.884 431.523 136.631 431.249 137.3L428.61 144.059ZM463.502 133.979C461.142 133.979 459.284 134.735 457.928 136.245C456.572 137.755 455.894 139.824 455.894 142.45C455.894 145.136 456.533 147.221 457.812 148.706C459.09 150.19 460.918 150.933 463.296 150.933C464.875 150.933 466.325 150.731 467.647 150.328V151.486C466.402 151.924 464.849 152.143 462.987 152.143C460.343 152.143 458.262 151.289 456.743 149.581C455.224 147.873 454.465 145.488 454.465 142.424C454.465 140.51 454.825 138.824 455.546 137.365C456.276 135.906 457.318 134.782 458.674 133.992C460.039 133.194 461.622 132.795 463.424 132.795C465.261 132.795 466.904 133.138 468.355 133.825L467.827 135.009C466.454 134.323 465.012 133.979 463.502 133.979ZM498.393 151.885H497.067V142.63H486.074V151.885H484.761V133.065H486.074V141.42H497.067V133.065H498.393V151.885ZM516.653 151.885V133.065H517.966V151.885H516.653ZM549.897 151.885H548.571L537.424 135.177H537.321C537.424 137.167 537.475 138.669 537.475 139.682V151.885H536.214V133.065H537.527L548.662 149.748H548.739C548.662 148.204 548.623 146.736 548.623 145.346V133.065H549.897V151.885ZM578.443 151.885H568.158V133.065H578.443V134.275H569.471V141.394H577.941V142.604H569.471V150.675H578.443V151.885ZM623.421 133.979C621.061 133.979 619.203 134.735 617.847 136.245C616.491 137.755 615.813 139.824 615.813 142.45C615.813 145.136 616.452 147.221 617.731 148.706C619.009 150.19 620.837 150.933 623.215 150.933C624.794 150.933 626.244 150.731 627.566 150.328V151.486C626.321 151.924 624.768 152.143 622.906 152.143C620.262 152.143 618.181 151.289 616.662 149.581C615.143 147.873 614.384 145.488 614.384 142.424C614.384 140.51 614.744 138.824 615.465 137.365C616.195 135.906 617.237 134.782 618.593 133.992C619.958 133.194 621.541 132.795 623.343 132.795C625.18 132.795 626.823 133.138 628.274 133.825L627.746 135.009C626.373 134.323 624.931 133.979 623.421 133.979ZM653.742 145.243H646.096L643.47 151.885H642.015L649.585 132.988H650.421L657.836 151.885H656.356L653.742 145.243ZM646.572 144.059H653.305L650.743 137.275C650.529 136.743 650.271 136.005 649.971 135.061C649.739 135.884 649.486 136.631 649.211 137.3L646.572 144.059ZM687.115 151.885H685.789L674.641 135.177H674.538C674.641 137.167 674.693 138.669 674.693 139.682V151.885H673.431V133.065H674.744L685.879 149.748H685.957C685.879 148.204 685.841 146.736 685.841 145.346V133.065H687.115V151.885ZM735.53 147.032C735.53 148.603 734.951 149.847 733.792 150.765C732.642 151.684 731.11 152.143 729.196 152.143C726.897 152.143 725.133 151.89 723.906 151.383V150.07C725.262 150.645 726.991 150.933 729.093 150.933C730.638 150.933 731.861 150.581 732.762 149.877C733.672 149.165 734.127 148.234 734.127 147.084C734.127 146.371 733.977 145.784 733.676 145.32C733.376 144.848 732.887 144.419 732.209 144.033C731.531 143.647 730.535 143.231 729.222 142.784C727.3 142.123 725.97 141.411 725.232 140.647C724.502 139.875 724.137 138.85 724.137 137.571C724.137 136.163 724.687 135.018 725.785 134.134C726.892 133.241 728.313 132.795 730.046 132.795C731.814 132.795 733.474 133.13 735.028 133.799L734.551 134.932C732.99 134.28 731.496 133.954 730.072 133.954C728.682 133.954 727.574 134.275 726.751 134.919C725.927 135.563 725.515 136.438 725.515 137.545C725.515 138.24 725.639 138.811 725.888 139.257C726.146 139.703 726.562 140.107 727.137 140.467C727.712 140.819 728.699 141.244 730.098 141.742C731.565 142.248 732.668 142.741 733.406 143.222C734.144 143.694 734.68 144.235 735.015 144.844C735.358 145.445 735.53 146.174 735.53 147.032ZM762.711 151.885H752.425V133.065H762.711V134.275H753.738V141.394H762.209V142.604H753.738V150.675H762.711V151.885ZM790.175 151.885H779.89V133.065H790.175V134.275H781.203V141.394H789.673V142.604H781.203V150.675H790.175V151.885Z" fill="black"/>
<path d="M78.34 0L93.4276 39.9679H100.644C106.539 39.9679 111.816 43.6215 113.89 49.1389L156.679 162.945H198.982L145.739 20.2491C141.195 8.07296 129.566 0 116.57 0H78.34Z" fill="#EC1C2A"/>
<path fill-rule="evenodd" clip-rule="evenodd" d="M0 81.7524C0 36.6018 36.6019 0 81.7525 0H117.952V39.9679H81.7525C58.6755 39.9679 39.9679 58.6755 39.9679 81.7524C39.9679 104.829 58.6755 123.537 81.7524 123.537H119.326L134.346 162.945H81.4727C36.3221 162.945 0 126.903 0 81.7524Z" fill="#EC1C2A"/>
<path fill-rule="evenodd" clip-rule="evenodd" d="M252.764 0C252.457 0.201963 252.151 0.407007 251.846 0.615136C251.59 0.789906 251.334 0.967058 251.08 1.14636C225.942 18.8521 217.886 51.8878 230.608 78.8304L198.983 162.945H156.68L209.924 20.2491C214.467 8.07296 226.096 0 239.092 0H252.764Z" fill="#EC1C2A"/>
<path d="M315.037 80.8325C315.037 93.8121 304.515 104.334 291.535 104.334C278.555 104.334 268.033 93.8121 268.033 80.8325C268.033 67.8528 278.555 57.3307 291.535 57.3307C304.515 57.3307 315.037 67.8528 315.037 80.8325Z" fill="#EC1C2A"/>
<path d="M345.429 39.2291H311.698H293.633L293.538 39.313C292.811 39.2759 292.08 39.2571 291.344 39.2571C267.98 39.2571 249.041 58.1968 249.041 81.5602C249.041 83.6741 249.196 85.7517 249.495 87.7823L244.948 81.2506C228.689 57.8922 234.332 25.6976 257.553 9.34189C257.765 9.193 257.977 9.04594 258.19 8.90069C266.135 3.47841 275.069 0.596258 284.029 0.0834525L284.249 0.0713468C286.125 -0.0279034 288.002 -0.0233601 289.871 0.0834525H360.084L345.429 39.2291Z" fill="#EC1C2A"/>
<path d="M285.103 123.406H269.968H236.237L221.581 162.552H291.795C293.664 162.659 295.541 162.663 297.417 162.564L297.637 162.552C306.597 162.039 315.531 159.157 323.476 153.735C323.689 153.589 323.901 153.442 324.112 153.293C347.333 136.938 352.976 104.743 336.717 81.3847L333.354 76.5529C333.547 78.195 333.647 79.866 333.647 81.5602C333.647 104.924 314.707 123.863 291.344 123.863C289.223 123.863 287.139 123.707 285.103 123.406Z" fill="#EC1C2A"/>
</svg>
