<svg width="60" height="60" viewBox="0 0 60 60" fill="none" xmlns="http://www.w3.org/2000/svg">
<rect width="60" height="60" fill="#EC1C2A"/>
<g clip-path="url(#clip0)">
<path d="M43.091 14H16.9091C15.3047 14 14 15.3047 14 16.9091V21.2728C14 22.8771 15.3047 24.1819 16.9091 24.1819H43.091C44.6953 24.1819 46.0001 22.8772 46.0001 21.2728V16.9091C46 15.3047 44.6953 14 43.091 14ZM19.8182 20.5455C19.8182 20.9475 19.4929 21.2728 19.0909 21.2728C18.6889 21.2728 18.3636 20.9475 18.3636 20.5455V17.6363C18.3636 17.2343 18.6889 16.909 19.0909 16.909C19.4929 16.909 19.8182 17.2343 19.8182 17.6363V20.5455H19.8182ZM22.7273 20.5455C22.7273 20.9475 22.402 21.2728 22 21.2728C21.598 21.2728 21.2727 20.9475 21.2727 20.5455V17.6363C21.2727 17.2343 21.598 16.909 22 16.909C22.402 16.909 22.7273 17.2343 22.7273 17.6363V20.5455ZM25.6364 20.5455C25.6364 20.9475 25.3111 21.2728 24.9091 21.2728C24.5071 21.2728 24.1818 20.9475 24.1818 20.5455V17.6363C24.1818 17.2343 24.5071 16.909 24.9091 16.909C25.3111 16.909 25.6364 17.2343 25.6364 17.6363V20.5455ZM35.8182 20.5455C35.0164 20.5455 34.3637 19.8928 34.3637 19.0909C34.3637 18.2891 35.0164 17.6363 35.8182 17.6363C36.62 17.6363 37.2727 18.289 37.2727 19.0909C37.2727 19.8927 36.62 20.5455 35.8182 20.5455ZM40.1818 20.5455C39.38 20.5455 38.7273 19.8928 38.7273 19.0909C38.7273 18.2891 39.38 17.6363 40.1818 17.6363C40.9837 17.6363 41.6364 18.289 41.6364 19.0909C41.6364 19.8927 40.9837 20.5455 40.1818 20.5455Z" fill="white"/>
<path d="M43.091 24.9092H16.9091C15.3047 24.9092 14 26.2138 14 27.8183V32.1819C14 33.7863 15.3047 35.0911 16.9091 35.0911H43.091C44.6953 35.0911 46.0001 33.7864 46.0001 32.1819V27.8183C46 26.2138 44.6953 24.9092 43.091 24.9092ZM19.8182 31.4546C19.8182 31.8566 19.4929 32.1819 19.0909 32.1819C18.6889 32.1819 18.3636 31.8566 18.3636 31.4546V28.5455C18.3636 28.1435 18.6889 27.8182 19.0909 27.8182C19.4929 27.8182 19.8182 28.1435 19.8182 28.5455V31.4546H19.8182ZM22.7273 31.4546C22.7273 31.8566 22.402 32.1819 22 32.1819C21.598 32.1819 21.2727 31.8566 21.2727 31.4546V28.5455C21.2727 28.1435 21.598 27.8182 22 27.8182C22.402 27.8182 22.7273 28.1435 22.7273 28.5455V31.4546ZM25.6364 31.4546C25.6364 31.8566 25.3111 32.1819 24.9091 32.1819C24.5071 32.1819 24.1818 31.8566 24.1818 31.4546V28.5455C24.1818 28.1435 24.5071 27.8182 24.9091 27.8182C25.3111 27.8182 25.6364 28.1435 25.6364 28.5455V31.4546ZM35.8182 31.4546C35.0164 31.4546 34.3637 30.8019 34.3637 30.0001C34.3637 29.1983 35.0164 28.5456 35.8182 28.5456C36.62 28.5456 37.2727 29.1983 37.2727 30.0001C37.2727 30.8019 36.62 31.4546 35.8182 31.4546ZM40.1818 31.4546C39.38 31.4546 38.7273 30.8019 38.7273 30.0001C38.7273 29.1983 39.38 28.5456 40.1818 28.5456C40.9837 28.5456 41.6364 29.1983 41.6364 30.0001C41.6364 30.8019 40.9837 31.4546 40.1818 31.4546Z" fill="white"/>
<path d="M43.091 35.8184H16.9091C15.3047 35.8184 14 37.123 14 38.7275V43.0911C14 44.6955 15.3047 46.0002 16.9091 46.0002H43.091C44.6953 46.0002 46.0001 44.6956 46.0001 43.0911V38.7275C46 37.123 44.6953 35.8184 43.091 35.8184ZM19.8182 42.3638C19.8182 42.7658 19.4929 43.0911 19.0909 43.0911C18.6889 43.0911 18.3636 42.7658 18.3636 42.3638V39.4547C18.3636 39.0527 18.6889 38.7274 19.0909 38.7274C19.4929 38.7274 19.8182 39.0527 19.8182 39.4547V42.3638H19.8182ZM22.7273 42.3638C22.7273 42.7658 22.402 43.0911 22 43.0911C21.598 43.0911 21.2727 42.7658 21.2727 42.3638V39.4547C21.2727 39.0527 21.598 38.7274 22 38.7274C22.402 38.7274 22.7273 39.0527 22.7273 39.4547V42.3638ZM25.6364 42.3638C25.6364 42.7658 25.3111 43.0911 24.9091 43.0911C24.5071 43.0911 24.1818 42.7658 24.1818 42.3638V39.4547C24.1818 39.0527 24.5071 38.7274 24.9091 38.7274C25.3111 38.7274 25.6364 39.0527 25.6364 39.4547V42.3638ZM35.8182 42.3638C35.0164 42.3638 34.3637 41.7111 34.3637 40.9093C34.3637 40.1075 35.0164 39.4548 35.8182 39.4548C36.62 39.4548 37.2727 40.1075 37.2727 40.9093C37.2727 41.7111 36.62 42.3638 35.8182 42.3638ZM40.1818 42.3638C39.38 42.3638 38.7273 41.7111 38.7273 40.9093C38.7273 40.1075 39.38 39.4548 40.1818 39.4548C40.9837 39.4548 41.6364 40.1075 41.6364 40.9093C41.6364 41.7111 40.9837 42.3638 40.1818 42.3638Z" fill="white"/>
</g>
<defs>
<clipPath id="clip0">
<rect width="32" height="32" fill="white" transform="translate(14 14)"/>
</clipPath>
</defs>
</svg>
