<svg width="60" height="60" viewBox="0 0 60 60" fill="none" xmlns="http://www.w3.org/2000/svg">
<rect width="60" height="60" fill="#EC1C2A"/>
<path d="M41.0208 24.108H40.9485C40.9817 19.6583 37.3817 16.085 32.9876 16.085C29.9122 16.085 27.2445 17.8288 25.9183 20.3815C25.1892 19.6105 24.1574 19.1287 23.0124 19.1287C20.4032 19.1287 18.4986 21.5845 19.1337 24.108H18.9792C16.2293 24.108 14 26.3373 14 29.0872C14 31.8371 16.2293 34.0665 18.9792 34.0665H41.0208C43.7707 34.0665 46 31.8371 46 29.0872C46 26.3373 43.7707 24.108 41.0208 24.108Z" fill="white"/>
<path d="M30.9375 38.4446V35.9414H29.0625V38.4446C27.9695 38.8317 27.1843 39.8752 27.1843 41.0991C27.1843 42.6517 28.4474 43.9147 30 43.9147C31.5525 43.9147 32.8156 42.6517 32.8156 41.0991C32.8156 39.8752 32.0304 38.8318 30.9375 38.4446Z" fill="white"/>
<path d="M38.2029 38.5387L36.5657 36.9014V35.9414H34.6907V37.2895C34.6907 37.5383 34.7894 37.777 34.965 37.9527L36.8539 39.8415C35.9221 41.6996 37.2767 43.9147 39.3719 43.9147C40.9244 43.9147 42.1875 42.6517 42.1875 41.0991C42.1875 39.0544 40.062 37.6865 38.2029 38.5387Z" fill="white"/>
<path d="M23.4344 36.9013L21.7971 38.5386C19.9416 37.6881 17.8125 39.0507 17.8125 41.0991C17.8125 42.6517 19.0756 43.9147 20.6281 43.9147C22.722 43.9147 24.079 41.7015 23.1462 39.8415L25.035 37.9527C25.2106 37.777 25.3094 37.5383 25.3094 37.2895V35.9414H23.4344V36.9013Z" fill="white"/>
</svg>
