<svg width="371" height="325" viewBox="0 0 371 325" fill="none" xmlns="http://www.w3.org/2000/svg">
<g clip-path="url(#clip0)">
<path d="M343.689 77.3542L272.755 93.061C269.857 93.7022 266.983 91.8735 266.342 88.9759L251.562 22.2459C250.92 19.3484 252.749 16.4747 255.647 15.8334L326.581 0.126643C329.478 -0.514611 332.352 1.31415 332.993 4.21167L347.774 70.9417C348.415 73.8471 346.586 76.7129 343.689 77.3542Z" fill="#F6A72E"/>
<path d="M315.885 55.1954C315.885 55.2112 315.703 55.2587 315.347 55.3537C314.959 55.4487 314.436 55.5754 313.779 55.7416C312.378 56.0741 310.399 56.5333 307.96 57.1033C302.989 58.2354 296.117 59.795 288.39 61.5525L288.232 61.5921L288.169 61.4337C287.789 60.4283 287.393 59.3675 286.989 58.2908C283.561 49.0837 280.505 40.8661 278.502 35.4907L278.645 35.5619C276.436 36.0369 274.671 36.409 273.42 36.6782C272.834 36.7969 272.375 36.8919 272.026 36.9553C271.71 37.0186 271.543 37.0423 271.543 37.0265C271.543 37.0186 271.702 36.9711 272.019 36.884C272.359 36.7969 272.818 36.6861 273.396 36.5436C274.639 36.2507 276.396 35.839 278.597 35.3244L278.7 35.3007L278.74 35.3957C280.766 40.7553 283.878 48.957 287.353 58.1483C287.757 59.225 288.153 60.2858 288.533 61.2912L288.319 61.1725C296.054 59.4625 302.933 57.9425 307.913 56.842C310.367 56.3195 312.354 55.892 313.763 55.5912C314.428 55.4566 314.951 55.3537 315.347 55.2745C315.687 55.2191 315.885 55.1875 315.885 55.1954Z" fill="#FAFAFA"/>
<path d="M286.268 55.8445C286.268 55.8365 286.316 55.8207 286.403 55.797C286.514 55.7653 286.641 55.7336 286.807 55.694C287.187 55.599 287.709 55.4724 288.374 55.314C289.776 54.9895 291.763 54.5224 294.256 53.9445C299.315 52.7965 306.385 51.1894 314.563 49.329L314.42 49.5111C314.254 45.9565 314.08 42.109 313.898 38.1269C313.803 36.0764 313.716 34.0656 313.629 32.1497L313.858 32.3239C304.342 34.4297 295.943 36.2902 289.886 37.6281C286.886 38.2773 284.479 38.7998 282.785 39.1639C281.97 39.3302 281.328 39.4648 280.869 39.5598C280.663 39.5994 280.505 39.631 280.371 39.6548C280.26 39.6706 280.196 39.6785 280.196 39.6785C280.196 39.6706 280.252 39.6548 280.363 39.6231C280.489 39.5914 280.656 39.5439 280.853 39.4964C281.313 39.3856 281.946 39.2352 282.753 39.0373C284.44 38.6414 286.846 38.0873 289.831 37.3906C295.879 36.021 304.263 34.121 313.771 31.9597L313.993 31.9122L314.001 32.1339C314.088 34.0497 314.183 36.0606 314.278 38.111C314.46 42.0931 314.626 45.9327 314.785 49.4953L314.792 49.6457L314.642 49.6773C306.448 51.4824 299.363 53.0499 294.304 54.1661C291.802 54.7045 289.799 55.132 288.398 55.4328C287.725 55.5674 287.203 55.6782 286.815 55.7574C286.649 55.789 286.514 55.8128 286.403 55.8365C286.316 55.8445 286.268 55.8445 286.268 55.8445Z" fill="#FAFAFA"/>
<path d="M296.901 67.3C296.869 67.3079 296.814 67.0625 296.6 66.6825C296.394 66.3104 295.975 65.7879 295.27 65.4791C294.581 65.1625 293.568 65.1387 292.729 65.6929C291.89 66.2154 291.32 67.3633 291.581 68.4954C291.826 69.6354 292.832 70.4271 293.813 70.5458C294.811 70.6883 295.713 70.2292 296.204 69.6512C296.711 69.0733 296.869 68.4241 296.893 67.9966C296.925 67.5533 296.869 67.3079 296.901 67.3C296.917 67.2921 297.02 67.5296 297.035 67.9966C297.051 68.4479 296.932 69.1604 296.402 69.8254C295.895 70.4825 294.898 71.0367 293.758 70.8942C292.642 70.7833 291.478 69.8808 291.201 68.5825C290.9 67.2841 291.565 65.9779 292.531 65.4C293.497 64.7904 294.637 64.8616 295.373 65.2416C296.133 65.6137 296.545 66.2075 296.727 66.6191C296.917 67.0387 296.917 67.3 296.901 67.3Z" fill="#FAFAFA"/>
<path d="M314.626 63.3338C314.595 63.3417 314.539 63.0963 314.325 62.7163C314.12 62.3442 313.7 61.8217 312.995 61.5129C312.307 61.1963 311.293 61.1725 310.454 61.7267C309.615 62.2492 309.045 63.3971 309.306 64.5292C309.552 65.6692 310.557 66.4609 311.539 66.5796C312.536 66.7221 313.439 66.263 313.93 65.6851C314.436 65.1071 314.595 64.458 314.618 64.0305C314.65 63.5871 314.595 63.3338 314.626 63.3338C314.642 63.3259 314.745 63.5634 314.761 64.0305C314.777 64.4817 314.658 65.1942 314.128 65.8592C313.621 66.5163 312.623 67.0705 311.483 66.928C310.367 66.8171 309.203 65.9146 308.926 64.6163C308.625 63.318 309.29 62.0117 310.256 61.4338C311.222 60.8242 312.362 60.8954 313.098 61.2754C313.858 61.6475 314.27 62.2413 314.452 62.6529C314.642 63.0725 314.642 63.3259 314.626 63.3338Z" fill="#FAFAFA"/>
<path d="M319.543 27.9301C320.516 32.2684 317.785 36.5751 313.447 37.5489C309.108 38.5226 304.802 35.7914 303.828 31.453C302.854 27.1146 305.585 22.808 309.924 21.8342C314.262 20.8525 318.569 23.5838 319.543 27.9301Z" fill="#FAFAFA"/>
<path d="M315.291 25.8004C315.339 25.8242 315.054 26.3942 314.555 27.2967C314.056 28.1992 313.351 29.4263 312.552 30.7721C312.251 31.2709 311.966 31.7538 311.689 32.2051L311.602 32.3555L311.451 32.2684C309.417 31.1442 307.976 30.2813 308.016 30.21C308.055 30.1388 309.567 30.8671 311.626 31.9517L311.388 32.0151C311.657 31.5638 311.942 31.073 312.235 30.5742C313.035 29.2284 313.779 28.025 314.333 27.1542C314.887 26.2913 315.252 25.7688 315.291 25.8004Z" fill="#E0E0E0"/>
<path d="M44.6188 118.671C43.1621 113.502 36.4329 114.001 36.4329 114.001L36.615 117.595C40.5021 116.922 42.9167 121.482 42.9167 121.482L44.6188 118.671Z" fill="#E0E0E0"/>
<path d="M143.332 58.9558C151.13 61.3149 155.983 52.3215 155.983 52.3215L151.241 49.6219C148.921 55.132 141.131 54.4907 141.131 54.4907L143.332 58.9558Z" fill="#E0E0E0"/>
<path d="M208.059 107.232C206.547 102.933 200.887 103.709 200.887 103.709L201.235 106.741C204.489 105.965 206.769 109.694 206.769 109.694L208.059 107.232Z" fill="#E0E0E0"/>
<path d="M118.624 6.49951C117.112 2.20073 111.452 2.97657 111.452 2.97657L111.8 6.00867C115.054 5.23284 117.334 8.96161 117.334 8.96161L118.624 6.49951Z" fill="#E0E0E0"/>
<path d="M51.0552 61.5287C49.5431 57.2299 43.8826 58.0057 43.8826 58.0057L44.231 61.0379C47.4847 60.262 49.7648 63.9908 49.7648 63.9908L51.0552 61.5287Z" fill="#EBEBEB"/>
<path d="M36.8605 21.3197C32.3638 22.056 32.15 27.7718 32.15 27.7718L35.198 27.9618C35 24.621 39.0692 23.0218 39.0692 23.0218L36.8605 21.3197Z" fill="#EBEBEB"/>
<path d="M4.48112 155.104C12.2791 157.463 17.132 148.47 17.132 148.47L12.3899 145.77C10.0703 151.28 2.28027 150.639 2.28027 150.639L4.48112 155.104Z" fill="#EBEBEB"/>
<path d="M226.632 59.4544C227.163 55.8444 222.856 54.2927 222.856 54.2927L221.977 56.5727C224.574 57.2298 224.811 60.729 224.811 60.729L226.632 59.4544Z" fill="#E0E0E0"/>
<path d="M200.713 19.7919C197.673 21.8106 199.391 26.054 199.391 26.054L201.679 25.1911C200.436 22.8161 202.882 20.3144 202.882 20.3144L200.713 19.7919Z" fill="#EBEBEB"/>
<path d="M332.629 100.614L322.1 131.623L353.236 137.806L355.025 105.063L332.629 100.614Z" fill="#F5F5F5"/>
<path d="M351.581 109.18C351.621 109.195 351.526 109.528 351.233 110.066C350.94 110.605 350.449 111.365 349.666 112.148C348.882 112.932 347.781 113.732 346.364 114.207C344.955 114.69 343.277 114.777 341.614 114.444C339.952 114.127 338.408 113.455 337.268 112.489C336.112 111.539 335.431 110.335 335.036 109.298C334.648 108.253 334.529 107.359 334.497 106.741C334.473 106.124 334.529 105.783 334.568 105.791C334.671 105.775 334.592 107.169 335.416 109.14C335.835 110.106 336.516 111.206 337.608 112.069C338.685 112.948 340.126 113.557 341.717 113.858C343.301 114.175 344.876 114.104 346.198 113.676C347.528 113.265 348.589 112.544 349.381 111.832C350.948 110.407 351.494 109.132 351.581 109.18Z" fill="white"/>
<path d="M362.704 324.34C362.704 324.451 281.503 324.546 181.364 324.546C81.1859 324.546 0 324.459 0 324.34C0 324.229 81.1859 324.134 181.356 324.134C281.503 324.134 362.704 324.229 362.704 324.34Z" fill="#263238"/>
<path d="M206.373 80.244H13.3241V231.374H206.373V80.244Z" fill="#FAFAFA"/>
<path d="M206.373 231.374C206.373 229.957 206.302 171.421 206.199 80.2439L206.373 80.4181C151.36 80.426 84.8989 80.4418 13.3397 80.4498H13.3238L13.5297 80.2439C13.5218 134.743 13.5138 186.273 13.5059 231.374L13.3238 231.192C127.926 231.295 204.75 231.374 206.373 231.374C204.75 231.374 127.926 231.453 13.3238 231.556H13.1418V231.374C13.1338 186.28 13.1259 134.743 13.118 80.2439V80.0381H13.3238H13.3397C84.8989 80.0539 151.36 80.0618 206.373 80.0698H206.547V80.2439C206.444 171.413 206.381 229.957 206.373 231.374Z" fill="#263238"/>
<path d="M138.543 210.798H81.1543C74.5755 210.798 69.2476 205.47 69.2476 198.892C69.2476 192.313 74.5755 186.985 81.1543 186.985H138.543C145.121 186.985 150.449 192.313 150.449 198.892C150.457 205.47 145.121 210.798 138.543 210.798Z" fill="#12AAC2"/>
<path d="M100.028 196.184H102.062C103.574 196.184 104.603 197.118 104.603 198.512C104.603 199.905 103.574 200.839 102.062 200.839H100.028V196.184ZM102.023 200.103C103.06 200.103 103.733 199.47 103.733 198.512C103.733 197.554 103.06 196.92 102.023 196.92H100.891V200.111H102.023V200.103Z" fill="white"/>
<path d="M105.174 198.504C105.174 197.126 106.234 196.113 107.675 196.113C109.116 196.113 110.177 197.126 110.177 198.504C110.177 199.889 109.116 200.894 107.675 200.894C106.242 200.902 105.174 199.881 105.174 198.504ZM109.314 198.504C109.314 197.554 108.617 196.873 107.683 196.873C106.749 196.873 106.052 197.554 106.052 198.504C106.052 199.454 106.749 200.134 107.683 200.134C108.617 200.142 109.314 199.462 109.314 198.504Z" fill="white"/>
<path d="M115.228 196.184V200.839H114.515L111.95 197.688V200.839H111.095V196.184H111.808L114.373 199.335V196.184H115.228Z" fill="white"/>
<path d="M119.962 200.111V200.831H116.471V196.176H119.867V196.904H117.334V198.116H119.582V198.828H117.334V200.111H119.962Z" fill="white"/>
<path d="M111.452 163.084C96.1131 163.084 83.6442 150.616 83.6442 135.277C83.6442 119.938 96.1131 107.469 111.452 107.469C126.79 107.469 139.259 119.938 139.259 135.277C139.259 150.616 126.776 163.084 111.452 163.084ZM111.452 110.339C97.7058 110.339 86.5139 121.531 86.5139 135.277C86.5139 149.023 97.7058 160.215 111.452 160.215C125.198 160.215 136.389 149.023 136.389 135.277C136.389 121.517 125.198 110.339 111.452 110.339Z" fill="#007BFF"/>
<path d="M109.429 143.843C109.084 143.843 108.754 143.728 108.482 143.484C106.042 141.346 101.896 137.63 101.351 136.826C100.906 136.166 101.092 135.277 101.752 134.832C102.398 134.401 103.273 134.574 103.732 135.205C104.12 135.693 106.76 138.103 109.4 140.457L123.476 127.098C124.05 126.553 124.954 126.581 125.499 127.155C126.044 127.729 126.016 128.633 125.442 129.179L110.404 143.455C110.146 143.714 109.787 143.843 109.429 143.843Z" fill="#007BFF"/>
<path d="M206.373 95.0084C206.373 95.1193 163.258 95.2143 110.09 95.2143C56.9053 95.2143 13.7988 95.1193 13.7988 95.0084C13.7988 94.8976 56.8974 94.8026 110.09 94.8026C163.266 94.8026 206.373 94.8976 206.373 95.0084Z" fill="#263238"/>
<path d="M20.1562 88.5409C20.777 88.5409 21.2803 88.0376 21.2803 87.4168C21.2803 86.7959 20.777 86.2926 20.1562 86.2926C19.5353 86.2926 19.032 86.7959 19.032 87.4168C19.032 88.0376 19.5353 88.5409 20.1562 88.5409Z" fill="#263238"/>
<path d="M24.336 88.5406C24.9568 88.5406 25.4602 88.0373 25.4602 87.4164C25.4602 86.7955 24.9568 86.2922 24.336 86.2922C23.7151 86.2922 23.2118 86.7955 23.2118 87.4164C23.2118 88.0373 23.7151 88.5406 24.336 88.5406Z" fill="#263238"/>
<path d="M29.577 87.4164C29.577 88.0339 29.0782 88.5406 28.4528 88.5406C27.8353 88.5406 27.3286 88.0418 27.3286 87.4164C27.3286 86.791 27.8274 86.2922 28.4528 86.2922C29.0703 86.3002 29.577 86.7989 29.577 87.4164Z" fill="#263238"/>
<path d="M333.286 181.776C333.286 181.776 342.897 175.933 345.058 177.651C348.185 180.129 349.222 184.317 349.222 184.317C349.222 184.317 354.297 164.961 359.142 165.697C361.921 166.116 360.559 168.286 359.308 171.001C358.152 173.527 356.181 182.781 356.181 182.781C356.181 182.781 365.364 171.888 368.064 172.086C370.154 172.236 370.455 174.073 367.446 177.018C364.446 179.963 359.458 189.241 359.458 189.241C359.458 189.241 365.895 183.248 368.547 183.209C370.668 183.185 372.038 184.657 369.291 187.032C366.552 189.415 362.396 191.197 360.187 195.511C357.455 200.823 351.637 214.052 351.637 214.052L331.267 206.84C331.267 206.84 327.95 193.326 327.823 190.049C327.823 190.049 328.1 183.114 328.061 181.879C328.021 180.644 331.299 180.327 332.288 182.702C333.286 185.069 332.834 187.563 333.238 189.138C333.642 190.714 334.362 192.178 335.51 192.883C336.666 193.587 339.595 193.635 340.347 192.764C341.1 191.893 342.002 189.352 342.2 187.792C342.398 186.233 342.145 183.763 342.145 183.763C342.145 183.763 333.697 187.199 333.286 181.776Z" fill="#FFBE9D"/>
<path d="M104.461 244.809L90.3059 239.504C90.3059 239.504 75.8975 231.065 73.2295 234.066C73.2295 234.066 70.3795 232.704 69.1129 235.744C68.3766 237.501 70.7991 240.058 70.7991 240.058C70.7991 240.058 70.047 240.818 71.2424 243.407C72.4379 245.996 86.11 254.15 86.11 254.15C86.11 254.15 103.891 263.848 111.079 268.487L123.485 251.617L121.759 250.976C121.759 250.976 120.738 242.568 117.294 240.328C113.549 237.889 109.029 231.287 108.039 228.698C107.05 226.109 102.268 227.305 103.068 232.672C103.859 238.04 108.039 239.433 107.644 243.011C107.248 246.606 104.461 244.809 104.461 244.809Z" fill="#FFBE9D"/>
<path d="M82.7692 246.772C82.7138 246.875 79.9587 245.434 76.61 243.558C73.2612 241.681 70.6012 240.082 70.6566 239.987C70.712 239.884 73.467 241.325 76.8158 243.201C80.1567 245.078 82.8246 246.677 82.7692 246.772Z" fill="#EB996E"/>
<path d="M89.6726 242.798C89.6488 242.845 88.683 242.458 87.1313 241.785C85.5875 241.112 83.4579 240.146 81.1621 238.974C78.8662 237.802 76.8475 236.623 75.4304 235.697C74.7258 235.23 74.1637 234.842 73.7916 234.549C73.4116 234.264 73.2137 234.09 73.2295 234.066C73.2691 234.01 74.14 234.588 75.5808 235.443C77.0296 236.298 79.0642 237.43 81.3442 238.602C83.6321 239.774 85.73 240.779 87.2421 241.515C88.7701 242.26 89.6963 242.743 89.6726 242.798Z" fill="#EB996E"/>
<path d="M92.6492 250.596C92.6334 250.62 92.19 250.374 91.3983 249.915C90.5513 249.408 89.4271 248.735 88.0654 247.928L88.0258 247.904L88.0021 247.857C87.3767 246.503 86.6008 244.92 85.6033 243.257C85.0966 242.442 84.5425 241.563 83.8062 240.874C83.07 240.193 81.8983 240.075 81.0195 240.668C80.8295 240.771 80.5999 241.001 80.5762 241.072C80.5999 241.104 80.592 241.112 80.6079 241.167L80.6633 241.341C80.6949 241.46 80.7425 241.579 80.79 241.697C80.9641 242.172 81.1462 242.632 81.3283 243.091C81.7004 244.001 82.0645 244.888 82.4129 245.735C83.1175 247.413 83.7587 248.957 84.3287 250.303L84.305 250.263C85.4687 251.625 86.4267 252.749 87.1471 253.596C87.4479 253.96 87.7012 254.269 87.9071 254.523C88.0733 254.736 88.1604 254.855 88.1525 254.863C88.1446 254.871 88.0337 254.776 87.8437 254.578C87.6221 254.34 87.345 254.055 87.0204 253.707C86.2762 252.884 85.2787 251.791 84.0675 250.461L84.0516 250.445L84.0437 250.422C83.4579 249.1 82.785 247.572 82.0645 245.877C81.7083 245.03 81.3441 244.144 80.9641 243.233C80.782 242.774 80.592 242.307 80.4179 241.824C80.3704 241.705 80.3308 241.587 80.2912 241.46L80.2279 241.27C80.2041 241.199 80.1883 241.08 80.1883 240.985C80.2595 240.732 80.3783 240.684 80.4733 240.565C80.5841 240.47 80.6949 240.383 80.8137 240.312C81.3204 239.987 81.922 239.821 82.5158 239.877C83.1175 239.916 83.6558 240.201 84.0833 240.565C84.8987 241.333 85.4371 242.212 85.9516 243.051C86.9492 244.745 87.7012 246.352 88.3029 247.73L88.2475 247.659C89.5775 248.522 90.6779 249.226 91.5092 249.765C92.2454 250.279 92.665 250.564 92.6492 250.596Z" fill="#EB996E"/>
<path d="M106.836 250.73C106.82 250.786 106.155 250.604 105.094 250.303C104.033 250.018 102.561 249.606 100.914 249.567C99.2675 249.527 97.795 249.994 96.8767 250.556C95.9504 251.11 95.5388 251.68 95.4834 251.625C95.4517 251.609 95.7842 250.96 96.7184 250.311C97.6367 249.654 99.1884 249.115 100.914 249.155C102.64 249.202 104.136 249.669 105.173 250.026C106.234 250.398 106.852 250.675 106.836 250.73Z" fill="#EB996E"/>
<path d="M105.775 246.994C105.87 247.065 105.514 247.675 105.174 248.466C104.825 249.25 104.611 249.923 104.501 249.899C104.39 249.883 104.429 249.131 104.801 248.3C105.158 247.461 105.688 246.922 105.775 246.994Z" fill="#EB996E"/>
<path d="M187.341 179.71C188.315 173.044 196.081 163.472 202.961 163.464C199.018 157.756 198.963 149.721 202.811 143.95C205.463 139.983 209.738 137.062 211.551 132.66C213.601 127.681 212.026 122.06 212.224 116.692C212.509 108.839 216.594 101.667 220.576 94.8423C224.217 88.596 228.667 81.7481 235.831 80.2122C240.367 79.2385 245.07 80.6714 249.329 82.4843C269.715 91.1689 285.564 109.464 291.003 130.586C292.301 135.645 293.18 141.116 296.703 145.018C300.432 149.159 306.971 151.399 308.095 156.814C308.895 160.694 306.409 164.596 306.781 168.547C307.097 171.848 313.28 181.483 314.713 184.491C317.167 189.677 316.281 195.274 313.779 200.443C311.277 205.605 304.904 210.64 299.252 212.041L236.077 190.991C230.131 194.371 224.209 207.466 217.385 208.265C210.561 209.073 202.233 212.041 195.67 204.853C188.79 197.348 186.36 186.383 187.341 179.71Z" fill="#263238"/>
<path d="M292.095 116.874C291.391 122.163 292.839 130.903 295.729 135.415C297.669 138.447 300.907 140.419 304.097 142.152C307.287 143.886 310.636 145.549 313.051 148.225C315.473 150.9 316.772 154.922 315.149 158.128C320.841 160.25 323.39 167.502 321.308 173.107C319.218 178.712 313.494 182.488 307.517 183.604L281.463 175.767L275.739 142.517L290.781 116.866" fill="#263238"/>
<path d="M295.293 150.774C295.301 150.766 295.475 150.837 295.8 150.995C296.125 151.169 296.631 151.36 297.225 151.732C298.436 152.428 300.099 153.64 301.793 155.54C302.656 156.474 303.448 157.63 304.223 158.92C304.936 160.242 305.664 161.699 306.123 163.353C307.137 166.607 307.358 170.565 306.195 174.453L306.1 174.215C307.596 175.054 309.045 176.139 310.343 177.437C313.668 180.738 315.568 185.029 316.027 189.035C316.471 193.081 315.505 196.746 314.159 199.461C312.805 202.209 311.127 204.069 309.876 205.217C309.243 205.779 308.728 206.199 308.356 206.452C307.992 206.713 307.794 206.84 307.786 206.832C307.778 206.824 307.952 206.666 308.301 206.389C308.657 206.119 309.148 205.684 309.757 205.106C310.961 203.934 312.583 202.058 313.882 199.335C315.172 196.635 316.091 193.033 315.631 189.075C315.164 185.148 313.296 180.952 310.034 177.722C308.768 176.455 307.351 175.387 305.886 174.563L305.743 174.484L305.791 174.326C306.939 170.534 306.741 166.663 305.767 163.456C305.324 161.833 304.627 160.385 303.938 159.078C303.186 157.804 302.418 156.656 301.579 155.714C299.94 153.814 298.318 152.587 297.138 151.85C296.568 151.462 296.069 151.249 295.76 151.051C295.452 150.885 295.285 150.789 295.293 150.774Z" fill="#455A64"/>
<path d="M218.208 185.211C218.208 185.211 206.563 188.75 202.486 194.687C199.596 198.883 170.035 262.906 170.035 262.906L125.163 249.416L109.116 270.609L159.047 298.286C168.301 303.416 179.559 303.368 188.774 298.151C193.88 295.261 198.045 290.955 200.76 285.753L213.458 261.433L218.208 185.211Z" fill="#007BFF"/>
<path d="M206.294 324.64L213.3 294.438L207.988 272.509C204.576 261.22 201.639 242.821 205.36 228.009L217.773 185.409L231.421 179.131L262.645 173.764C263.84 174.167 295.293 183.05 295.293 183.05C299.648 184.063 301.397 184.752 301.397 184.752L305.007 208.075L294.161 246.51L289.443 284.811L299.814 324.648H206.294V324.64Z" fill="#007BFF"/>
<path d="M224.344 182.393L233.4 178.339L274.211 178.909L283.862 184.515C283.862 184.515 250.144 221.723 241.681 222.958C220.401 226.046 224.344 182.393 224.344 182.393Z" fill="#FFBE9D"/>
<path d="M300.511 184.427C300.511 184.427 306.622 185.805 311.863 196.983C317.104 208.162 325.575 239.274 325.575 239.274L329.193 206.301L358.699 209.547L352.991 288.342C352.991 288.342 342.548 303.487 325.084 302.086C307.62 300.684 285.445 245.481 285.445 245.481L300.511 184.427Z" fill="#007BFF"/>
<path d="M320.967 279.531C320.96 279.531 320.96 279.468 320.96 279.341C320.967 279.191 320.975 279.009 320.983 278.779C321.015 278.257 321.054 277.536 321.11 276.634C321.221 274.773 321.442 272.082 321.751 268.756C322.369 262.114 323.493 252.963 324.87 242.885C326.248 232.799 327.42 223.663 328.108 217.037C328.457 213.719 328.718 211.036 328.884 209.183C328.971 208.281 329.042 207.568 329.09 207.046C329.114 206.824 329.137 206.642 329.153 206.492C329.169 206.365 329.185 206.302 329.193 206.302C329.201 206.302 329.201 206.365 329.201 206.492C329.193 206.642 329.185 206.824 329.177 207.054C329.145 207.576 329.106 208.297 329.05 209.199C328.94 211.059 328.718 213.751 328.409 217.076C327.792 223.718 326.667 232.87 325.29 242.956C323.912 253.034 322.741 262.17 322.052 268.804C321.704 272.121 321.442 274.805 321.276 276.665C321.189 277.568 321.118 278.28 321.07 278.803C321.047 279.024 321.023 279.207 321.007 279.357C320.983 279.468 320.975 279.531 320.967 279.531Z" fill="#263238"/>
<path d="M170.55 279.911C170.526 279.919 170.407 279.713 170.225 279.325C170.035 278.937 169.798 278.359 169.537 277.623C169.014 276.166 168.476 274.076 168.246 271.717C168.017 269.358 168.151 267.205 168.381 265.677C168.492 264.909 168.618 264.299 168.729 263.88C168.84 263.46 168.911 263.231 168.935 263.238C168.998 263.254 168.824 264.188 168.674 265.716C168.523 267.236 168.436 269.358 168.658 271.686C168.887 274.005 169.37 276.071 169.814 277.536C170.257 278.993 170.613 279.879 170.55 279.911Z" fill="#263238"/>
<path d="M175.514 280.639C175.49 280.655 175.308 280.449 174.991 280.053C174.674 279.658 174.247 279.064 173.756 278.304C172.774 276.792 171.595 274.567 170.684 271.963C169.782 269.35 169.323 266.872 169.156 265.075C169.069 264.173 169.03 263.444 169.038 262.938C169.038 262.431 169.054 262.154 169.077 262.154C169.149 262.154 169.196 263.262 169.441 265.035C169.687 266.809 170.178 269.239 171.072 271.82C171.975 274.393 173.099 276.61 174.009 278.146C174.912 279.689 175.569 280.6 175.514 280.639Z" fill="#263238"/>
<path d="M210.442 210.236C210.458 210.244 210.402 210.458 210.292 210.877C210.165 211.329 209.999 211.93 209.785 212.69C209.326 214.297 208.692 216.562 207.901 219.332C206.365 224.945 204.235 232.743 203.214 241.57C202.707 245.98 202.604 250.223 203.04 254.039C203.444 257.863 204.291 261.236 205.122 264.022C205.953 266.809 206.745 269.034 207.291 270.569C207.552 271.314 207.758 271.899 207.917 272.343C208.059 272.746 208.122 272.968 208.107 272.968C208.091 272.976 208.004 272.77 207.837 272.366C207.663 271.931 207.434 271.353 207.141 270.625C206.555 269.105 205.724 266.896 204.845 264.101C203.974 261.315 203.095 257.926 202.668 254.079C202.201 250.231 202.296 245.948 202.81 241.523C203.839 232.656 206.024 224.85 207.632 219.253C208.447 216.451 209.152 214.202 209.642 212.643C209.888 211.899 210.078 211.297 210.22 210.854C210.347 210.45 210.426 210.236 210.442 210.236Z" fill="#263238"/>
<path d="M292.95 262.154C292.942 262.154 292.911 262.09 292.839 261.964C292.768 261.813 292.673 261.615 292.562 261.378C292.317 260.832 291.969 260.072 291.533 259.114C291.098 258.124 290.536 256.921 289.942 255.512C289.372 254.079 288.723 252.456 288.002 250.667C287.306 248.862 286.633 246.851 285.865 244.713C285.524 243.629 285.184 242.504 284.82 241.349C284.646 240.771 284.464 240.185 284.281 239.583C284.115 238.982 283.965 238.372 283.799 237.754C282.469 232.814 281.344 227.273 281.012 221.359C280.648 215.461 281.21 209.753 282.714 204.845C284.123 199.897 286.601 195.835 289.253 193.001C291.897 190.135 294.644 188.481 296.616 187.602C297.613 187.167 298.405 186.882 298.951 186.739C299.204 186.668 299.41 186.612 299.577 186.565C299.719 186.525 299.79 186.51 299.79 186.517C299.79 186.525 299.719 186.557 299.584 186.605C299.426 186.66 299.22 186.731 298.975 186.818C298.437 186.985 297.653 187.301 296.679 187.752C294.747 188.671 292.048 190.349 289.459 193.207C286.87 196.041 284.448 200.055 283.07 204.963C281.598 209.84 281.051 215.485 281.416 221.351C281.748 227.225 282.856 232.751 284.163 237.675C284.321 238.293 284.479 238.902 284.638 239.504C284.82 240.098 284.994 240.684 285.168 241.262C285.516 242.417 285.857 243.542 286.189 244.626C286.941 246.764 287.591 248.775 288.271 250.587C288.968 252.385 289.594 254.015 290.148 255.448C290.718 256.873 291.256 258.077 291.668 259.074C292.072 260.048 292.396 260.816 292.626 261.37C292.721 261.615 292.8 261.813 292.863 261.972C292.934 262.083 292.958 262.154 292.95 262.154Z" fill="#263238"/>
<g opacity="0.3">
<g opacity="0.3">
<path opacity="0.3" d="M281.708 226.465C277.853 244.713 277.798 263.484 284.44 280.909C284.828 281.922 286.348 285.516 287.432 285.564C288.802 285.635 289.451 283.925 289.688 282.571C290.179 279.792 290.472 275.224 290.963 272.446C291.573 268.97 292.404 260.919 292.404 260.919C292.404 260.919 289.213 253.62 287.812 249.701C285.208 242.433 283.007 235.498 281.796 227.035" fill="black"/>
</g>
</g>
<path d="M278.558 297.154C278.566 297.162 278.463 297.328 278.249 297.629C278.011 297.961 277.695 298.404 277.299 298.951C277.085 299.244 276.856 299.56 276.602 299.901C276.333 300.241 276.016 300.582 275.692 300.962C275.027 301.714 274.314 302.616 273.38 303.471C272.929 303.914 272.454 304.382 271.963 304.857C271.464 305.332 270.894 305.775 270.332 306.258C269.224 307.255 267.91 308.15 266.548 309.132C263.761 310.976 260.523 312.757 256.929 314.182C253.319 315.56 249.725 316.447 246.424 316.977C244.761 317.175 243.186 317.405 241.697 317.42C240.953 317.444 240.241 317.507 239.544 317.492C238.855 317.468 238.19 317.452 237.557 317.428C236.29 317.428 235.158 317.246 234.161 317.143C233.662 317.08 233.195 317.04 232.775 316.977C232.356 316.89 231.976 316.819 231.62 316.747C230.962 316.613 230.432 316.502 230.028 316.415C229.664 316.336 229.474 316.288 229.482 316.272C229.482 316.257 229.68 316.28 230.044 316.336C230.448 316.399 230.986 316.486 231.643 316.589C231.992 316.645 232.38 316.716 232.799 316.779C233.227 316.835 233.686 316.866 234.185 316.914C235.182 316.993 236.306 317.159 237.565 317.135C238.19 317.143 238.855 317.159 239.536 317.175C240.225 317.183 240.937 317.112 241.674 317.08C243.154 317.048 244.714 316.803 246.36 316.597C249.638 316.051 253.193 315.164 256.771 313.795C260.333 312.377 263.548 310.628 266.326 308.807C267.68 307.841 268.994 306.962 270.103 305.989C270.665 305.514 271.243 305.086 271.741 304.611C272.24 304.136 272.715 303.685 273.166 303.249C274.109 302.41 274.829 301.524 275.502 300.795C275.834 300.423 276.159 300.091 276.428 299.758C276.689 299.426 276.927 299.117 277.149 298.832C277.568 298.309 277.901 297.882 278.154 297.557C278.415 297.296 278.542 297.146 278.558 297.154Z" fill="#263238"/>
<path d="M272.113 285.081C272.145 285.089 272.105 285.389 272.01 285.944C271.923 286.498 271.741 287.289 271.456 288.255C270.902 290.179 269.849 292.776 268.179 295.356C266.5 297.937 264.561 299.956 263.033 301.254C262.265 301.904 261.624 302.394 261.149 302.703C260.682 303.012 260.42 303.178 260.405 303.154C260.365 303.091 261.37 302.379 262.835 301.041C264.3 299.703 266.176 297.676 267.83 295.143C269.477 292.601 270.554 290.06 271.179 288.176C271.805 286.284 272.042 285.065 272.113 285.081Z" fill="#263238"/>
<path d="M257.745 75.1844C268.788 75.2636 279.595 81.4941 285.192 91.0258C290.789 100.558 290.955 113.026 285.635 122.708C283.822 126.01 281.21 129.137 277.623 130.285C278.843 111.356 271.298 92.0312 257.57 78.937" fill="#007BFF"/>
<path d="M270.673 78.0425C269.034 74.6304 270.791 70.3633 273.713 67.9645C276.634 65.5658 280.45 64.592 284.131 63.7133C287.812 62.8345 291.628 61.9241 294.613 59.6045C294.185 65.5341 292.705 71.6379 288.873 76.1742C285.034 80.7184 278.384 83.2438 272.905 80.94" fill="#007BFF"/>
<path d="M274.473 81.9534C271.955 83.0143 268.947 82.3493 266.698 80.8055C264.442 79.2618 262.827 76.9501 261.505 74.5592C259.882 71.6221 258.599 68.4475 258.172 65.1146C257.737 61.7816 258.196 58.2825 259.842 55.3533C264.173 59.9687 268.947 63.8479 271.425 69.6746C272.881 73.0946 272.707 78.5888 271.14 81.9614" fill="#007BFF"/>
<path d="M286.751 101.151C286.783 101.144 286.854 101.539 286.965 102.252C287.028 102.608 287.092 103.044 287.131 103.558C287.179 104.073 287.25 104.651 287.258 105.3C287.329 106.59 287.305 108.134 287.179 109.844C287.028 111.546 286.751 113.414 286.308 115.338C285.841 117.262 285.247 119.051 284.614 120.635C283.957 122.218 283.284 123.603 282.642 124.727C282.342 125.297 282.017 125.788 281.748 126.224C281.479 126.659 281.225 127.023 281.012 127.316C280.592 127.902 280.347 128.219 280.323 128.203C280.299 128.187 280.497 127.839 280.877 127.229C281.067 126.928 281.304 126.556 281.55 126.105C281.795 125.662 282.104 125.163 282.389 124.593C282.999 123.461 283.64 122.075 284.265 120.5C284.875 118.917 285.453 117.143 285.912 115.243C286.355 113.335 286.632 111.499 286.807 109.812C286.957 108.126 287.005 106.598 286.973 105.316C286.981 104.674 286.925 104.097 286.91 103.582C286.894 103.075 286.854 102.632 286.815 102.276C286.743 101.555 286.72 101.151 286.751 101.151Z" fill="#263238"/>
<path d="M284.281 79.9187C284.297 79.9424 283.988 80.1879 283.403 80.6154C282.769 80.9637 281.827 81.4704 280.545 81.7237C277.995 82.3016 274.322 82.1829 270.435 81.1458L270.316 81.1141L270.293 80.9954C270.237 80.7579 270.182 80.5045 270.126 80.2512C269.707 78.1928 269.612 76.1741 269.865 74.3612C270.095 72.5482 270.72 70.9728 271.528 69.8407C272.303 68.677 273.253 68.0357 273.879 67.6003C274.56 67.2361 274.932 67.0461 274.948 67.0699C274.963 67.0936 274.607 67.3311 273.974 67.7349C273.388 68.2019 272.493 68.867 271.781 70.007C271.037 71.1153 270.459 72.6432 270.253 74.4087C270.023 76.1662 270.134 78.1533 270.538 80.1641C270.593 80.4174 270.649 80.6629 270.704 80.9004L270.562 80.7499C274.37 81.7712 278.003 81.9374 280.497 81.4466C281.764 81.2329 282.69 80.7816 283.339 80.4808C283.917 80.1008 284.258 79.8949 284.281 79.9187Z" fill="#263238"/>
<path d="M287.519 69.6587C287.527 69.7378 286.363 69.8962 284.543 70.4345C283.632 70.6958 282.579 71.0837 281.431 71.5903C280.299 72.1128 279.08 72.7541 277.869 73.5379C276.665 74.3374 275.597 75.1924 274.663 76.0237C273.744 76.8708 272.968 77.6862 272.367 78.4146C271.148 79.8633 270.53 80.8687 270.467 80.8291C270.443 80.8133 270.578 80.5521 270.855 80.0929C271.116 79.6258 271.559 78.9846 272.145 78.2325C272.731 77.4725 273.499 76.6254 274.409 75.7466C275.335 74.8837 276.42 73.997 277.647 73.1895C278.874 72.3899 280.117 71.7487 281.281 71.242C282.453 70.7512 283.537 70.387 284.463 70.1574C285.39 69.9199 286.15 69.7774 286.688 69.722C287.226 69.6507 287.519 69.627 287.519 69.6587Z" fill="#263238"/>
<path d="M274.306 81.8583C274.322 81.8583 274.306 81.9453 274.275 82.0958C274.251 82.2541 274.18 82.4679 274.061 82.7529C273.831 83.307 273.348 84.0591 272.493 84.732C271.646 85.3812 270.395 85.9512 268.939 85.88C267.474 85.8325 265.962 84.9458 265.02 83.5762C264.078 82.1987 263.801 80.4728 264.284 79.0874C264.743 77.702 265.724 76.7362 266.643 76.182C267.577 75.6278 268.456 75.4536 269.057 75.4378C269.358 75.4299 269.588 75.4457 269.746 75.4774C269.905 75.5011 269.984 75.517 269.976 75.5328C269.976 75.5724 269.643 75.5328 269.065 75.5961C268.495 75.6595 267.664 75.8732 266.793 76.4274C265.946 76.9816 265.044 77.9157 264.648 79.1982C264.228 80.4728 264.489 82.0562 265.36 83.3387C266.239 84.6133 267.624 85.4366 268.962 85.5C270.308 85.587 271.496 85.0883 272.319 84.4945C273.15 83.8849 273.649 83.1883 273.918 82.6816C274.187 82.167 274.267 81.8424 274.306 81.8583Z" fill="#263238"/>
<path d="M264.711 82.0562C264.672 82.0958 264.434 81.6287 264.814 81.0112C264.988 80.7183 265.321 80.4254 265.756 80.275C266.184 80.1166 266.683 80.0929 267.173 80.1246C269.153 80.2671 270.585 81.035 270.53 81.1221C270.483 81.2329 269.026 80.6629 267.142 80.5283C266.208 80.4333 265.4 80.6787 265.052 81.1696C264.68 81.6367 264.775 82.0483 264.711 82.0562Z" fill="#263238"/>
<path d="M259.843 55.3531C259.922 55.3848 258.972 56.5089 258.631 58.7414C258.449 59.8419 258.425 61.1798 258.441 62.6681C258.457 64.1565 258.528 65.7952 258.861 67.4578C259.613 70.7828 260.975 73.6407 262.241 75.4695C262.883 76.3878 263.453 77.1082 263.856 77.5912C264.26 78.0741 264.505 78.3195 264.49 78.3432C264.442 78.3987 263.365 77.4724 262.012 75.6436C260.65 73.8149 259.233 70.949 258.465 67.5369C258.117 65.8269 258.061 64.1565 258.069 62.6602C258.069 61.164 258.125 59.8023 258.346 58.6781C258.56 57.5539 258.924 56.6831 259.249 56.1369C259.573 55.5985 259.827 55.3373 259.843 55.3531Z" fill="#263238"/>
<path d="M263.943 64.7424C263.983 64.7107 264.434 65.2095 265.06 66.0961C265.685 66.9828 266.469 68.2574 267.165 69.7616C267.854 71.2658 268.306 72.7066 268.559 73.7595C268.812 74.8125 268.883 75.4775 268.828 75.4933C268.701 75.525 268.163 72.9045 266.793 69.9358C265.432 66.967 263.833 64.8216 263.943 64.7424Z" fill="#263238"/>
<path d="M262.605 69.6746C262.693 69.6033 264.023 70.9492 265.772 72.5167C267.514 74.0921 268.907 75.3984 268.828 75.4854C268.757 75.5646 267.245 74.4009 265.495 72.8175C263.73 71.25 262.51 69.7537 262.605 69.6746Z" fill="#263238"/>
<path d="M283.323 88.2549C283.323 88.2628 283.284 88.2944 283.213 88.3657C283.102 88.4607 282.983 88.5557 282.864 88.6586C282.563 88.9199 282.104 89.2603 281.51 89.664C280.339 90.4636 278.597 91.4136 276.523 92.0945C274.457 92.7674 272.485 93.0366 271.068 93.092C270.356 93.1236 269.778 93.1157 269.382 93.0841C269.224 93.0761 269.073 93.0603 268.923 93.0524C268.82 93.0445 268.765 93.0366 268.765 93.0286C268.765 93.0207 268.82 93.0207 268.923 93.0207C269.065 93.0207 269.216 93.0207 269.382 93.0207C269.778 93.0286 270.348 93.0207 271.06 92.9732C272.47 92.8941 274.417 92.6091 276.468 91.9361C278.518 91.2553 280.252 90.337 281.439 89.5611C282.033 89.1732 282.5 88.8486 282.817 88.6032C282.943 88.5082 283.07 88.4211 283.181 88.334C283.276 88.2786 283.323 88.2469 283.323 88.2549Z" fill="#FAFAFA"/>
<path d="M287.986 97.8342C287.986 97.8421 287.947 97.8738 287.868 97.945C287.757 98.04 287.638 98.135 287.519 98.238C287.211 98.4913 286.751 98.8396 286.166 99.2355C284.986 100.035 283.26 101.001 281.21 101.745C279.159 102.481 277.212 102.845 275.795 102.98C275.09 103.051 274.512 103.083 274.108 103.075C273.95 103.075 273.8 103.075 273.649 103.075C273.546 103.075 273.491 103.067 273.491 103.067C273.491 103.059 273.546 103.051 273.649 103.043C273.792 103.035 273.942 103.028 274.108 103.012C274.504 102.996 275.074 102.948 275.779 102.861C277.188 102.695 279.12 102.323 281.154 101.595C283.189 100.858 284.915 99.9163 286.102 99.1405C286.696 98.7525 287.171 98.428 287.488 98.1905C287.614 98.0955 287.741 98.0084 287.86 97.9213C287.939 97.858 287.986 97.8263 287.986 97.8342Z" fill="#FAFAFA"/>
<path d="M286.696 111.807C286.704 111.815 286.585 111.902 286.363 112.053C286.142 112.203 285.809 112.409 285.39 112.638C284.551 113.098 283.323 113.636 281.906 114.016C280.481 114.388 279.151 114.515 278.193 114.523C277.71 114.531 277.323 114.515 277.061 114.491C276.792 114.467 276.65 114.451 276.65 114.444C276.65 114.436 276.8 114.428 277.069 114.428C277.338 114.436 277.726 114.428 278.201 114.404C279.151 114.364 280.466 114.222 281.875 113.85C283.284 113.478 284.495 112.963 285.342 112.536C285.77 112.322 286.11 112.132 286.34 111.997C286.553 111.871 286.688 111.799 286.696 111.807Z" fill="#FAFAFA"/>
<path d="M289.38 109.67C289.388 109.717 288.913 109.844 288.311 109.963C287.709 110.081 287.218 110.137 287.21 110.089C287.203 110.042 287.678 109.915 288.279 109.796C288.881 109.685 289.372 109.622 289.38 109.67Z" fill="#FAFAFA"/>
<path d="M281.526 126.105C281.534 126.145 280.719 126.271 279.721 126.192C278.716 126.121 277.932 125.883 277.948 125.836C277.956 125.788 278.748 125.955 279.737 126.026C280.711 126.105 281.518 126.05 281.526 126.105Z" fill="#FAFAFA"/>
<path d="M266.5 84.7006C266.524 84.7402 266.049 85.041 265.447 85.3735C264.846 85.706 264.331 85.9435 264.315 85.9039C264.292 85.8644 264.767 85.5635 265.368 85.231C265.97 84.8985 266.477 84.661 266.5 84.7006Z" fill="#FAFAFA"/>
<path d="M262.566 76.3959C262.59 76.4434 261.426 76.7917 260.23 77.6546C259.027 78.5017 258.323 79.4834 258.275 79.4438C258.259 79.4359 258.418 79.1747 258.726 78.8026C259.043 78.4305 259.526 77.9555 260.128 77.5201C260.737 77.0926 261.347 76.7917 261.798 76.6176C262.265 76.4355 262.558 76.3721 262.566 76.3959Z" fill="#FAFAFA"/>
<path d="M269.699 85.5949C269.643 85.587 269.92 84.5183 269.738 83.1962C269.572 81.8741 269.034 80.9082 269.089 80.8845C269.105 80.8766 269.263 81.0982 269.445 81.5099C269.627 81.9137 269.817 82.4995 269.905 83.1803C269.992 83.8533 269.952 84.4708 269.881 84.9062C269.81 85.3416 269.715 85.6028 269.699 85.5949Z" fill="#FAFAFA"/>
<path d="M294.193 59.7786C294.193 59.7786 293.916 60.1348 293.322 60.7048C292.736 61.2748 291.818 62.0269 290.583 62.8107C289.348 63.5944 287.796 64.3861 286.031 65.1619C284.266 65.9457 282.294 66.7136 280.291 67.6715C278.296 68.6374 276.468 69.7378 275.043 71.0203C273.618 72.3028 272.588 73.7278 271.963 75.0341C271.338 76.3403 271.092 77.512 271.021 78.3195C270.95 79.127 271.005 79.5783 270.981 79.5783C270.981 79.5783 270.965 79.4674 270.958 79.2537C270.934 79.0399 270.942 78.7233 270.958 78.3116C271.005 77.4962 271.235 76.3166 271.86 74.9787C272.485 73.6566 273.507 72.1999 274.948 70.9015C276.38 69.5953 278.225 68.4869 280.228 67.5132C282.239 66.5474 284.218 65.7794 285.976 65.0115C287.741 64.2436 289.293 63.4678 290.528 62.6998C291.763 61.9319 292.689 61.1957 293.283 60.6415C293.584 60.3644 293.813 60.1427 293.956 59.9923C294.106 59.8498 294.193 59.7786 294.193 59.7786Z" fill="#FAFAFA"/>
<path d="M292.056 69.1759C292.063 69.1759 292.024 69.2392 291.953 69.358C291.85 69.5084 291.747 69.6747 291.62 69.8568C291.335 70.2922 290.892 70.8938 290.314 71.6143C289.158 73.063 287.393 74.9393 285.152 76.673C282.912 78.4068 280.655 79.6576 278.969 80.4177C278.122 80.7977 277.433 81.0827 276.943 81.2489C276.737 81.3202 276.555 81.3835 276.38 81.4468C276.254 81.4864 276.182 81.5102 276.182 81.5022C276.182 81.4943 276.246 81.4627 276.373 81.4152C276.539 81.3439 276.721 81.2727 276.927 81.1935C277.41 81.0035 278.098 80.7106 278.93 80.3147C280.6 79.531 282.833 78.2722 285.057 76.5464C287.282 74.8126 289.055 72.968 290.227 71.543C290.813 70.8305 291.272 70.2447 291.573 69.8172C291.699 69.643 291.818 69.4847 291.929 69.3422C292 69.2234 292.048 69.168 292.056 69.1759Z" fill="#FAFAFA"/>
<path d="M259.011 58.0449C259.011 58.0449 259.985 58.417 261.41 59.3116C262.835 60.2062 264.664 61.6866 266.263 63.6975C267.862 65.7162 268.883 67.8379 269.43 69.4292C269.976 71.0204 270.118 72.0575 270.118 72.0575C270.11 72.0575 270.095 71.9942 270.055 71.8754C270.008 71.7092 269.968 71.5429 269.913 71.3529C269.802 70.9017 269.604 70.2525 269.311 69.4687C268.741 67.9012 267.712 65.8112 266.128 63.8004C264.537 61.8054 262.74 60.317 261.339 59.4066C260.642 58.9474 260.056 58.607 259.637 58.3933C259.462 58.2983 259.312 58.2191 259.162 58.1399C259.059 58.0845 259.003 58.0528 259.011 58.0449Z" fill="#FAFAFA"/>
<path d="M219.309 87.8198C219.618 92.0157 216.847 95.7603 214.052 98.9111C211.258 102.062 208.154 105.34 207.553 109.504C206.484 116.882 213.712 123.738 212.216 131.045C211.416 134.964 208.21 138.107 207.64 142.065C207.086 145.889 209.136 149.634 211.677 152.547C214.219 155.46 217.164 155.033 219.412 158.176C221.779 161.485 225.595 164.889 229.165 166.844C237.264 171.278 246.978 164.865 250.889 163.709" fill="#263238"/>
<path d="M280.537 105.015C284.266 103.392 284.559 90.0127 275.201 88.469C271.449 87.8515 268.313 86.0148 265.155 83.8931C262.36 82.0089 261.529 77.2352 259.162 74.8364C253.359 68.9464 244.286 66.508 236.314 68.6851C228.334 70.8622 221.763 77.5677 219.752 85.5873C218.391 91.0103 219.317 97.4149 223.592 101.017C228.548 105.197 235.902 104.271 242.252 102.964C248.601 101.666 255.797 100.384 261.101 104.112C264.3 106.361 266.136 110.026 268.092 113.407C270.047 116.795 272.501 120.255 276.199 121.529C276.199 121.529 279.017 128.148 276.713 132.755C274.417 137.363 279.413 129.509 279.413 129.509C279.413 129.509 288.533 113.288 280.537 105.015Z" fill="#263238"/>
<path d="M233.108 198.891C233.052 190.159 233.108 165.641 233.108 165.681C233.108 165.681 219.238 163.345 216.403 145.232C214.994 136.223 215.477 121.466 216.269 109.401C216.981 98.539 224.201 85.231 235.024 86.4027L268.796 95.0161C272.082 95.3724 274.552 98.1828 274.48 101.484L272.422 185.362L233.108 198.891Z" fill="#FFBE9D"/>
<path d="M222.008 119.748C221.96 120.975 222.966 122.028 224.24 122.099C225.515 122.17 226.592 121.236 226.639 120.009C226.687 118.782 225.681 117.729 224.407 117.658C223.132 117.587 222.055 118.521 222.008 119.748Z" fill="#263238"/>
<path d="M219.443 117.088C219.728 117.389 221.493 116.09 223.987 116.106C226.481 116.082 228.318 117.373 228.587 117.064C228.721 116.93 228.429 116.383 227.629 115.797C226.845 115.22 225.507 114.65 223.948 114.657C222.388 114.665 221.082 115.235 220.33 115.821C219.57 116.407 219.308 116.953 219.443 117.088Z" fill="#263238"/>
<path d="M244.009 121.07C244.294 121.371 246.059 120.073 248.561 120.088C251.055 120.065 252.891 121.355 253.161 121.046C253.295 120.912 253.002 120.365 252.203 119.78C251.419 119.202 250.081 118.632 248.521 118.64C246.962 118.648 245.655 119.218 244.903 119.803C244.128 120.389 243.866 120.935 244.009 121.07Z" fill="#263238"/>
<path d="M234.897 136.12C234.913 135.977 233.353 135.708 230.843 135.376C230.202 135.304 229.601 135.178 229.498 134.742C229.347 134.283 229.616 133.594 229.925 132.85C230.527 131.306 231.16 129.691 231.825 127.997C234.461 121.086 236.369 115.402 236.092 115.299C235.815 115.196 233.448 120.714 230.812 127.625C230.178 129.327 229.569 130.958 228.991 132.51C228.746 133.238 228.334 134.053 228.658 135.011C228.833 135.486 229.3 135.835 229.703 135.946C230.115 136.072 230.471 136.08 230.788 136.096C233.313 136.246 234.889 136.262 234.897 136.12Z" fill="#263238"/>
<path d="M233.107 165.681C233.107 165.681 245.283 166.496 257.372 159.268C257.166 159.308 250.698 171.856 233.345 169.956L233.107 165.681Z" fill="#EB996E"/>
<path d="M235.617 143.332C235.316 141.796 237.129 141.297 238.459 140.466C239.789 139.643 240.557 138.542 241.8 139.492C242.513 140.031 243.019 140.814 243.336 141.646C243.55 142.208 243.684 142.817 243.581 143.411C243.455 144.132 242.996 144.757 242.465 145.264C241.713 145.976 240.771 146.514 239.75 146.681C238.728 146.855 237.628 146.633 236.813 145.992C235.997 145.351 235.522 144.274 235.696 143.253" fill="#EB996E"/>
<path d="M242.243 137.861C241.84 137.838 241.824 140.545 239.496 142.469C237.177 144.393 234.287 144.084 234.263 144.464C234.224 144.63 234.905 144.994 236.124 145.026C237.319 145.073 239.069 144.686 240.494 143.514C241.911 142.334 242.528 140.767 242.623 139.651C242.734 138.518 242.433 137.846 242.243 137.861Z" fill="#263238"/>
<path d="M243.637 115.489C243.882 116.17 246.376 115.853 249.305 116.209C252.242 116.51 254.601 117.373 254.997 116.763C255.171 116.47 254.76 115.829 253.81 115.172C252.868 114.515 251.355 113.89 249.598 113.684C247.84 113.486 246.225 113.763 245.157 114.198C244.072 114.634 243.526 115.164 243.637 115.489Z" fill="#263238"/>
<path d="M219.792 108.443C220.227 109.013 221.953 108.427 224.019 108.403C226.085 108.308 227.843 108.791 228.247 108.198C228.421 107.913 228.152 107.343 227.384 106.804C226.632 106.266 225.373 105.83 223.948 105.87C222.523 105.91 221.296 106.424 220.567 107.002C219.839 107.588 219.602 108.166 219.792 108.443Z" fill="#263238"/>
<path d="M276.452 155.587C271.472 156.592 271.029 154.059 267.308 150.599C263.587 147.14 261.663 141.843 262.305 136.808C262.867 132.359 265.266 127.839 263.722 123.627C261.687 118.062 253.881 116.352 251.815 110.794C250.612 107.564 251.688 103.788 250.327 100.629C249.044 97.6523 245.917 95.9423 242.869 94.8418C239.821 93.7414 236.56 92.9814 234.002 90.9943C231.445 89.0072 229.854 85.2547 231.501 82.468C245.007 84.083 258.323 87.321 271.061 92.0789C274.014 93.1793 277.117 94.5093 278.867 97.1377C280.711 99.9165 280.624 103.511 280.474 106.844C279.714 123.097 278.954 139.358 278.202 155.611" fill="#263238"/>
<path d="M287.994 149.507C288.002 149.515 288.074 149.436 288.192 149.285C288.303 149.119 288.509 148.897 288.691 148.565C289.103 147.908 289.594 146.855 289.886 145.398C290.179 143.957 290.203 142.081 289.594 140.054C289.031 138.028 287.614 135.858 285.382 134.386C283.236 132.874 280.434 131.813 278.661 129.406C277.774 128.227 277.402 126.699 277.679 125.155C277.924 123.603 278.629 122.075 279.254 120.46C280.64 117.215 280.656 113.161 279.025 109.654C278.201 107.905 276.982 106.282 275.351 105.094C273.728 103.867 271.749 103.234 269.802 102.79C267.838 102.339 265.883 102.086 264.07 101.54C262.257 101.001 260.531 100.186 259.273 98.9112C257.982 97.6524 257.436 95.9108 257.19 94.1612C256.945 92.4116 256.81 90.5907 256.335 88.8965C255.449 85.5003 253.723 82.4919 251.451 80.3307C249.179 78.1536 246.392 76.9106 243.756 76.5148C241.112 76.1031 238.626 76.594 236.757 77.5756C234.865 78.5415 233.551 79.8715 232.712 81.0827C231.873 82.3098 231.477 83.4023 231.295 84.1544C231.105 84.9065 231.121 85.3182 231.121 85.3182C231.239 85.3657 231.263 83.6161 232.965 81.2648C233.82 80.1169 235.127 78.8661 236.963 77.9794C238.776 77.0769 241.151 76.6494 243.677 77.0769C246.186 77.4886 248.846 78.7156 251 80.8136C253.161 82.9036 254.8 85.8011 255.631 89.0865C256.082 90.7253 256.193 92.4591 256.438 94.2799C256.676 96.0691 257.278 98.0562 258.718 99.4654C260.112 100.882 261.964 101.737 263.848 102.3C265.748 102.877 267.712 103.131 269.636 103.574C271.543 104.01 273.404 104.611 274.9 105.735C276.412 106.836 277.56 108.348 278.336 109.987C279.88 113.304 279.896 117.088 278.589 120.207C277.988 121.798 277.267 123.366 277.006 125.06C276.705 126.746 277.156 128.536 278.146 129.802C280.125 132.399 282.999 133.412 285.081 134.861C287.25 136.246 288.588 138.257 289.19 140.197C289.815 142.129 289.839 143.941 289.601 145.359C289.079 148.209 287.876 149.459 287.994 149.507Z" fill="#455A64"/>
<path d="M264.434 131.52C260.333 140.957 259.573 151.803 262.32 161.714C263.144 164.675 264.268 167.747 263.571 170.739C262.811 173.977 260.104 176.321 258.132 178.996C254.728 183.604 253.406 189.684 254.578 195.289C255.757 200.894 259.415 205.929 264.379 208.779C264.901 205.802 267.672 203.776 270.403 202.477C273.134 201.179 276.151 200.221 278.241 198.036C280.323 195.843 280.917 191.829 278.494 190.024C285.461 188.204 289.411 179.923 287.947 172.869C286.482 165.815 280.742 160.242 274.219 157.186" fill="#263238"/>
<path d="M271.868 201.82C270.625 202.501 269.414 203.111 269.255 204.528C269.073 206.183 270.665 209.096 271.235 210.663C272.351 213.727 271.512 217.416 269.168 219.688C266.833 221.968 263.12 222.705 260.088 221.509C262.32 221.683 264.212 219.506 264.41 217.274C264.608 215.049 263.532 212.896 262.202 211.099C260.872 209.302 259.265 207.703 258.132 205.771C255.837 201.836 252.432 191.141 255.053 185.148" fill="#263238"/>
<path d="M278.201 190.302C278.193 190.294 278.344 190.167 278.629 189.937C278.922 189.716 279.341 189.375 279.872 188.932C280.925 188.037 282.421 186.684 283.941 184.72C285.445 182.773 286.989 180.192 287.796 177.025C288.588 173.882 288.644 170.138 287.282 166.631C286.601 164.881 285.596 163.329 284.416 162.007C283.252 160.669 281.978 159.498 280.79 158.366C279.595 157.233 278.471 156.133 277.544 154.985C276.61 153.837 275.906 152.642 275.415 151.486C274.401 149.166 274.362 147.021 274.718 145.667C274.9 144.986 275.122 144.488 275.312 144.171C275.502 143.854 275.605 143.696 275.621 143.704C275.676 143.728 275.193 144.369 274.876 145.707C274.575 147.045 274.663 149.119 275.684 151.375C276.175 152.499 276.887 153.663 277.813 154.779C278.74 155.896 279.864 156.98 281.059 158.104C282.255 159.228 283.537 160.4 284.725 161.762C285.928 163.108 286.973 164.707 287.67 166.504C289.071 170.114 288.992 173.946 288.161 177.144C287.313 180.374 285.722 182.979 284.163 184.926C282.595 186.882 281.059 188.219 279.967 189.082C279.421 189.51 278.977 189.827 278.668 190.032C278.376 190.214 278.209 190.309 278.201 190.302Z" fill="#455A64"/>
<path d="M50.6827 284.851C52.6857 287.361 56.2007 286.268 57.7524 284.558C59.304 282.856 59.8582 280.489 60.357 278.233C61.497 273.087 62.6291 267.688 61.2199 262.605C60.8003 261.085 60.1274 259.589 58.9715 258.512C57.8157 257.436 56.1136 256.866 54.6173 257.364C52.844 257.95 51.8386 259.787 51.134 261.513C49.0677 266.587 48.1573 272.137 48.4819 277.608C48.6323 280.173 49.1073 282.833 50.6827 284.851Z" fill="#007BFF"/>
<g opacity="0.2">
<g opacity="0.2">
<path opacity="0.2" d="M50.6827 284.851C52.6857 287.361 56.2007 286.268 57.7524 284.558C59.304 282.856 59.8582 280.489 60.357 278.233C61.497 273.087 62.6291 267.688 61.2199 262.605C60.8003 261.085 60.1274 259.589 58.9715 258.512C57.8157 257.436 56.1136 256.866 54.6173 257.364C52.844 257.95 51.8386 259.787 51.134 261.513C49.0677 266.587 48.1573 272.137 48.4819 277.608C48.6323 280.173 49.1073 282.833 50.6827 284.851Z" fill="black"/>
</g>
</g>
<path d="M58.3936 297.708C61.299 295.966 64.822 295.547 68.1945 295.887C70.0074 296.069 71.9074 296.489 73.2058 297.755C74.512 299.022 74.892 301.381 73.562 302.624C72.7703 303.368 71.6145 303.543 70.5378 303.598C67.9253 303.733 65.004 303.456 63.0169 305.158C61.8849 306.131 61.1882 307.667 59.7869 308.198C58.4253 308.72 56.8023 307.992 55.9869 306.781C55.1715 305.569 55.0448 304.002 55.2981 302.569C55.2981 302.561 55.4723 299.458 58.3936 297.708Z" fill="#007BFF"/>
<path d="M45.8694 288.936C47.714 286.442 47.8723 282.967 46.8035 280.062C45.7269 277.156 43.5656 274.757 41.1273 272.842C38.2693 270.601 34.9681 268.923 31.4689 267.933C30.0914 267.545 28.6505 267.26 27.2334 267.482C25.8242 267.704 24.4388 268.527 23.853 269.833C22.9901 271.765 24.0747 273.974 25.2067 275.763C27.2018 278.914 29.4501 281.898 31.9122 284.693C33.8914 286.941 36.1397 289.142 39.0056 290.037C41.8714 290.931 44.761 290.622 46.1227 288.588" fill="#007BFF"/>
<path d="M53.0418 324.427C53.0735 324.427 53.1051 323.999 53.1368 323.224C53.1685 322.353 53.2001 321.252 53.2476 319.954C53.311 318.576 53.4139 316.938 53.6751 315.133C53.9443 313.344 54.4114 311.388 55.0527 309.393C55.7177 307.414 56.5727 305.593 57.6097 304.121C58.6389 302.64 59.8739 301.532 61.0535 300.867C62.2331 300.186 63.3098 299.877 64.054 299.719C64.8061 299.592 65.2336 299.505 65.2336 299.473C65.2336 299.442 64.806 299.458 64.0223 299.529C63.2544 299.632 62.1302 299.893 60.8794 300.558C59.6285 301.207 58.3143 302.331 57.2377 303.851C56.1452 305.363 55.2664 307.216 54.5856 309.235C53.9364 311.261 53.4693 313.233 53.2239 315.069C52.9785 316.898 52.9151 318.553 52.8914 319.938C52.8756 321.324 52.9072 322.448 52.9389 323.224C52.9785 323.999 53.0101 324.427 53.0418 324.427Z" fill="#263238"/>
<path d="M53.1133 321.91C53.1291 321.91 53.1291 321.72 53.1133 321.355C53.0895 320.944 53.0499 320.413 53.0103 319.772C52.9233 318.403 52.7966 316.415 52.7174 313.953C52.5274 309.037 52.5274 302.244 52.8758 294.747C53.232 287.25 53.897 280.481 54.5858 275.621C54.7441 274.401 54.9104 273.301 55.0766 272.343C55.227 271.377 55.3616 270.546 55.4883 269.873C55.5991 269.24 55.6862 268.725 55.7575 268.313C55.8129 267.957 55.8366 267.767 55.8208 267.759C55.805 267.759 55.7495 267.941 55.6624 268.29C55.5674 268.693 55.4487 269.208 55.2983 269.833C55.1399 270.506 54.9816 271.33 54.7995 272.296C54.6095 273.253 54.4195 274.354 54.2374 275.573C53.4537 280.442 52.7333 287.219 52.377 294.732C52.0287 302.244 52.092 309.053 52.3612 313.977C52.4878 316.439 52.662 318.426 52.8124 319.796C52.8916 320.437 52.9549 320.96 53.0103 321.371C53.0578 321.728 53.0974 321.918 53.1133 321.91Z" fill="#263238"/>
<path d="M52.3213 308.815C52.353 308.815 52.3134 308.221 52.2026 307.16C52.0759 306.1 51.8305 304.58 51.4188 302.719C50.9834 300.867 50.3976 298.666 49.5505 296.291C48.7351 293.908 47.6584 291.343 46.3363 288.746C43.7396 283.521 40.3908 279.333 37.5408 276.784C36.8679 276.103 36.1396 275.628 35.5458 275.153C35.245 274.924 34.9679 274.702 34.6987 274.52C34.4216 274.354 34.1683 274.203 33.9387 274.061C33.0204 273.514 32.5058 273.229 32.49 273.261C32.4187 273.372 34.5404 274.449 37.3033 277.037C40.0504 279.626 43.3121 283.79 45.893 288.968C47.2071 291.541 48.2838 294.082 49.1151 296.441C49.978 298.792 50.5955 300.97 51.0705 302.798C51.5297 304.635 51.8226 306.147 52.0047 307.192C52.1788 308.237 52.2897 308.815 52.3213 308.815Z" fill="#263238"/>
<path d="M173.107 127.681C171.65 122.511 164.921 123.01 164.921 123.01L165.103 126.604C168.99 125.931 171.405 130.491 171.405 130.491L173.107 127.681Z" fill="#007BFF"/>
<path d="M106.963 67.5059C103.337 67.8938 102.901 72.4459 102.901 72.4459L105.332 72.7309C105.332 70.055 108.649 68.9546 108.649 68.9546L106.963 67.5059Z" fill="#007BFF"/>
<path d="M140.751 19.2296C142.968 24.8664 150.449 23.5601 150.449 23.5601L149.84 19.5463C145.557 20.7338 142.335 15.8888 142.335 15.8888L140.751 19.2296Z" fill="#007BFF"/>
<path d="M56.3354 114.523C52.7096 114.911 52.2742 119.463 52.2742 119.463L54.7046 119.748C54.7046 117.072 58.0217 115.972 58.0217 115.972L56.3354 114.523Z" fill="#007BFF"/>
<path d="M71.29 37.2561C71.8204 33.646 67.5137 32.0944 67.5137 32.0944L66.6349 34.3744C69.2316 35.0315 69.4691 38.5306 69.4691 38.5306L71.29 37.2561Z" fill="#007BFF"/>
<path d="M9.24671 92.6813C8.59754 98.3417 16.0947 99.7113 16.0947 99.7113L17.4484 96.0063C12.9517 95.6025 12.2946 90.2983 12.2946 90.2983L9.24671 92.6813Z" fill="#007BFF"/>
<path d="M187.507 65.3603C191.149 65.5661 192.321 61.1407 192.321 61.1407L189.97 60.4598C189.542 63.104 186.082 63.6424 186.082 63.6424L187.507 65.3603Z" fill="#007BFF"/>
</g>
<defs>
<clipPath id="clip0">
<rect width="370.827" height="324.641" fill="white"/>
</clipPath>
</defs>
</svg>
