<svg width="440" height="287" viewBox="0 0 440 287" fill="none" xmlns="http://www.w3.org/2000/svg">
<g clip-path="url(#clip0)">
<path d="M198.051 36.3526L196.991 26.4204L226.984 16.1631L198.051 36.3526Z" fill="#D68406"/>
<path d="M226.984 16.1631L205.665 37.4818L199.095 29.2606L226.984 16.1631Z" fill="#F6A72E"/>
<path d="M226.984 16.1631L196.991 26.4204L190.72 18.6098L226.984 16.1631Z" fill="#F6A72E"/>
<path d="M199.095 29.2605L198.051 36.3525L201.961 32.845L199.095 29.2605Z" fill="#AB6700"/>
<path d="M195.613 32.1606C195.28 32.3831 194.946 32.6055 194.604 32.8279" stroke="#8987BF" stroke-width="0.848728" stroke-miterlimit="10"/>
<path d="M190.369 35.2918C185.596 37.747 180.223 39.3981 174.97 38.7736C167.827 37.9266 162.797 32.8622 154.969 34.4448C147.86 35.8906 141.718 41.7678 139.887 48.8084C138.655 53.5649 139.938 59.1598 143.848 62.1283C153.814 69.6994 164.961 57.9878 164.961 43.5643C164.961 25.1115 141.145 9.32775 107.062 6.65863C66.1612 3.46767 12.3426 32.828 -5.58841 93.0285" stroke="#8987BF" stroke-width="0.848728" stroke-miterlimit="10" stroke-dasharray="2.45 2.45"/>
<g filter="url(#filter0_d)">
<path d="M296.874 214.203H301.006V212.458H296.874V214.203Z" fill="#4A8CFF"/>
<path d="M296.343 214.576H301.536V213.815H296.343V214.576Z" fill="#4A8CFF"/>
<path d="M295.051 216.549H302.836V214.581H295.051V216.549Z" fill="#4A8CFF"/>
<path d="M298.46 195.276H299.426L299.076 186.191H298.802L298.46 195.276Z" fill="#4A8CFF"/>
<path d="M297.844 195.131V212.839H300.042V195.131H297.844ZM299.084 202.916H299.375V212.078H299.084V202.916ZM298.503 202.916H298.793V212.078H298.503V202.916Z" fill="#4A8CFF"/>
<path d="M189.171 246.255H177.229V287.874H189.171V246.255Z" fill="#4A8CFF"/>
<path d="M253.744 287.874V208.271L224.82 194.831H214.092V192.461H213.673V213.489H211.483V199.357H199.66V213.489H197.684V235.278H195.459V287.874H253.744Z" fill="#4A8CFF"/>
<path d="M70.2247 287.874V241.507L53.3802 233.679H47.1351L38.7257 236.314V244.544H37.5708V257.239H36.279V287.874H70.2247Z" fill="#4A8CFF"/>
<path d="M162.831 242.157H155.072V287.874H162.831V242.157Z" fill="#4A8CFF"/>
<path d="M160.213 234.97H145.867V287.874H160.213V234.97Z" fill="#4A8CFF"/>
<path d="M143.412 245.091H132.718V287.181H143.412V245.091Z" fill="#4A8CFF"/>
<path d="M171.976 195.661H153.412V287.172H171.976V195.661Z" fill="#4A8CFF"/>
<path d="M288.977 282.878H304.752V203.788H288.977V282.878Z" fill="#4A8CFF"/>
<path d="M312.071 218.657H296.296V287.78H312.071V218.657Z" fill="#4A8CFF"/>
<path d="M289.905 194.686V208.622H279.177V203.249H273.317V201.016H270.203V203.249H255.463C255.412 203.335 255.369 203.42 255.309 203.506V227.408H249.141V287.874H290.889V194.686H289.905Z" fill="#4A8CFF"/>
<path d="M69.7286 287.874V242.311L71.9785 245.305H78.1123V233.268H78.3519V245.305H79.6094V237.212H86.3763V245.305H87.5056V257.769H88.7802V287.874H69.7286Z" fill="#4A8CFF"/>
<path d="M102.785 208.793H90.8419V287.866H102.785V208.793Z" fill="#4A8CFF"/>
<path d="M102.699 287.874V228.349H114.162L120.322 234.722V287.874H102.699Z" fill="#4A8CFF"/>
<path d="M201.722 246.255V248.71H202.577V253.629H205.494V287.874H190.25V246.255H201.722Z" fill="#0066FF"/>
<path d="M172.9 217.451H167.896V217.896H172.9V217.451Z" fill="#FFFFFB"/>
<path d="M174.149 217.904H166.647V225.424H174.149V217.904Z" fill="#0066FF"/>
<path d="M181.805 241.131H182.806V203.926H181.805V241.131Z" fill="#7D9FF7"/>
<path d="M184.033 241.131H185.034V203.926H184.033V241.131Z" fill="#7D9FF7"/>
<path d="M187.632 214.764H171.651V256.212H187.632V214.764Z" fill="#B0D0FF"/>
<path d="M197.838 242.14H179.881V229.667L197.838 242.14Z" fill="#8BBAFF"/>
<path d="M181.455 225.697H159.845V287.874H181.455V225.697Z" fill="#B0D0FF"/>
<path d="M198.761 241.122H178.957V287.874H198.761V241.122Z" fill="#7D9FF7"/>
<path d="M437.057 257.461V259.377H437.733V263.219H440V289.918H428.118V257.461H437.057Z" fill="#0066FF"/>
<path d="M414.584 234.996H410.683V235.347H414.584V234.996Z" fill="#FFFFFB"/>
<path d="M415.559 235.347H409.707V241.207H415.559V235.347Z" fill="#0066FF"/>
<path d="M421.518 253.465H422.305V224.447H421.518V253.465Z" fill="#7D9FF7"/>
<path d="M423.26 253.465H424.047V224.447H423.26V253.465Z" fill="#7D9FF7"/>
<path d="M426.064 232.9H413.6V265.229H426.064V232.9Z" fill="#B0D0FF"/>
<path d="M434.029 254.253H420.025V244.526L434.029 254.253Z" fill="#8BBAFF"/>
<path d="M421.248 241.429H404.395V289.927H421.248V241.429Z" fill="#B0D0FF"/>
<path d="M434.756 253.458H419.306V289.918H434.756V253.458Z" fill="#7D9FF7"/>
<path d="M16.6628 264.964V266.435H16.1495V269.387H14.4043V289.918H23.5409V264.964H16.6628Z" fill="#0066FF"/>
<path d="M33.9464 247.968H36.9492V247.703H33.9464V247.968Z" fill="#FFFFFB"/>
<path d="M33.1937 252.471H37.6936V247.963H33.1937V252.471Z" fill="#0066FF"/>
<path d="M28.6053 239.59H28.0064V261.901H28.6053V239.59Z" fill="#7D9FF7"/>
<path d="M27.2707 239.59H26.6719V261.901H27.2707V239.59Z" fill="#7D9FF7"/>
<path d="M25.1124 270.94H34.6938V246.088H25.1124L25.1124 270.94Z" fill="#B0D0FF"/>
<path d="M18.9896 262.5H29.7602V255.023L18.9896 262.5Z" fill="#8BBAFF"/>
<path d="M41.7798 252.636H28.8192V289.919H41.7798V252.636Z" fill="#B0D0FF"/>
<path d="M30.3163 261.884H18.4422V289.919H30.3163V261.884Z" fill="#7D9FF7"/>
<path d="M234.239 169.081H226.171V222.814H234.239V169.081Z" fill="#6DA8FF"/>
<path d="M249.329 171.109H219.935V237.503H249.329V171.109Z" fill="#7D9FF7"/>
<path d="M216.614 222.097H221.952V220.677H216.614V222.097Z" fill="#8BBAFF"/>
<path d="M215.938 222.398H222.636V221.782H215.938V222.398Z" fill="#8BBAFF"/>
<path d="M214.27 232.75H224.313V222.399H214.27V232.75Z" fill="#6DA8FF"/>
<path d="M230.825 197.62V287.874H253.744V208.271L230.825 197.62Z" fill="#7D9FF7"/>
<path d="M225.752 217.185H212.099V287.874H225.752V217.185Z" fill="#6DA8FF"/>
<path d="M223.4 224.123H222.279V269.139H223.4V224.123Z" fill="#0066FF"/>
<path d="M220.902 224.123H219.781V269.139H220.902V224.123Z" fill="#0066FF"/>
<path d="M218.412 224.123H217.291V269.139H218.412V224.123Z" fill="#0066FF"/>
<path d="M215.923 224.123H214.802V269.139H215.923V224.123Z" fill="#0066FF"/>
<path d="M238.935 215.722H231.048V224.097H238.935V215.722Z" fill="#7D9FF7"/>
<path d="M357.069 196.85H350.884V238.016H357.069V196.85Z" fill="#6DA8FF"/>
<path d="M368.635 198.407H346.11V249.283H368.635V198.407Z" fill="#7D9FF7"/>
<path d="M343.569 237.473H347.658V236.386H343.569V237.473Z" fill="#8BBAFF"/>
<path d="M343.047 237.707H348.18V237.236H343.047V237.707Z" fill="#8BBAFF"/>
<path d="M341.764 245.64H349.463V237.709H341.764V245.64Z" fill="#6DA8FF"/>
<path d="M354.451 218.725V287.874H372.014V226.878L354.451 218.725Z" fill="#7D9FF7"/>
<path d="M350.567 233.713H340.105V287.874H350.567V233.713Z" fill="#4A8CFF"/>
<path d="M348.762 239.026H347.906V273.519H348.762V239.026Z" fill="#0066FF"/>
<path d="M346.846 239.026H345.99V273.519H346.846V239.026Z" fill="#0066FF"/>
<path d="M344.938 239.026H344.083V273.519H344.938V239.026Z" fill="#0066FF"/>
<path d="M343.03 239.026H342.175V273.519H343.03V239.026Z" fill="#0066FF"/>
<path d="M360.662 232.593H354.622V239.009H360.662V232.593Z" fill="#7D9FF7"/>
<path d="M138.016 237.77H142.217V231.577H138.016V237.77Z" fill="#0066FF"/>
<path d="M140.697 239.802H146.172V235.089H140.697V239.802Z" fill="#0066FF"/>
<path d="M163.28 195.315H170.689V187.684H163.28V195.315Z" fill="#0066FF"/>
<path d="M127.234 287.874L128.098 239.881H129.134V234.962L146.106 233.208V242.892H148.108V190.135H172.233V241.686H174.406V287.874H127.234Z" fill="#4690FF"/>
<path d="M130.006 252.276H137.363V250.265H130.006V252.276Z" fill="#4A8CFF"/>
<path d="M130.006 255.944H137.363V253.934H130.006V255.944Z" fill="#4A8CFF"/>
<path d="M130.006 259.613H137.363V257.603H130.006V259.613Z" fill="#4A8CFF"/>
<path d="M130.006 263.282H137.363V261.271H130.006V263.282Z" fill="#4A8CFF"/>
<path d="M130.006 266.951H137.363V264.94H130.006V266.951Z" fill="#4A8CFF"/>
<path d="M130.006 270.619H137.363V268.609H130.006V270.619Z" fill="#4A8CFF"/>
<path d="M130.006 274.289H137.363V272.278H130.006V274.289Z" fill="#4A8CFF"/>
<path d="M130.006 277.966H137.363V275.955H130.006V277.966Z" fill="#4A8CFF"/>
<path d="M130.006 281.635H137.363V279.624H130.006V281.635Z" fill="#4A8CFF"/>
<path d="M345.914 246.255H333.971V287.874H345.914V246.255Z" fill="#4A8CFF"/>
<path d="M405.738 287.874V226.878L383.581 216.586H375.36V214.773H375.043V230.882H373.358V220.051H364.298V230.882H362.784V247.572H361.081V287.874H405.738Z" fill="#4A8CFF"/>
<path d="M328.718 195.661H310.154V287.172H328.718V195.661Z" fill="#4A8CFF"/>
<path d="M358.464 246.255V248.71H359.319V253.629H362.236V287.874H346.992V246.255H358.464Z" fill="#0066FF"/>
<path d="M329.642 217.45H324.638V217.895H329.642V217.45Z" fill="#FFFFFB"/>
<path d="M330.891 217.904H323.389V225.424H330.891V217.904Z" fill="#0066FF"/>
<path d="M338.546 241.131H339.547V203.926H338.546V241.131Z" fill="#7D9FF7"/>
<path d="M340.774 241.131H341.775V203.926H340.774V241.131Z" fill="#7D9FF7"/>
<path d="M344.374 214.764H328.393V256.212H344.374V214.764Z" fill="#B0D0FF"/>
<path d="M354.579 242.14H336.623V229.667L354.579 242.14Z" fill="#8BBAFF"/>
<path d="M338.197 225.697H316.588V287.874H338.197V225.697Z" fill="#B0D0FF"/>
<path d="M355.504 241.122H335.699V287.874H355.504V241.122Z" fill="#7D9FF7"/>
<path d="M390.005 213.592H385.865V241.181H390.005V213.592Z" fill="#6DA8FF"/>
<path d="M397.756 214.636H382.665V248.727H397.756V214.636Z" fill="#7D9FF7"/>
<path d="M380.959 240.815H383.696V240.088H380.959V240.815Z" fill="#8BBAFF"/>
<path d="M380.608 240.972H384.047V240.655H380.608V240.972Z" fill="#8BBAFF"/>
<path d="M379.752 246.287H384.911V240.974H379.752V246.287Z" fill="#6DA8FF"/>
<path d="M388.252 228.247V274.58H400.015V233.713L388.252 228.247Z" fill="#7D9FF7"/>
<path d="M385.642 238.29H378.636V274.58H385.642V238.29Z" fill="#7D9FF7"/>
<path d="M384.436 241.857H383.863V264.973H384.436V241.857Z" fill="#0066FF"/>
<path d="M383.161 241.857H382.588V264.973H383.161V241.857Z" fill="#0066FF"/>
<path d="M381.878 241.857H381.305V264.973H381.878V241.857Z" fill="#0066FF"/>
<path d="M380.595 241.857H380.022V264.973H380.595V241.857Z" fill="#0066FF"/>
<path d="M392.409 237.537H388.363V241.84H392.409V237.537Z" fill="#7D9FF7"/>
<path d="M320.022 195.315H327.43V187.684H320.022V195.315Z" fill="#0066FF"/>
<path d="M283.976 287.874L284.84 239.881H285.876V234.962L302.848 233.208V242.892H304.85V190.135H328.975V241.686H331.148V287.874H283.976Z" fill="#4690FF"/>
<path d="M286.747 252.276H294.104V250.265H286.747V252.276Z" fill="#4A8CFF"/>
<path d="M286.747 255.944H294.104V253.934H286.747V255.944Z" fill="#4A8CFF"/>
<path d="M286.747 259.613H294.104V257.603H286.747V259.613Z" fill="#4A8CFF"/>
<path d="M286.747 263.282H294.104V261.271H286.747V263.282Z" fill="#4A8CFF"/>
<path d="M286.747 266.951H294.104V264.94H286.747V266.951Z" fill="#4A8CFF"/>
<path d="M286.747 270.619H294.104V268.609H286.747V270.619Z" fill="#4A8CFF"/>
<path d="M286.747 274.289H294.104V272.278H286.747V274.289Z" fill="#4A8CFF"/>
<path d="M286.747 277.966H294.104V275.955H286.747V277.966Z" fill="#4A8CFF"/>
<path d="M286.747 281.635H294.104V279.624H286.747V281.635Z" fill="#4A8CFF"/>
<path d="M291.154 250.908H275.131V287.797H291.154V250.908Z" fill="#7D9FF7"/>
<path d="M283.241 229.658V186.49H279.828V184.437H279.058V184.121H278.741V183.547H278.168V179.27H277.8L277.595 175.531H277.432L277.227 179.27H276.859V183.547H276.286V184.121H275.969V184.437H275.199V186.49H265.703L260.228 193.155V229.658H283.241ZM277.441 183.393H277.27V179.561H277.441V183.393ZM277.783 183.393H277.612V179.561H277.783V183.393Z" fill="#0066FF"/>
<path d="M269.852 212.078H249.688V261.85H269.852V212.078Z" fill="#6DA8FF"/>
<path d="M93.0833 236.219H90.0292V237.032H93.0833V236.219Z" fill="#8BBAFF"/>
<path d="M93.4769 236.861H89.6443V237.212H93.4769V236.861Z" fill="#8BBAFF"/>
<path d="M94.435 237.212H88.6861V243.132H94.435V237.212Z" fill="#6DA8FF"/>
<path d="M88.7973 247.418H80.9867V287.874H88.7973V247.418Z" fill="#4A8CFF"/>
<path d="M82.3331 272.616H82.9747V246.857H82.3331V272.616Z" fill="#0066FF"/>
<path d="M83.7655 272.616H84.4071V246.857H83.7655V272.616Z" fill="#0066FF"/>
<path d="M85.1893 272.616H85.8309V246.857H85.1893V272.616Z" fill="#0066FF"/>
<path d="M86.6131 272.616H87.2547V246.857H86.6131V272.616Z" fill="#0066FF"/>
<path d="M81.6182 287.866H95.6909L95.6909 218.709H81.6182L81.6182 287.866Z" fill="#0066FF"/>
<path d="M62.8932 268.677H71.4053V244.21L62.8932 268.677Z" fill="#8BBAFF"/>
<path d="M59.2371 254.745H69.6997V216.608H59.2371L59.2371 254.745Z" fill="#0066FF"/>
<path d="M70.5265 241.374H75.3857V240.972H70.5265V241.374Z" fill="#FFFFFB"/>
<path d="M56.922 227.169H55.9381V287.532H56.922V227.169Z" fill="#0066FF"/>
<path d="M59.1121 227.169H58.1283V287.532H59.1121V227.169Z" fill="#0066FF"/>
<path d="M61.2935 257.53H60.3097V287.532H61.2935V257.53Z" fill="#0066FF"/>
<path d="M63.4837 257.53H62.4999V287.532H63.4837V257.53Z" fill="#0066FF"/>
<path d="M79.353 232.302H83.87V227.512H79.353V232.302Z" fill="#7D9FF7"/>
<path d="M65.9473 256.11H59.3601V287.865H65.9473V256.11Z" fill="#0066FF"/>
<path d="M106.352 204.269H121.922V202.9H106.352V204.269Z" fill="#0066FF"/>
<path d="M106.352 206.774H121.922V205.405H106.352V206.774Z" fill="#0066FF"/>
<path d="M106.352 209.27H121.922V207.901H106.352V209.27Z" fill="#0066FF"/>
<path d="M106.352 211.775H121.922V210.406H106.352V211.775Z" fill="#0066FF"/>
<path d="M106.352 214.271H121.922V212.902H106.352V214.271Z" fill="#0066FF"/>
<path d="M106.352 216.776H121.922V215.407H106.352V216.776Z" fill="#0066FF"/>
<path d="M106.352 219.281H121.922V217.912H106.352V219.281Z" fill="#0066FF"/>
<path d="M106.352 221.777H121.922V220.408H106.352V221.777Z" fill="#0066FF"/>
<path d="M106.352 224.282H121.922V222.913H106.352V224.282Z" fill="#0066FF"/>
<path d="M92.5358 287.874H120.399L120.664 201.239L92.5358 198.322V287.874Z" fill="#0066FF"/>
<path d="M92.5358 287.874H98.182L98.5071 201.051L92.5358 198.322V287.874Z" fill="#5E9EFF"/>
<path d="M120.322 234.723L114.162 228.349H102.699L120.322 234.723Z" fill="#7D9FF7"/>
<path opacity="0.43" d="M110.783 244.689H109.936V287.865H110.783V244.689Z" fill="#8BBAFF"/>
<path opacity="0.43" d="M112.657 244.689H111.81V287.865H112.657V244.689Z" fill="#8BBAFF"/>
<path opacity="0.43" d="M114.53 244.689H113.683V287.865H114.53V244.689Z" fill="#8BBAFF"/>
<path opacity="0.43" d="M116.404 244.689H115.557V287.865H116.404V244.689Z" fill="#8BBAFF"/>
<path d="M149.853 240.968H136.302V247.161H149.853V240.968Z" fill="#B0D0FF"/>
<path d="M290.88 208.613H262.624V287.874H290.88V208.613Z" fill="#B0D0FF"/>
<path d="M284.917 224.26H267.782V287.609H284.917V224.26Z" fill="#7D9FF7"/>
<path d="M79.5923 231.694L77.8984 241.823V265.528H76.4356V254.227H72.0469V241.541H67.376V223.036H59.6509V219.401H58.0341V223.036H54.9971V227.151H53.3802V216.475H50.2149V287.874H86.7356V238.589L85.5807 231.857L79.5923 231.694Z" fill="#4690FF"/>
<path d="M106.343 246.169H99.4823V287.865H106.343V246.169Z" fill="#B0D0FF"/>
<path d="M125.156 234.355H119.98V287.874H125.156V234.355Z" fill="#B0D0FF"/>
</g>
<path d="M77.5477 292.648H106.968C108.114 282.775 108.987 274.563 109.346 269.661C111.023 246.64 110.039 216.013 112.272 212.831C114.496 209.648 106.258 191.632 106.258 191.632L86.8211 196.08L77.6931 227.887C77.6931 227.887 76.7863 278.669 77.3423 288.011C77.3851 288.883 77.4621 290.475 77.5477 292.648Z" fill="url(#paint0_linear)"/>
<path d="M74.6561 292.648C76.1617 284.367 77.522 277.66 78.5913 273.776C84.0835 253.757 94.7172 191.854 94.7172 191.854L47.4859 196.08C47.4859 196.08 43.3795 220.53 42.2246 247.384C42.9518 247.914 43.3111 248.992 42.4813 249.813C42.3615 249.933 42.2332 250.053 42.1134 250.181C42.0022 253.287 41.9338 256.418 41.9252 259.54C41.891 267.291 42.0706 279.174 42.3615 292.648H74.6561Z" fill="url(#paint1_linear)"/>
<path d="M125.917 137.283C125.917 137.283 126.439 142.997 123.316 146.214C120.194 149.431 116.814 155.744 116.814 155.744C116.814 155.744 112.725 151.929 110.518 148.952C108.311 145.975 101.21 133.827 101.073 127.633C100.945 121.439 111.998 112.149 111.998 112.149C111.998 112.149 118.115 122.158 118.628 127.873C119.158 133.587 125.917 137.283 125.917 137.283Z" fill="url(#paint2_linear)"/>
<path d="M125.917 137.283C125.917 137.283 126.439 142.997 123.316 146.214C120.194 149.431 116.814 155.744 116.814 155.744C116.814 155.744 112.725 151.929 110.518 148.952C108.311 145.975 101.21 133.827 101.073 127.633C100.945 121.439 111.998 112.149 111.998 112.149C111.998 112.149 118.115 122.158 118.628 127.873C119.158 133.587 125.917 137.283 125.917 137.283Z" fill="#0069D9"/>
<path d="M130.861 133.347C129.818 136.205 129.818 139.182 129.818 143.117C129.818 147.052 130.211 153.836 127.739 155.504C125.267 157.173 121.759 160.389 118.765 157.772C115.771 155.154 114.214 150.979 113.82 147.052C113.427 143.117 118.243 137.402 120.45 133.946L130.861 133.347Z" fill="#FEC4AD"/>
<path d="M110.518 148.952C110.518 148.952 112.862 153.169 118.765 157.772C124.668 162.374 129.142 160.064 130.862 157.772C132.581 155.479 130.862 138.959 130.862 138.959C130.862 138.959 124.617 139.9 120.459 133.946L110.518 148.952Z" fill="url(#paint3_linear)"/>
<path d="M110.518 148.952C110.518 148.952 112.862 153.169 118.765 157.772C124.668 162.374 129.142 160.064 130.862 157.772C132.581 155.479 130.862 138.959 130.862 138.959C130.862 138.959 124.617 139.9 120.459 133.946L110.518 148.952Z" fill="#0069D9"/>
<path d="M124.12 139.772L130.862 138.959V133.347L124.12 133.946V139.772Z" fill="#AEBFDE"/>
<path d="M63.5604 85.4914C62.4911 88.5284 52.4305 92.0616 52.4305 92.0616C52.4305 92.0616 82.8602 126.906 94.606 126.683C106.352 126.461 89.4731 93.8239 89.4731 93.8239C89.4731 93.8239 86.0597 92.1129 84.9818 88.8022C83.9124 85.4915 86.1538 71.2305 86.1538 71.2305L73.7578 63.6423C73.7493 63.6338 64.6298 82.4545 63.5604 85.4914Z" fill="#FEC4AD"/>
<path d="M63.5604 85.4914C62.4911 88.5284 52.4305 92.0616 52.4305 92.0616C52.4305 92.0616 82.8602 126.906 94.606 126.683C106.352 126.461 89.4731 93.8239 89.4731 93.8239C89.4731 93.8239 86.0597 92.1129 84.9818 88.8022C83.9124 85.4915 86.1538 71.2305 86.1538 71.2305L73.7578 63.6423C73.7493 63.6338 64.6298 82.4545 63.5604 85.4914Z" fill="url(#paint4_linear)"/>
<path d="M101.441 44.4112C103.306 46.1992 106.386 49.7751 106.104 51.8197C105.821 53.8643 105.898 60.1949 104.247 63.3004C101.955 67.6206 102.22 74.2249 100.731 78.1088C99.2427 81.9842 91.7829 87.887 90.5937 88.3661C89.4046 88.8452 85.3924 88.0752 83.4675 86.5696C81.5427 85.0725 71.4137 72.1375 73.7492 63.634C73.7492 63.634 69.3007 64.4895 67.7694 55.9945C67.3673 53.7788 76.2729 47.7048 77.6759 45.549C81.0893 40.3049 93.1516 44.7534 96.6249 45.1042C100.09 45.4549 101.441 44.4112 101.441 44.4112Z" fill="#FEC4AD"/>
<path d="M105.702 55.1989C105.702 55.1989 107.224 49.9719 102.767 49.3987L88.8572 46.567C84.939 45.3608 83.3649 44.6165 83.3649 44.6165C83.3649 44.6165 82.21 49.9205 80.8241 51.1097C79.4383 52.2988 76.6152 53.4537 76.0848 55.139C75.5544 56.8243 75.3319 58.5866 75.3319 58.5866C75.3319 58.5866 73.5354 55.0021 71.4223 55.1219C69.3093 55.2331 68.6164 58.3898 70.3017 60.289C71.9784 62.1882 73.7578 63.6511 73.7578 63.6511C73.7578 63.6511 73.2274 66.0892 72.3634 67.8515C71.4993 69.6138 69.891 72.5567 69.891 72.5567C69.891 72.5567 67.9747 60.6569 65.4168 55.3871C62.8589 50.1259 62.8247 35.4885 78.3005 35.6938C78.3005 35.6938 88.4037 27.9602 98.4044 30.0818C107.07 31.9297 116.25 39.0473 108.756 50.7504C106.155 54.8054 105.702 55.1989 105.702 55.1989Z" fill="#7B2B1A"/>
<path d="M89.55 61.3585C89.55 61.3585 89.8494 62.5305 91.1497 63.694C92.4501 64.8575 93.4596 64.8489 95.0165 63.3433C95.0165 63.3433 93.0917 60.7169 89.55 61.3585Z" fill="white"/>
<path d="M91.9625 61.6323C91.5091 61.4612 91.2353 62.8386 91.3123 63.1294C91.4235 63.6 91.6289 64.2074 92.6982 64.3699C94.2638 64.6009 94.5974 62.6247 94.5974 62.6247L91.9625 61.6323Z" fill="#542F38"/>
<path opacity="0.35" d="M93.9302 62.8899C93.2629 62.8386 92.8181 63.5315 93.2287 63.8908C93.6394 64.2587 94.2211 64.4127 94.4007 63.8566C94.5804 63.3005 94.5975 62.9412 93.9302 62.8899Z" fill="white"/>
<path d="M88.207 61.4269C88.207 61.4269 92.6556 61.2301 95.7524 63.8223C95.7524 63.8223 96.1032 63.155 95.2648 62.4193C94.8028 62.0172 93.7506 61.4697 92.647 61.2302C88.8829 60.4003 88.207 61.4269 88.207 61.4269Z" fill="#782F38"/>
<path d="M97.0613 58.3215C97.0613 58.3215 97.9339 57.4147 97.8055 56.14C97.8055 56.14 93.28 53.7789 87.1804 55.7294C87.1804 55.7294 86.4874 56.1486 87.591 56.1572C88.686 56.1743 94.7514 55.8834 97.0613 58.3215Z" fill="#8E373F"/>
<path d="M103.024 65.0542C103.024 65.0542 102.99 67.0818 101.878 67.3213C100.398 67.6378 100.321 66.0552 100.355 64.9773C100.355 64.9687 101.689 64.1645 103.024 65.0542Z" fill="white"/>
<path d="M103.033 65.3365C103.383 65.4477 102.947 66.4571 102.776 66.6111C102.494 66.8592 102.1 67.1415 101.381 66.7224C100.312 66.1064 100.979 64.6777 100.979 64.6777L103.033 65.3365Z" fill="#542F38"/>
<path opacity="0.35" d="M102.998 65.8927C103.494 66.2264 103.46 66.9707 102.99 67.0049C102.519 67.0476 102.032 66.8338 102.186 66.329C102.331 65.8243 102.502 65.5591 102.998 65.8927Z" fill="white"/>
<path d="M103.503 65.5505C104.008 65.5761 103.897 65.1313 103.084 64.7463C102.186 64.3186 101.168 64.1304 100.637 64.1646C99.679 64.233 99.5849 64.9089 99.5849 64.9089C100.894 64.849 102.134 65.1741 103.178 65.6018C103.281 65.5676 103.383 65.5505 103.503 65.5505Z" fill="#782F38"/>
<path d="M105.642 59.9297C103.409 57.5429 101.861 57.3633 101.861 57.3633C101.27 58.0391 101.219 59.3566 101.219 59.3566C103.289 59.7415 104.701 60.4345 105.625 61.0077C105.796 60.5115 105.779 60.1179 105.642 59.9297Z" fill="#8E373F"/>
<path d="M84.2717 59.0314C84.2375 59.4249 85.016 59.904 85.1358 60.0494C85.3924 60.3659 85.2213 60.3488 85.5806 63.4457C85.8373 65.7298 87.3515 67.1927 91.1841 67.6718C94.1098 68.0396 94.8284 65.5159 95.5128 64.4894C96.1972 63.4628 96.4966 63.3858 96.9329 63.5141C97.3607 63.6424 97.5403 63.8563 97.6088 65.1053C97.6772 66.3543 96.7704 69.0149 99.5849 69.9303C101.527 70.5548 102.254 70.2553 103.204 68.8267C104.051 67.552 104.726 66.2174 105.12 65.1652C105.513 64.0958 105.779 63.4628 105.325 63.1634C104.761 62.7955 103.905 62.5731 103.05 62.325C101.347 61.8288 100.201 61.2813 99.0545 61.5208C97.8996 61.7604 97.8141 62.2138 97.3179 62.0769C96.8217 61.94 96.9329 61.4695 96.0689 60.6482C95.2048 59.8184 90.6622 58.4924 88.9598 57.9877C87.2574 57.4915 84.8192 57.0295 84.5712 57.6968C84.4257 58.039 84.306 58.5694 84.2717 59.0314ZM98.9604 63.3943C99.4138 62.5987 99.4395 62.7271 101.587 63.2318C103.743 63.7365 103.905 63.9333 104.145 64.4722C104.384 65.0027 104.068 66.4741 103.084 68.1081C102.553 68.9892 101.835 70.1013 100.107 69.5966C98.2589 69.0491 98.2675 67.937 98.3701 66.4057C98.4728 64.8658 98.7893 63.6852 98.9604 63.3943ZM87.0521 59.0143C87.5226 58.6892 90.32 59.6388 92.416 60.3745C94.5119 61.1187 95.2048 61.3583 95.1963 62.2908C95.1963 62.633 94.8798 63.8135 94.1954 65.1737C93.5195 66.534 92.7154 67.6204 89.3704 66.6537C87.0093 65.9779 86.2565 64.7802 86.1538 62.5645C86.0683 60.6311 86.5815 59.3393 87.0521 59.0143ZM74.8956 57.7823C74.8956 57.7823 76.0077 57.0894 76.444 57.1664C76.6408 57.2006 76.983 57.4915 76.983 57.4915L84.306 59.2709L86.7869 57.4573C86.7869 57.4573 80.5675 55.8746 77.5134 55.1389C76.0676 54.7881 74.0059 56.6531 74.0059 56.6531C74.0059 56.6531 74.5106 57.0809 74.8956 57.7823Z" fill="#2F2521"/>
<path d="M97.5232 64.3269C97.5232 64.3269 98.1562 69.956 99.4309 71.1109C101.065 72.5909 100.389 73.7544 99.1486 74.1137C97.9081 74.4644 94.9995 73.9426 94.9995 73.9426C94.9995 73.9426 95.0679 71.1793 95.9662 69.169C96.873 67.15 97.5232 64.3269 97.5232 64.3269Z" fill="#F49A8A"/>
<path d="M96.3854 76.3806C96.3854 76.3806 95.778 78.3226 94.2296 79.2893C93.742 79.6058 93.1859 79.8111 92.5186 79.8454C90.4654 79.9566 89.4046 78.8102 88.8486 77.527C88.1813 75.9871 88.2583 74.2505 88.2583 74.2505C88.2583 74.2505 90.3457 75.4567 92.972 75.9957C95.5898 76.509 96.3854 76.3806 96.3854 76.3806Z" fill="#542F38"/>
<path d="M94.2295 79.2894C93.7419 79.6059 93.1858 79.8113 92.5186 79.8455C90.4654 79.9567 89.4046 78.8103 88.8485 77.5271C89.3704 77.2277 92.5186 79.8455 94.2295 79.2894Z" fill="#C85A58"/>
<path d="M100.757 97.0149C107.062 100.12 109.012 104.047 112.135 111.909C115.257 119.771 118.38 121.559 118.38 121.559C118.38 121.559 111.75 122.987 104.333 137.642C104.333 137.642 96.5308 132.637 94.5803 122.637C92.6213 112.628 100.757 97.0149 100.757 97.0149Z" fill="url(#paint5_linear)"/>
<path d="M100.757 97.0149C107.062 100.12 109.012 104.047 112.135 111.909C115.257 119.771 118.38 121.559 118.38 121.559C118.38 121.559 111.75 122.987 104.333 137.642C104.333 137.642 96.5308 132.637 94.5803 122.637C92.6213 112.628 100.757 97.0149 100.757 97.0149Z" fill="#0069D9"/>
<path d="M57.9057 88.1951L36.989 96.1169C36.989 96.1169 33.6184 115.879 33.8922 123.236C34.1659 130.593 45.2616 203.643 45.2616 203.643C45.2616 203.643 72.9965 206.731 86.9409 203.643C100.885 200.555 110.51 197.731 110.51 197.731C110.51 197.731 105.693 126.444 104.598 119.087C103.503 111.729 100.757 97.0066 100.757 97.0066L89.841 91.8394L83.7841 96.1169L57.9057 88.1951Z" fill="#007BFF"/>
<path d="M86.1795 105.177C86.1795 105.177 93.5111 170.835 94.9055 178.278L90.1404 187.765C90.1404 187.765 82.1331 182.281 81.6711 179.227C81.2092 176.182 80.5932 105.502 80.5932 105.502L86.1795 105.177Z" fill="url(#paint6_linear)"/>
<path d="M119.569 121.593C118.123 121.088 111.861 119.574 109.432 119.626C107.002 119.685 99.6192 119.069 96.702 119.489C93.7848 119.908 91.0815 123.98 88.592 125.161C87.2746 125.785 84.6568 126.991 81.5172 128.403C82.5865 131.166 83.5874 133.946 84.5969 136.735C86.1539 135.657 87.5141 134.87 88.5492 134.579C92.7753 133.399 92.6641 132.295 94.9397 132.415C97.2153 132.526 96.8731 132.56 98.9263 132.218C100.979 131.876 102.4 128.873 103.871 127.949C105.342 127.017 107.498 126.033 107.242 125.255C106.985 124.476 106.882 123.535 101.946 124.613C101.946 124.613 106.643 122.919 108.73 122.885C110.818 122.859 115.232 123.424 117.319 123.39C119.407 123.364 121.015 122.098 119.569 121.593Z" fill="#FEC4AD"/>
<path d="M80.328 128.677L86.2309 125.777L91.6119 137.702L85.8544 141.885L80.328 128.677Z" fill="#AEBFDE"/>
<path d="M98.8749 142.792L115.848 146.727C117.593 147.121 119.697 146.069 120.57 144.383L139.433 107.058C140.289 105.382 139.596 103.696 137.876 103.294L121.058 99.282C117.961 99.1708 116.37 99.8808 115.48 101.6L96.5993 138.651C95.701 140.38 95.9406 141.543 98.8749 142.792Z" fill="#1B14AB"/>
<path d="M99.8245 143.092L116.883 147.052C118.637 147.455 120.758 146.394 121.631 144.7L140.563 107.212C141.427 105.536 140.725 103.842 138.989 103.44L122.084 99.419C120.262 98.9913 118.063 100.052 117.174 101.78L98.1306 139.173C97.2238 140.919 97.9937 142.672 99.8245 143.092Z" fill="url(#paint7_linear)"/>
<path d="M127.32 136.461C129.031 136.025 131.306 135.854 131.871 134.81C132.444 133.767 133.291 133.51 134.241 132.723C135.19 131.944 134.617 131.157 135.755 130.199C136.893 129.241 135.755 127.59 135.849 126.726C135.943 125.853 136.037 124.117 135.661 122.551C135.284 120.986 133.762 120.635 131.768 120.028C129.775 119.42 128.355 119.42 128.355 120.378C128.355 121.336 130.442 122.637 130.442 122.637C130.442 122.637 127.029 121.593 126.079 121.242C125.13 120.892 123.616 121.679 124.274 122.808C124.942 123.937 127.688 125.417 128.543 125.853C129.399 126.29 129.869 127.154 129.869 127.154C129.869 127.154 127.303 127.154 125.506 126.461C123.701 125.768 122.093 124.202 120.852 124.895C119.621 125.588 120.279 126.461 121.52 127.419C121.52 127.419 124.18 129.07 125.027 129.421C125.027 129.421 122.367 129.506 121.041 128.984C119.715 128.463 119.047 129.07 119.424 130.028C119.8 130.986 123.504 131.765 123.599 132.116C123.693 132.466 122.931 133.33 122.461 134.374C122.007 135.418 127.32 136.461 127.32 136.461Z" fill="#FEC4AD"/>
<path d="M89.3705 97.5969L86.1795 105.177L80.5847 105.45L72.2009 96.4762L84.4429 96.1255L89.3705 97.5969Z" fill="url(#paint8_linear)"/>
<path d="M60.438 84.5249L83.7842 96.1253L74.3311 103.346L57.9057 88.1949L60.438 84.5249Z" fill="url(#paint9_linear)"/>
<path d="M60.438 84.5249L83.7842 96.1253L74.3311 103.346L57.9057 88.1949L60.438 84.5249Z" fill="#0069D9"/>
<path d="M83.7842 96.1254L91.4066 101.755L89.841 91.848L87.3601 89.0334L83.7842 96.1254Z" fill="url(#paint10_linear)"/>
<path d="M83.7842 96.1254L91.4066 101.755L89.841 91.848L87.3601 89.0334L83.7842 96.1254Z" fill="#0069D9"/>
<path d="M36.989 96.1255C36.989 96.1255 30.3334 101.164 28.8876 103.551C27.4418 105.938 28.3058 111.507 27.7327 117.598C27.1509 123.698 29.3752 154.187 32.5662 159.218C35.7486 164.256 41.5402 165.582 44.4318 165.582C47.3233 165.582 85.8544 141.885 85.8544 141.885L80.328 128.668L52.0456 139.328C52.0456 139.328 52.3364 117.855 52.6273 113.081C52.9096 108.316 42.7807 97.4429 36.989 96.1255Z" fill="#0069D9"/>
<path d="M190.326 106.545V98.8033L186.528 97.6827C186.28 96.9384 185.981 96.2198 185.63 95.5354L187.529 92.0536L182.054 86.5784L178.572 88.4776C177.879 88.1269 177.169 87.8275 176.425 87.5794L175.304 83.781H167.562L166.441 87.5794C165.697 87.8275 164.978 88.1269 164.294 88.4776L160.812 86.5784L155.337 92.0536L157.236 95.5354C156.885 96.2283 156.586 96.9384 156.338 97.6827L152.54 98.8033V106.545L156.338 107.666C156.586 108.41 156.885 109.129 157.236 109.813L155.337 113.304L160.812 118.779L164.294 116.88C164.987 117.231 165.697 117.53 166.441 117.778L167.562 121.576H175.304L176.425 117.778C177.169 117.53 177.888 117.231 178.572 116.88L182.062 118.779L187.538 113.304L185.638 109.822C185.989 109.129 186.289 108.419 186.537 107.675L190.326 106.545ZM179.941 102.679C179.941 107.384 176.125 111.199 171.429 111.199C166.724 111.199 162.908 107.384 162.908 102.679C162.908 97.9735 166.724 94.1581 171.429 94.1581C176.125 94.1581 179.941 97.9735 179.941 102.679Z" fill="#D5DEF5"/>
<path d="M217.018 85.3037V80.5215L214.674 79.8286C214.52 79.3666 214.331 78.9303 214.118 78.5026L215.29 76.3553L211.91 72.9761L209.763 74.1482C209.335 73.9343 208.899 73.7461 208.437 73.5921L207.744 71.248H202.962L202.269 73.5921C201.807 73.7461 201.371 73.9343 200.943 74.1482L198.796 72.9761L195.417 76.3553L196.589 78.5026C196.375 78.9303 196.187 79.3666 196.033 79.8286L193.689 80.5215V85.3037L196.033 85.9966C196.187 86.4586 196.375 86.8949 196.589 87.3226L195.417 89.4699L198.796 92.8491L200.943 91.6771C201.371 91.8909 201.807 92.0791 202.269 92.2331L202.962 94.5772H207.744L208.437 92.2331C208.899 92.0791 209.335 91.8909 209.763 91.6771L211.91 92.8491L215.29 89.4699L214.118 87.3226C214.331 86.8949 214.52 86.4586 214.674 85.9966L217.018 85.3037ZM210.601 82.9169C210.601 85.817 208.249 88.1696 205.349 88.1696C202.449 88.1696 200.096 85.817 200.096 82.9169C200.096 80.0168 202.449 77.6642 205.349 77.6642C208.249 77.6556 210.601 80.0082 210.601 82.9169Z" fill="#D5DEF5"/>
<path d="M159.811 142.963V153.811" stroke="#E9F2F4" stroke-width="0.258699" stroke-miterlimit="10"/>
<path d="M165.372 142.21C165.372 145.213 162.882 147.651 159.811 147.651C156.74 147.651 154.25 145.213 154.25 142.21C154.25 139.208 156.74 136.77 159.811 136.77C162.882 136.77 165.372 139.208 165.372 142.21Z" fill="#918DFF"/>
<path d="M165.372 161.279C165.372 164.282 162.882 166.72 159.811 166.72C156.74 166.72 154.251 164.282 154.251 161.279C154.251 158.277 156.74 155.838 159.811 155.838C162.882 155.838 165.372 158.277 165.372 161.279Z" fill="#918DFF"/>
<path d="M159.366 144.349L156.791 141.107L159.127 142.065L164.491 137.479L159.366 144.349Z" fill="white"/>
<path d="M159.366 163.632L156.791 160.389L159.127 161.348L164.491 156.762L159.366 163.632Z" fill="white"/>
<path d="M232.827 144.349H168.657V150.209H232.827V144.349Z" fill="#E9F2F4"/>
<path d="M210.601 163.204H168.657V169.064H210.601V163.204Z" fill="#E9F2F4"/>
<path d="M205.349 138.609H168.657V141.612H205.349V138.609Z" fill="#918DFF"/>
<path d="M191.387 157.292H168.657V160.295H191.387V157.292Z" fill="#918DFF"/>
<path d="M445 286.5C445 286.769 347.165 287 226.514 287C105.816 287 8 286.788 8 286.5C8 286.231 105.816 286 226.505 286C347.165 286 445 286.231 445 286.5Z" fill="#263238"/>
</g>
<defs>
<filter id="filter0_d" x="10.4043" y="169.081" width="433.596" height="128.846" filterUnits="userSpaceOnUse" color-interpolation-filters="sRGB">
<feFlood flood-opacity="0" result="BackgroundImageFix"/>
<feColorMatrix in="SourceAlpha" type="matrix" values="0 0 0 0 0 0 0 0 0 0 0 0 0 0 0 0 0 0 127 0"/>
<feOffset dy="4"/>
<feGaussianBlur stdDeviation="2"/>
<feColorMatrix type="matrix" values="0 0 0 0 0 0 0 0 0 0 0 0 0 0 0 0 0 0 0.25 0"/>
<feBlend mode="normal" in2="BackgroundImageFix" result="effect1_dropShadow"/>
<feBlend mode="normal" in="SourceGraphic" in2="effect1_dropShadow" result="shape"/>
</filter>
<linearGradient id="paint0_linear" x1="88.3791" y1="229.388" x2="117.825" y2="323.036" gradientUnits="userSpaceOnUse">
<stop stop-color="#272438"/>
<stop offset="1" stop-color="#304260"/>
</linearGradient>
<linearGradient id="paint1_linear" x1="69.2605" y1="201.362" x2="64.4293" y2="313.448" gradientUnits="userSpaceOnUse">
<stop stop-color="#272438"/>
<stop offset="1" stop-color="#304260"/>
</linearGradient>
<linearGradient id="paint2_linear" x1="101.078" y1="133.947" x2="125.953" y2="133.947" gradientUnits="userSpaceOnUse">
<stop stop-color="#8A74DC"/>
<stop offset="0.4231" stop-color="#634DB4"/>
<stop offset="0.7889" stop-color="#473198"/>
<stop offset="1" stop-color="#3D278D"/>
</linearGradient>
<linearGradient id="paint3_linear" x1="133.312" y1="135.59" x2="119.172" y2="154.568" gradientUnits="userSpaceOnUse">
<stop stop-color="#8A74DC"/>
<stop offset="0.4231" stop-color="#634DB4"/>
<stop offset="0.7889" stop-color="#473198"/>
<stop offset="1" stop-color="#3D278D"/>
</linearGradient>
<linearGradient id="paint4_linear" x1="67.2911" y1="91.0627" x2="81.0385" y2="94.4995" gradientUnits="userSpaceOnUse">
<stop stop-color="white" stop-opacity="0"/>
<stop offset="1" stop-color="#E0BAD1"/>
</linearGradient>
<linearGradient id="paint5_linear" x1="102.064" y1="101.14" x2="110.776" y2="142.524" gradientUnits="userSpaceOnUse">
<stop stop-color="#8A74DC"/>
<stop offset="0.4231" stop-color="#634DB4"/>
<stop offset="0.7889" stop-color="#473198"/>
<stop offset="1" stop-color="#3D278D"/>
</linearGradient>
<linearGradient id="paint6_linear" x1="87.7447" y1="187.768" x2="87.7447" y2="105.173" gradientUnits="userSpaceOnUse">
<stop stop-color="#272438"/>
<stop offset="1" stop-color="#304260"/>
</linearGradient>
<linearGradient id="paint7_linear" x1="97.7496" y1="123.223" x2="140.949" y2="123.223" gradientUnits="userSpaceOnUse">
<stop stop-color="#4B42C6"/>
<stop offset="0.4839" stop-color="#4E47CB"/>
<stop offset="1" stop-color="#5454D6"/>
</linearGradient>
<linearGradient id="paint8_linear" x1="80.7874" y1="105.454" x2="80.7874" y2="96.1215" gradientUnits="userSpaceOnUse">
<stop stop-color="#272438"/>
<stop offset="1" stop-color="#304260"/>
</linearGradient>
<linearGradient id="paint9_linear" x1="70.8485" y1="87.9222" x2="70.8485" y2="102.266" gradientUnits="userSpaceOnUse">
<stop stop-color="#8A74DC"/>
<stop offset="0.4231" stop-color="#634DB4"/>
<stop offset="0.7889" stop-color="#473198"/>
<stop offset="1" stop-color="#3D278D"/>
</linearGradient>
<linearGradient id="paint10_linear" x1="87.5987" y1="87.9223" x2="87.5987" y2="102.266" gradientUnits="userSpaceOnUse">
<stop stop-color="#8A74DC"/>
<stop offset="0.4231" stop-color="#634DB4"/>
<stop offset="0.7889" stop-color="#473198"/>
<stop offset="1" stop-color="#3D278D"/>
</linearGradient>
<clipPath id="clip0">
<rect x="-7" width="447" height="286.648" fill="white"/>
</clipPath>
</defs>
</svg>
