<svg width="447" height="334" viewBox="0 0 447 334" fill="none" xmlns="http://www.w3.org/2000/svg">
<g clip-path="url(#clip0)">
<path d="M447 293.489H0V293.712H447V293.489Z" fill="#EBEBEB"/>
<path d="M282.209 299.577H259.448V299.8H282.209V299.577Z" fill="#EBEBEB"/>
<path d="M407.164 304.413H353.229V304.637H407.164V304.413Z" fill="#EBEBEB"/>
<path d="M254.602 299.684H198.879V299.907H254.602V299.684Z" fill="#EBEBEB"/>
<path d="M162.744 306.371H151.086V306.595H162.744V306.371Z" fill="#EBEBEB"/>
<path d="M227.157 306.371H174.071V306.595H227.157V306.371Z" fill="#EBEBEB"/>
<path d="M81.2733 302.598H46.899V302.822H81.2733V302.598Z" fill="#EBEBEB"/>
<path d="M211.887 253.616H39.2643C36.4482 253.616 34.1596 251.328 34.1596 248.511V5.85303C34.1596 3.03693 36.4482 0.748291 39.2643 0.748291H211.896C214.712 0.748291 217 3.03693 217 5.85303V248.511C216.992 251.328 214.703 253.616 211.887 253.616ZM39.2643 0.971791C36.5734 0.971791 34.3831 3.16209 34.3831 5.85303V248.511C34.3831 251.202 36.5734 253.393 39.2643 253.393H211.896C214.587 253.393 216.777 251.202 216.777 248.511V5.85303C216.777 3.16209 214.587 0.971791 211.896 0.971791H39.2643Z" fill="#EBEBEB"/>
<path d="M405.259 253.616H232.628C229.811 253.616 227.523 251.328 227.523 248.511V5.85303C227.523 3.03693 229.811 0.748291 232.628 0.748291H405.259C408.075 0.748291 410.364 3.03693 410.364 5.85303V248.511C410.364 251.328 408.075 253.616 405.259 253.616ZM232.628 0.971791C229.937 0.971791 227.746 3.16209 227.746 5.85303V248.511C227.746 251.202 229.937 253.393 232.628 253.393H405.259C407.95 253.393 410.14 251.202 410.14 248.511V5.85303C410.14 3.16209 407.95 0.971791 405.259 0.971791H232.628Z" fill="#EBEBEB"/>
<path d="M175.187 215.943H115.826L112.223 174.372H171.584L175.187 215.943Z" fill="#E6E6E6"/>
<path d="M178.263 215.943H118.901L115.298 174.372H174.66L178.263 215.943Z" fill="#F0F0F0"/>
<path d="M127.019 207.021L125.034 183.303H166.543L168.527 207.021H127.019Z" fill="white"/>
<path d="M188.535 215.943H181.57V293.48H188.535V215.943Z" fill="#E6E6E6"/>
<path d="M190.734 215.943H185.897V293.48H190.734V215.943Z" fill="#F0F0F0"/>
<path d="M123.315 224.508H190.731V215.953H123.315V224.508Z" fill="#F0F0F0"/>
<path d="M125.696 224.508H118.731V293.489H125.696V224.508Z" fill="#E6E6E6"/>
<path d="M127.894 224.508H123.058V293.489H127.894V224.508Z" fill="#F0F0F0"/>
<path d="M76.1229 224.508H69.1586V293.489H76.1229V224.508Z" fill="#E6E6E6"/>
<path d="M78.3221 224.508H73.4856V293.489H78.3221V224.508Z" fill="#F0F0F0"/>
<path d="M144.46 224.508H137.496V293.489H144.46V224.508Z" fill="#E6E6E6"/>
<path d="M146.65 224.508H141.814V293.489H146.65V224.508Z" fill="#F0F0F0"/>
<path d="M123.318 215.943H69.159V224.499H123.318V215.943Z" fill="#E6E6E6"/>
<path d="M325.273 22.6157H115.782V139.247H325.273V22.6157Z" fill="#E0E0E0"/>
<path d="M336.779 22.6155H116.837V139.247H336.779V22.6155Z" fill="#F5F5F5"/>
<path d="M333.183 135.653V26.2092L120.428 26.2092L120.428 135.653L333.183 135.653Z" fill="white"/>
<path d="M206.577 135.653L246.744 26.2095H180.454L140.287 135.653H206.577Z" fill="#F5F5F5"/>
<path d="M270.382 135.653L310.549 26.2095H260.539L220.371 135.653H270.382Z" fill="#F5F5F5"/>
<path d="M391.67 182.096H373.862V293.489H391.67V182.096Z" fill="#E6E6E6"/>
<path d="M386.985 293.489H391.67V284.906H382.077L386.985 293.489Z" fill="#FAFAFA"/>
<path d="M227.487 182.096H209.679V293.489H227.487V182.096Z" fill="#E6E6E6"/>
<path d="M391.67 182.096H223.392V291.173H391.67V182.096Z" fill="#FAFAFA"/>
<path d="M388.487 217.293H226.584V186.486H388.487V217.293ZM227.478 216.399H387.593V187.38H227.478V216.399Z" fill="#E6E6E6"/>
<path d="M359.987 201.442H258.223C253.494 201.442 248.943 197.634 245.743 190.983L245.43 190.339H372.762L372.449 190.983C369.258 197.625 364.707 201.442 359.987 201.442ZM246.869 191.233C249.891 197.16 254.003 200.548 258.223 200.548H359.978C364.198 200.548 368.31 197.169 371.341 191.233H246.869Z" fill="#E6E6E6"/>
<path d="M228.077 293.489H223.392V284.906H232.985L228.077 293.489Z" fill="#FAFAFA"/>
<path d="M388.487 252.034H226.584V221.227H388.487V252.034ZM227.478 251.14H387.593V222.121H227.478V251.14Z" fill="#E6E6E6"/>
<path d="M359.987 236.183H258.223C253.494 236.183 248.943 232.375 245.743 225.724L245.43 225.08H372.762L372.449 225.724C369.258 232.375 364.707 236.183 359.987 236.183ZM246.869 225.983C249.891 231.91 254.003 235.289 258.223 235.289H359.978C364.198 235.289 368.31 231.91 371.341 225.983H246.869Z" fill="#E6E6E6"/>
<path d="M388.487 286.784H226.584V255.976H388.487V286.784ZM227.478 285.89H387.593V256.87H227.478V285.89Z" fill="#E6E6E6"/>
<path d="M359.987 270.933H258.223C253.494 270.933 248.943 267.125 245.743 260.473L245.43 259.83H372.762L372.449 260.473C369.258 267.125 364.707 270.933 359.987 270.933ZM246.869 260.733C249.891 266.66 254.003 270.048 258.223 270.048H359.978C364.198 270.048 368.31 266.669 371.341 260.733H246.869Z" fill="#E6E6E6"/>
<path d="M108.156 196.829V198.993H106.77L105.635 215.943H88.7918L87.6564 198.993H86.2707V196.829H108.156Z" fill="#E6E6E6"/>
<path d="M102.613 154.748C101.227 144.646 87.6029 141.768 70.304 141.392C53.8455 141.043 48.5709 135.215 48.5709 135.215C48.5709 135.215 48.6245 158.798 72.3423 167.336C94.8622 175.445 103.999 164.869 102.613 154.748Z" fill="#E6E6E6"/>
<path d="M94.2094 177.644C94.4955 173.487 101.129 165.852 117.087 169.33C128.619 171.842 132.911 165.861 132.911 165.861C132.911 165.861 131.847 182.74 114.494 187.818C98.0179 192.627 93.6998 184.948 94.2094 177.644Z" fill="#E6E6E6"/>
<path d="M97.8479 203.195C98.0267 203.195 98.1966 203.123 98.3217 202.98C99.475 201.612 98.5363 198.34 97.2221 193.808C95.5414 187.997 93.4494 180.755 95.2195 175.507C96.2208 172.539 97.4545 169.929 98.6525 167.399C101.156 162.106 103.319 157.529 101.513 152.755C101.397 152.433 101.039 152.281 100.718 152.397C100.396 152.514 100.244 152.871 100.36 153.193C101.978 157.484 100.02 161.624 97.535 166.88C96.3817 169.321 95.0675 172.092 94.0484 175.123C92.1531 180.746 94.3076 188.184 96.0331 194.165C97.0522 197.688 98.1071 201.335 97.3741 202.202C97.1506 202.461 97.1863 202.846 97.4456 203.069C97.5707 203.15 97.7048 203.195 97.8479 203.195Z" fill="#E6E6E6"/>
<path d="M223.5 333.862C319.232 333.862 396.838 329.331 396.838 323.742C396.838 318.153 319.232 313.622 223.5 313.622C127.768 313.622 50.1624 318.153 50.1624 323.742C50.1624 329.331 127.768 333.862 223.5 333.862Z" fill="#F5F5F5"/>
<path d="M223.464 274.402H96.5164L89.57 70.239H216.518L223.464 274.402Z" fill="#0066FF"/>
<path d="M229.803 268.063H102.855L95.8996 63.9004H222.848L229.803 268.063Z" fill="#0066FF"/>
<path opacity="0.3" d="M229.803 268.063H102.855L95.8996 63.9004H222.848L229.803 268.063Z" fill="white"/>
<path d="M187.276 147.926C200.87 134.1 200.293 111.49 185.987 97.4251C171.682 83.3605 149.065 83.1675 135.472 96.994C121.878 110.82 122.455 133.431 136.76 147.495C151.065 161.56 173.682 161.753 187.276 147.926Z" fill="#0066FF"/>
<path d="M190.843 122.458C191.013 127.544 189.886 132.327 187.758 136.493C183.101 145.675 173.58 151.924 162.378 151.924C151.176 151.924 141.226 145.675 135.942 136.493C133.528 132.327 132.08 127.544 131.901 122.458C131.347 106.178 144.086 92.9824 160.366 92.9824C176.646 92.9824 190.288 106.178 190.843 122.458Z" fill="white"/>
<path opacity="0.6" d="M187.758 136.493C183.101 145.674 173.58 151.924 162.378 151.924C151.176 151.924 141.226 145.674 135.942 136.493C143.193 131.54 151.998 128.644 161.582 128.644C171.166 128.644 180.168 131.531 187.758 136.493Z" fill="#0066FF"/>
<path opacity="0.6" d="M170.558 121.735C175.557 116.651 175.345 108.337 170.085 103.165C164.824 97.9935 156.508 97.9226 151.509 103.007C146.511 108.091 146.723 116.405 151.983 121.577C157.243 126.748 165.56 126.819 170.558 121.735Z" fill="#0066FF"/>
<path d="M204.297 194.129H123.318L122.773 178.037H203.751L204.297 194.129Z" fill="white"/>
<path d="M205.28 222.889H124.293L123.748 206.797H204.735L205.28 222.889Z" fill="white"/>
<path d="M174.026 209.015L154.51 211.67C153.706 211.777 153.178 212.51 153.33 213.288L155.896 226.367C156.048 227.145 156.826 227.699 157.63 227.583L177.146 224.928C177.951 224.821 178.479 224.096 178.327 223.31L175.761 210.231C175.609 209.453 174.822 208.898 174.026 209.015ZM168.421 222.255L164.89 222.738L164.532 218.518C163.781 218.187 163.236 217.517 163.084 216.73C162.834 215.451 163.701 214.262 165.006 214.093C166.311 213.914 167.581 214.808 167.831 216.086C167.983 216.873 167.724 217.651 167.134 218.16L168.421 222.255Z" fill="#0066FF"/>
<path d="M172.095 208.308C171.38 208.407 170.691 207.924 170.557 207.227L170.307 205.948C169.619 202.426 166.248 199.762 162.601 200.083C158.703 200.423 156.092 203.865 156.817 207.584L157.103 209.05C157.237 209.748 156.772 210.391 156.057 210.481C155.342 210.579 154.653 210.096 154.519 209.399L154.278 208.147C153.312 203.239 156.405 198.519 161.403 197.643C166.66 196.731 171.845 200.271 172.846 205.385L173.132 206.851C173.275 207.566 172.81 208.21 172.095 208.308Z" fill="#0066FF"/>
<path d="M191.915 245.427H139.196L138.838 234.949H191.557L191.915 245.427Z" fill="#0066FF"/>
<path d="M166.481 186.084C166.534 187.711 165.265 189.025 163.638 189.025C162.011 189.025 160.652 187.711 160.598 186.084C160.544 184.457 161.814 183.142 163.441 183.142C165.068 183.142 166.427 184.457 166.481 186.084Z" fill="#263238"/>
<path d="M153.804 186.084C153.857 187.711 152.588 189.025 150.961 189.025C149.334 189.025 147.975 187.711 147.921 186.084C147.868 184.457 149.137 183.142 150.764 183.142C152.391 183.142 153.75 184.457 153.804 186.084Z" fill="#263238"/>
<path d="M141.136 186.084C141.19 187.711 139.92 189.025 138.293 189.025C136.666 189.025 135.307 187.711 135.253 186.084C135.2 184.457 136.469 183.142 138.096 183.142C139.723 183.142 141.082 184.457 141.136 186.084Z" fill="#263238"/>
<path d="M179.149 186.084C179.202 187.711 177.933 189.025 176.306 189.025C174.679 189.025 173.32 187.711 173.266 186.084C173.212 184.457 174.482 183.142 176.109 183.142C177.736 183.142 179.095 184.457 179.149 186.084Z" fill="#263238"/>
<path d="M191.816 186.084C191.87 187.711 190.601 189.025 188.974 189.025C187.346 189.025 185.988 187.711 185.934 186.084C185.88 184.457 187.15 183.142 188.777 183.142C190.404 183.142 191.763 184.457 191.816 186.084Z" fill="#263238"/>
<path d="M298.515 107.429C299.704 109.334 300.697 111.166 301.716 113.071C302.735 114.957 303.656 116.888 304.559 118.846C306.338 122.762 307.929 126.802 309.118 131.12C309.279 131.648 309.395 132.211 309.529 132.765L309.726 133.597L309.824 134.008L309.94 134.688C310.2 136.502 309.967 137.986 309.663 139.292C309.02 141.893 307.992 143.976 306.883 145.961C304.621 149.885 301.984 153.229 298.935 156.394L295.172 153.542C297.031 150.02 298.864 146.327 300.214 142.778C300.866 141.017 301.421 139.22 301.582 137.745C301.662 137.021 301.608 136.395 301.51 136.163L301.152 135.072C301.009 134.625 300.875 134.178 300.697 133.722C299.409 130.11 297.773 126.49 295.985 122.922C294.224 119.364 292.275 115.744 290.362 112.355L298.515 107.429Z" fill="#FF8B7B"/>
<path d="M296.129 152.255L292.026 154.436L296.746 159.961C296.746 159.961 299.696 157.968 299.821 154.928L296.129 152.255Z" fill="#FF8B7B"/>
<path d="M286.501 157.842L291.552 161.856L296.737 159.961L292.017 154.436L286.501 157.842Z" fill="#FF8B7B"/>
<path d="M269.228 78.1776C269.13 78.6783 268.781 79.0269 268.459 78.9554C268.138 78.8928 267.95 78.4369 268.057 77.9362C268.155 77.4356 268.504 77.087 268.826 77.1585C269.148 77.23 269.327 77.6859 269.228 78.1776Z" fill="#263238"/>
<path d="M268.826 79.0361C268.826 79.0361 267.109 81.6734 265.589 82.8088C266.305 83.8101 267.869 83.7386 267.869 83.7386L268.826 79.0361Z" fill="#FF5652"/>
<path d="M267.217 96.5764L267.253 90.7207L275.013 91.6594C275.013 91.6594 274.878 96.7016 270.543 98.1767L267.217 96.5764Z" fill="#FF8B7B"/>
<path d="M269.452 86.4919L274.914 88.0654L275.013 91.6503L267.253 90.7116L269.452 86.4919Z" fill="#FF8B7B"/>
<path opacity="0.2" d="M274.914 88.0654L269.451 86.4919L268.388 88.5303C268.522 91.99 270.632 94.833 273.43 96.1114C274.95 94.1178 275.012 91.6503 275.012 91.6503L274.914 88.0654Z" fill="black"/>
<path d="M271.606 75.7909C271.678 75.7909 271.749 75.764 271.812 75.7104C271.937 75.6031 271.937 75.4064 271.83 75.2902C270.712 74.0833 269.353 74.2979 269.3 74.3068C269.139 74.3336 269.032 74.4856 269.058 74.6465C269.085 74.8075 269.246 74.9147 269.398 74.8879C269.443 74.879 270.507 74.727 271.401 75.6925C271.454 75.7551 271.526 75.7909 271.606 75.7909Z" fill="#263238"/>
<path d="M283.032 87.2251C282.129 91.8292 281.583 98.2034 284.802 101.27C284.802 101.27 283.541 105.937 274.995 105.937C265.599 105.937 270.471 101.842 270.471 101.842C274.378 100.626 274.342 96.183 273.448 92.607L283.032 87.2251Z" fill="#FF8B7B"/>
<path d="M286.563 104.345C287.404 103.156 287.368 99.4101 286.474 98.7575C285.035 97.6937 278.857 97.4433 270.543 99.3565C271.437 102.986 269.524 104.881 269.524 104.881L286.563 104.345Z" fill="#0066FF"/>
<path d="M314.509 316.581C313.875 316.715 313.249 316.751 312.945 316.491C312.82 316.384 312.686 316.178 312.802 315.803C312.865 315.606 312.99 315.454 313.186 315.365C314.036 314.963 315.985 315.758 316.074 315.785C316.128 315.803 316.163 315.857 316.163 315.919C316.163 315.982 316.137 316.035 316.083 316.053C315.77 316.205 315.135 316.447 314.509 316.581ZM313.481 315.579C313.419 315.597 313.356 315.615 313.303 315.633C313.186 315.687 313.115 315.776 313.079 315.883C312.999 316.152 313.097 316.232 313.133 316.268C313.472 316.554 314.724 316.295 315.609 315.937C315.01 315.731 314.045 315.463 313.481 315.579Z" fill="#0066FF"/>
<path d="M316.038 316.08C316.011 316.089 315.993 316.08 315.966 316.08C315.251 315.874 313.731 314.793 313.714 314.078C313.714 313.952 313.758 313.711 314.098 313.595C314.321 313.514 314.536 313.532 314.76 313.648C315.6 314.078 316.127 315.821 316.154 315.892C316.172 315.946 316.154 316 316.118 316.044C316.092 316.053 316.065 316.071 316.038 316.08ZM314.259 313.854C314.241 313.863 314.214 313.863 314.196 313.872C314.009 313.935 314.018 314.024 314.018 314.069C314.026 314.489 315.028 315.338 315.77 315.678C315.582 315.177 315.162 314.185 314.625 313.908C314.491 313.845 314.375 313.827 314.259 313.854Z" fill="#0066FF"/>
<path d="M268.075 317.636C267.27 317.636 266.493 317.528 266.224 317.162C266.135 317.037 266.063 316.822 266.233 316.509C266.332 316.339 266.493 316.223 266.707 316.161C267.753 315.875 269.952 317.126 270.042 317.18C270.095 317.207 270.122 317.269 270.113 317.332C270.104 317.394 270.06 317.439 269.997 317.457C269.604 317.546 268.835 317.636 268.075 317.636ZM267.083 316.42C266.975 316.42 266.877 316.429 266.796 316.456C266.662 316.491 266.564 316.563 266.501 316.661C266.394 316.849 266.439 316.938 266.475 316.992C266.77 317.394 268.361 317.412 269.523 317.242C268.942 316.947 267.816 316.42 267.083 316.42Z" fill="#0066FF"/>
<path d="M269.979 317.466C269.961 317.466 269.934 317.466 269.917 317.457C269.157 317.117 267.655 315.758 267.771 315.043C267.798 314.873 267.914 314.667 268.325 314.623C268.629 314.596 268.906 314.676 269.148 314.882C269.943 315.535 270.113 317.233 270.122 317.305C270.131 317.358 270.104 317.412 270.06 317.439C270.042 317.457 270.006 317.466 269.979 317.466ZM268.441 314.918C268.415 314.918 268.379 314.918 268.352 314.927C268.084 314.953 268.066 315.061 268.066 315.096C267.994 315.526 269.023 316.589 269.791 317.054C269.711 316.563 269.487 315.544 268.96 315.114C268.799 314.98 268.629 314.918 268.441 314.918Z" fill="#0066FF"/>
<path d="M276.89 317.314H270.605L269.979 302.751H276.264L276.89 317.314Z" fill="#FF8B7B"/>
<path d="M323.047 314.408L316.897 315.74L310.728 302.17L316.879 300.846L323.047 314.408Z" fill="#FF8B7B"/>
<path d="M316.306 315.123L323.208 313.63C323.458 313.577 323.718 313.702 323.825 313.934L326.221 319.138C326.471 319.674 326.14 320.309 325.559 320.425C323.137 320.908 321.939 321.015 318.899 321.676C317.031 322.079 312.811 323.107 310.236 323.67C307.715 324.215 306.767 321.748 307.778 321.292C312.292 319.227 314.17 317.412 315.395 315.722C315.618 315.41 315.94 315.195 316.306 315.123Z" fill="#263238"/>
<path d="M270.65 316.59H277.516C277.775 316.59 277.998 316.769 278.052 317.019L279.295 322.606C279.42 323.188 278.982 323.733 278.392 323.724C275.915 323.679 272.339 323.536 269.219 323.536C265.581 323.536 262.434 323.733 258.169 323.733C255.586 323.733 254.871 321.122 255.952 320.89C260.869 319.817 264.892 319.701 269.139 317.082C269.595 316.795 270.104 316.59 270.65 316.59Z" fill="#263238"/>
<path d="M296.066 102.691C301.958 104.041 306.821 119.087 306.821 119.087L294.984 128.108C294.984 128.108 290.64 124.013 288.709 116.486C286.679 108.601 290.041 101.306 296.066 102.691Z" fill="#0066FF"/>
<path opacity="0.4" d="M296.066 102.691C301.958 104.041 306.821 119.087 306.821 119.087L294.984 128.108C294.984 128.108 290.64 124.013 288.709 116.486C286.679 108.601 290.041 101.306 296.066 102.691Z" fill="black"/>
<path d="M265.071 120.643C263.596 122.234 262.13 123.638 260.619 125.095C259.868 125.819 259.09 126.525 258.304 127.222L257.115 128.26L256.82 128.519C256.676 128.644 256.498 128.787 256.31 128.939C255.917 129.234 255.487 129.565 254.585 129.958C254.111 130.146 253.494 130.387 252.412 130.405C251.903 130.414 251.205 130.325 250.535 130.074C249.855 129.824 249.194 129.386 248.747 128.939C247.808 128 247.531 127.178 247.343 126.624C247.173 126.051 247.12 125.649 247.084 125.291C247.03 124.594 247.066 124.129 247.102 123.691C247.146 123.262 247.2 122.887 247.272 122.538C247.531 121.161 247.906 120.044 248.309 118.935C248.72 117.835 249.167 116.772 249.694 115.708C250.258 114.572 250.812 113.741 251.357 112.793C253.565 109.101 256.158 105.731 258.911 102.548C261.728 99.3923 264.678 96.5046 268.075 93.8584L271.365 97.2467C269.049 100.34 266.779 103.657 264.678 106.92C262.577 110.21 260.637 113.562 258.956 116.977C258.572 117.818 258.098 118.738 257.83 119.445C257.517 120.214 257.231 121.045 256.989 121.858C256.757 122.663 256.569 123.503 256.48 124.12C256.462 124.272 256.453 124.397 256.453 124.478C256.453 124.549 256.471 124.585 256.462 124.397C256.453 124.29 256.444 124.138 256.346 123.816C256.238 123.503 256.069 122.913 255.318 122.153C254.951 121.796 254.406 121.42 253.843 121.224C253.297 121.009 252.725 120.947 252.341 120.947C251.509 120.964 251.143 121.134 250.901 121.224C250.463 121.411 250.454 121.465 250.454 121.447L250.794 121.134L251.867 120.151L254.003 118.148C255.416 116.816 256.837 115.395 258.187 114.072L265.071 120.643Z" fill="#FF8B7B"/>
<path opacity="0.2" d="M291.015 113.759C294.216 116.924 295.262 122.699 295.512 127.714L294.994 128.117C294.994 128.117 290.649 124.013 288.709 116.495C288.593 116.021 288.485 115.556 288.405 115.091L291.015 113.759Z" fill="black"/>
<path d="M258.822 108.994C257.534 115.788 256.73 129.735 260.467 157.368H294.099C294.331 152.201 291.086 127.017 296.066 102.691C296.066 102.691 290.3 101.538 284.81 101.27C280.51 101.064 274.288 100.921 270.515 101.27C268.942 101.413 267.386 101.645 266.01 101.887C262.362 102.53 259.51 105.364 258.822 108.994Z" fill="#0066FF"/>
<path opacity="0.4" d="M258.822 108.994C257.534 115.788 256.73 129.735 260.467 157.368H294.099C294.331 152.201 291.086 127.017 296.066 102.691C296.066 102.691 290.3 101.538 284.81 101.27C280.51 101.064 274.288 100.921 270.515 101.27C268.942 101.413 267.386 101.645 266.01 101.887C262.362 102.53 259.51 105.364 258.822 108.994Z" fill="black"/>
<path opacity="0.2" d="M263.972 119.034L257.892 117.576C257.705 121.26 257.687 125.819 257.964 131.46C260.753 128.278 264.329 123.316 263.972 119.034Z" fill="black"/>
<path opacity="0.2" d="M269.98 302.76L270.301 310.269H276.595L276.273 302.76H269.98Z" fill="black"/>
<path opacity="0.2" d="M316.879 300.846L310.728 302.179L313.911 309.17L320.061 307.838L316.879 300.846Z" fill="black"/>
<path d="M286.018 80.4933C284.4 86.5189 283.765 90.1306 280.046 92.6338C274.449 96.4065 267.485 92.0795 267.262 85.6874C267.065 79.939 269.738 71.0437 276.21 69.8279C282.585 68.6389 287.636 74.4677 286.018 80.4933Z" fill="#FF8B7B"/>
<path d="M271.91 80.7256C271.615 79.921 270.221 73.6898 271.526 72.0717C272.831 70.4536 287.716 71.6158 289.915 73.7792C293.563 77.3731 291.033 80.5826 287.037 84.7129C284.033 87.824 283.917 91.3285 282.397 91.847C279.742 92.7499 275.62 91.9006 274.789 89.0666C273.966 86.2327 271.91 80.7256 271.91 80.7256Z" fill="#263238"/>
<path d="M288.109 66.6988C282.852 64.4549 272.983 66.9402 267.663 65.6528C267.476 68.4153 269.138 72.8317 274.467 74.0207C274.467 74.0207 282.03 75.4958 287.877 75.2544C293.723 75.0219 292.579 68.603 288.109 66.6988Z" fill="#263238"/>
<path d="M288.932 73.9762C288.932 73.9762 292.186 74.3428 294.493 72.9124C295.485 75.2815 290.077 75.9341 288.932 73.9762Z" fill="#263238"/>
<path d="M274.771 80.9759C274.673 82.6119 273.913 84.1406 273.001 85.1509C271.633 86.6617 270.203 85.723 269.952 83.8814C269.738 82.2275 270.185 79.4471 271.857 78.6157C273.52 77.7843 274.887 79.1074 274.771 80.9759Z" fill="#FF8B7B"/>
<path d="M272.393 157.368C272.393 157.368 279.527 205.421 283.443 223.426C287.734 243.139 310.737 308.365 310.737 308.365L321.992 305.924C321.992 305.924 305.909 252.767 302.307 225.205C299.544 204.035 294.091 157.359 294.091 157.359H272.393V157.368Z" fill="#0066FF"/>
<path d="M308.046 304.61C308.001 304.619 310.147 308.678 310.147 308.678L322.815 305.933L321.751 302.125L308.046 304.61Z" fill="#263238"/>
<path opacity="0.3" d="M276.907 174.488C285.159 176.106 284.283 206.878 283.291 222.702C280.913 211.518 277.426 189.99 275.048 174.712C275.593 174.435 276.21 174.354 276.907 174.488Z" fill="black"/>
<path d="M260.458 157.368C260.458 157.368 259.591 204.384 260.279 223.56C260.995 243.505 267.959 308.812 267.959 308.812H278.615C278.615 308.812 279.009 244.667 279.482 225.08C280.001 203.722 282.576 157.368 282.576 157.368H260.458Z" fill="#0066FF"/>
<path d="M265.911 304.565C265.867 304.565 266.51 308.991 266.51 308.991H279.464L279.813 305.048L265.911 304.565Z" fill="#263238"/>
<path d="M272 111.059C275.012 119.186 257.302 128.76 257.302 128.76L249.632 118.899C249.632 118.899 254.746 108.717 261.03 104.131C268.781 98.4537 269.702 104.873 272 111.059Z" fill="#0066FF"/>
<path opacity="0.4" d="M272 111.059C275.012 119.186 257.302 128.76 257.302 128.76L249.632 118.899C249.632 118.899 254.746 108.717 261.03 104.131C268.781 98.4537 269.702 104.873 272 111.059Z" fill="black"/>
<path d="M341.392 49.3637C359.211 49.3637 373.656 40.1578 373.656 28.8017C373.656 17.4457 359.211 8.23975 341.392 8.23975C323.572 8.23975 309.127 17.4457 309.127 28.8017C309.127 40.1578 323.572 49.3637 341.392 49.3637Z" fill="#0066FF"/>
<path d="M329.752 39.1543C327.964 39.1543 326.212 38.6179 324.692 37.5808C322.653 36.1951 321.304 34.0853 320.874 31.6536C320.07 26.9959 323.163 22.365 327.767 21.31C331.558 20.4518 335.411 22.0699 337.44 25.3509L358.154 21.0776C359.835 20.7289 361.533 21.7302 361.954 23.3126C362.177 24.153 362.043 25.0201 361.587 25.7532C361.131 26.4863 360.416 26.9869 359.567 27.1657L359.021 27.282C358.86 27.3177 358.726 27.4161 358.646 27.5591C358.565 27.7021 358.556 27.872 358.61 28.024L358.977 28.9716C359.227 29.6153 358.995 30.3394 358.422 30.6881C357.984 30.9652 357.68 31.4391 357.618 31.9486C357.546 32.5834 357.126 33.0661 356.545 33.1913L356.116 33.2807C355.535 33.3969 354.954 33.1198 354.641 32.5655C354.265 31.9218 353.523 31.591 352.79 31.743C352.057 31.895 351.503 32.494 351.413 33.236C351.342 33.8707 350.913 34.3535 350.332 34.4787L349.911 34.5681C349.339 34.6843 348.749 34.4071 348.436 33.8529C348.177 33.4059 347.712 33.084 347.194 33.0125C346.532 32.9142 346.032 32.342 346.005 31.6536L345.96 30.6345C345.951 30.4735 345.88 30.3216 345.745 30.2232C345.62 30.1249 345.459 30.0802 345.29 30.1159L338.692 31.4748C338.129 35.2117 335.312 38.2066 331.584 38.9755C330.977 39.0917 330.36 39.1543 329.752 39.1543ZM327.964 22.1772C323.816 23.1159 321.035 27.2998 321.759 31.4927C322.135 33.683 323.36 35.5872 325.192 36.8388C327.025 38.0904 329.242 38.5374 331.415 38.0815C334.874 37.3663 337.458 34.5323 337.86 31.0278L337.896 30.706L345.12 29.213C345.54 29.1236 345.969 29.2309 346.309 29.4901C346.648 29.7494 346.845 30.1428 346.863 30.5719L346.908 31.591C346.917 31.8503 347.104 32.0649 347.337 32.1006C348.132 32.2168 348.821 32.6817 349.223 33.379C349.321 33.5489 349.509 33.7098 349.751 33.6651L350.171 33.5757C350.403 33.531 350.519 33.2986 350.537 33.1019C350.671 31.9755 351.512 31.0725 352.62 30.8401C353.729 30.6076 354.855 31.1172 355.419 32.0917C355.517 32.2615 355.705 32.4314 355.946 32.3778L356.375 32.2884C356.608 32.2437 356.724 32.0112 356.742 31.8235C356.831 31.0278 357.278 30.3305 357.957 29.9014C358.154 29.7762 358.235 29.4991 358.145 29.2666L357.779 28.319C357.627 27.9256 357.654 27.4786 357.859 27.1032C358.065 26.7277 358.422 26.4684 358.834 26.379L359.379 26.2628C359.987 26.1376 360.496 25.78 360.818 25.2615C361.14 24.7341 361.238 24.1172 361.078 23.5182C360.783 22.3918 359.549 21.6855 358.324 21.9358L336.984 26.3433L336.823 26.0661C335.044 22.9461 331.486 21.3816 327.964 22.1772ZM329.761 35.8465C328.652 35.8465 327.57 35.5246 326.623 34.8988C325.344 34.0585 324.468 32.7711 324.164 31.2692C323.851 29.7673 324.146 28.2385 324.987 26.9601C325.827 25.6817 327.114 24.8145 328.616 24.5016C330.118 24.1887 331.647 24.4837 332.925 25.3241C334.204 26.1645 335.071 27.4518 335.384 28.9537C335.697 30.4557 335.402 31.9755 334.562 33.2539C333.721 34.5323 332.434 35.4084 330.932 35.7124C330.539 35.8107 330.145 35.8465 329.761 35.8465ZM329.788 25.2883C329.457 25.2883 329.126 25.3241 328.795 25.3867C327.535 25.6459 326.444 26.388 325.738 27.4608C325.031 28.5425 324.781 29.8299 325.04 31.0904C325.3 32.3509 326.042 33.4416 327.114 34.1479C328.196 34.8541 329.484 35.1045 330.744 34.8452C332.014 34.5859 333.095 33.8439 333.802 32.7711C334.508 31.6894 334.758 30.402 334.499 29.1415C334.24 27.872 333.498 26.7903 332.425 26.0751C331.629 25.5565 330.717 25.2883 329.788 25.2883Z" fill="white"/>
<path opacity="0.6" d="M315.135 61.424C320.991 61.424 325.738 58.3981 325.738 54.6654C325.738 50.9327 320.991 47.9067 315.135 47.9067C309.279 47.9067 304.532 50.9327 304.532 54.6654C304.532 58.3981 309.279 61.424 315.135 61.424Z" fill="#0066FF"/>
<path opacity="0.3" d="M298.265 64.1864C300.67 64.1864 302.619 62.9456 302.619 61.415C302.619 59.8844 300.67 58.6436 298.265 58.6436C295.861 58.6436 293.911 59.8844 293.911 61.415C293.911 62.9456 295.861 64.1864 298.265 64.1864Z" fill="#0066FF"/>
</g>
<defs>
<clipPath id="clip0">
<rect y="0.748291" width="447" height="333.113" fill="white"/>
</clipPath>
</defs>
</svg>
