<svg width="1137" height="264" viewBox="0 0 1137 264" fill="none" xmlns="http://www.w3.org/2000/svg">
<rect x="744" y="42.6465" width="276.5" height="179.682" rx="6.27199" fill="#313B6C"/>
<rect x="910.702" y="77.7949" width="35.7928" height="4.27957" rx="2.13978" fill="#D6DFFC"/>
<rect x="910.702" y="85.9648" width="85.9804" height="1.94526" rx="0.97263" fill="#D6DFFC"/>
<rect x="910.702" y="89.8555" width="85.9804" height="1.94526" rx="0.97263" fill="#D6DFFC"/>
<rect x="920.039" y="99.1934" width="43.5738" height="4.27957" rx="2.13978" fill="#D6DFFC"/>
<rect x="920.039" y="107.363" width="64.9716" height="1.94526" rx="0.97263" fill="#D6DFFC"/>
<rect x="920.039" y="111.254" width="51.7439" height="1.94526" rx="0.97263" fill="#D6DFFC"/>
<rect x="910.701" y="99.1934" width="1.55621" height="18.2854" rx="0.778104" fill="#53A4FA"/>
<rect x="920.428" y="132.262" width="43.5738" height="4.27957" rx="2.13978" fill="#D6DFFC"/>
<rect x="920.427" y="140.432" width="64.9716" height="1.94526" rx="0.97263" fill="#D6DFFC"/>
<rect x="920.427" y="144.322" width="51.7439" height="1.94526" rx="0.97263" fill="#D6DFFC"/>
<rect x="910.701" y="131.873" width="1.55621" height="18.2854" rx="0.778104" fill="#29AB99"/>
<rect x="920.817" y="165.334" width="43.5738" height="4.27957" rx="2.13978" fill="#D6DFFC"/>
<rect x="920.816" y="173.504" width="64.9716" height="1.94526" rx="0.97263" fill="#D6DFFC"/>
<rect x="920.816" y="177.395" width="51.7439" height="1.94526" rx="0.97263" fill="#D6DFFC"/>
<rect x="910.701" y="164.555" width="1.55621" height="18.2854" rx="0.778104" fill="#BF7ADB"/>
<rect x="768.214" y="69.0206" width="121.985" height="122.594" rx="8.51961" stroke="#1AC7ED" stroke-width="1.54902"/>
<g clip-path="url(#clip0)">
<rect x="726.166" y="198.141" width="134.765" height="207.569" rx="6.19608" transform="rotate(-90 726.166 198.141)" fill="url(#paint0_linear)"/>
<path d="M877.196 79.6406L877.952 84.2877L877.196 88.9347L876.439 84.2877L877.196 79.6406Z" fill="white"/>
<path d="M872.548 84.3958L877.196 83.5312L881.843 84.3958L877.196 85.2603L872.548 84.3958Z" fill="white"/>
<path d="M841.955 100.551L842.397 103.262L841.955 105.972L841.514 103.262L841.955 100.551Z" fill="white"/>
<path d="M839.245 103.325L841.955 102.82L844.666 103.325L841.955 103.829L839.245 103.325Z" fill="white"/>
<path d="M808.651 86.6094L809.093 89.3202L808.651 92.0309L808.21 89.3202L808.651 86.6094Z" fill="white"/>
<path d="M805.941 89.3832L808.651 88.8789L811.362 89.3832L808.651 89.8875L805.941 89.3832Z" fill="white"/>
<path opacity="0.2" d="M738.885 110.61L726.866 89.1767C724.249 84.5087 717.811 83.8121 714.256 87.812C712.95 89.2805 712.248 91.1881 712.291 93.1523L714.288 186.015C714.433 192.754 719.92 198.141 726.66 198.141H816.784C818.182 198.141 787.7 147.426 767.799 114.677C764.714 109.601 757.731 108.69 753.434 112.791C749.036 116.99 741.859 115.914 738.885 110.61Z" fill="white"/>
<rect x="726.166" y="164.061" width="207.569" height="34.0784" fill="#6F94FF"/>
<g clip-path="url(#clip1)">
<path fill-rule="evenodd" clip-rule="evenodd" d="M870.931 134.971C870.91 135.526 870.766 136.143 870.17 136.328C870.006 136.616 870.129 137.171 869.923 137.418C869.471 138.076 868.772 138.467 868.114 139.001C867.744 139.289 867.415 139.597 867.168 139.967C867.086 140.091 866.922 140.214 866.819 140.317C866.593 140.543 866.428 140.769 866.264 141.037C866.079 141.304 865.873 141.571 865.709 141.818C865.544 142.044 865.256 142.126 865.112 142.373C864.948 142.64 864.824 142.949 864.619 143.216C864.31 143.627 863.94 144.018 863.652 144.429C862.748 145.745 862.028 147.184 861.103 148.541C860.959 148.747 860.774 148.932 860.61 149.137C860.404 149.425 860.281 149.693 860.013 149.98C859.91 150.083 859.869 150.248 859.767 150.35C859.664 150.474 859.458 150.926 859.273 151.193C857.957 153.311 856.477 155.655 854.914 157.732C854.832 157.855 854.75 157.999 854.668 158.102C854.606 158.184 854.483 158.266 854.421 158.348C854.277 158.554 854.215 158.863 854.051 159.068C853.969 159.171 853.763 159.212 853.681 159.315C853.598 159.438 853.64 159.582 853.557 159.685C853.475 159.788 853.269 159.829 853.187 159.932C853.105 160.055 853.146 160.199 853.064 160.302C852.488 160.96 851.666 161.412 851.131 162.111C853.434 161.741 856.95 161.638 858.533 162.707C861.041 162.625 862.254 163.818 862.768 165.73C862.542 165.853 862.501 166.141 862.398 166.326C862.172 166.717 861.638 167.477 861.185 167.786C861.062 167.868 861.041 167.806 860.939 167.909C860.959 167.889 860.527 168.135 860.445 168.156C858.821 168.485 856.991 166.819 855.469 167.909C852.406 168.135 848.952 168.423 845.642 168.279C844.778 168.238 843.935 168.012 843.092 168.032C842.372 168.053 841.673 168.341 841.036 168.403C839.453 168.526 837.829 168.238 836.801 167.683C836.451 167.498 836.184 167.251 835.834 166.963C835.793 166.943 835.752 166.737 835.711 166.717C835.546 166.634 835.341 166.634 835.115 166.47C834.683 166.182 833.984 165.853 833.531 165.38C832.462 165.257 831.517 165.031 830.612 164.661C829.604 164.229 828.864 163.55 827.713 163.324C827.117 163.201 826.438 163.509 825.904 162.954C825.246 163.509 824.259 163.735 823.724 164.414C822.367 164.455 822.018 165.524 820.702 165.627C821.606 165.73 822.552 165.689 823.601 165.874C824.834 166.1 825.348 166.285 826.027 167.087C826.397 167.518 826.746 167.889 826.746 168.3C826.767 168.917 826.089 169.533 825.78 170.006C824.567 170.274 823.354 170.438 822.018 170.13C821.339 170.582 820.805 170.417 819.715 170.623C819.406 170.685 819.262 170.849 818.995 170.87C818.666 170.89 817.741 170.87 817.186 170.746C816.713 170.644 816.322 170.274 815.849 170.15C815.356 170.006 814.821 170.068 814.04 170.027C813.773 170.006 813.423 169.883 813.197 169.903C812.58 169.945 811.84 170.315 811.141 170.5C807.995 171.343 804.048 171.774 799.627 171.589C798.928 171.548 798.167 171.404 797.448 171.343C796.646 171.281 795.885 171.343 795.145 171.219C793.911 171.014 792.308 170.438 791.136 170.006C790.91 169.924 790.642 169.945 790.54 169.883C790.416 169.821 790.231 169.513 790.046 169.389C789.655 169.122 788.627 168.629 788.34 168.3C788.36 168.32 788.196 167.991 788.093 167.806C787.723 167.169 787.579 165.339 787.97 164.414C788.093 164.126 788.257 163.859 788.463 163.571C788.648 163.304 788.812 162.995 788.956 162.851C789.1 162.687 789.347 162.666 789.553 162.481C789.799 162.276 789.984 161.988 790.272 161.762C790.375 161.679 790.519 161.72 790.642 161.638C791.424 161.083 792.513 160.343 793.439 159.705C793.994 159.315 794.528 158.945 795.145 158.492C795.618 158.143 796.194 157.629 796.728 157.156C797.366 156.601 797.756 156.19 798.188 155.347C798.332 155.038 798.394 154.668 798.558 154.38C798.969 153.599 799.401 152.962 799.895 152.201C800.224 151.687 800.573 151.111 800.984 150.494C801.149 150.248 801.354 149.98 801.581 149.651C801.601 149.61 801.807 149.569 801.827 149.528C802.053 149.014 802.711 148.336 803.164 147.822C804.5 146.321 806.104 144.779 807.893 143.586C808.119 143.442 808.407 143.216 808.736 142.99C808.777 142.969 808.818 142.764 808.859 142.743C810.031 142.209 811.326 141.304 812.621 140.687C813.218 140.399 813.917 140.111 814.554 139.844C816.466 139.001 818.563 138.199 820.866 137.788C821.606 137.644 822.429 137.48 823.169 137.418C824.444 137.315 825.698 137.48 826.932 137.541C827.487 137.562 828.083 137.521 828.638 137.541C831.825 137.726 834.971 138.405 837.602 139.351C839.186 139.926 840.769 140.235 843.174 140.07C843.75 140.029 844.346 139.885 844.984 139.824C845.847 139.741 846.67 139.782 847.41 139.577C848.849 139.186 849.651 138.096 850.555 137.027C851.357 136.082 852.098 135.012 852.982 133.882C852.406 132.381 852.221 130.798 852.139 128.659C852.098 127.755 852.036 126.747 852.139 125.863C852.283 124.527 852.838 123.601 854.195 124.156C854.503 124.28 854.544 124.28 854.791 124.527C854.894 124.629 855.058 124.67 855.161 124.773C855.367 124.979 856.066 125.37 856.374 125.616C857.279 126.356 858.101 127.528 859.047 127.672C859.561 127.755 860.589 127.343 861.35 127.426C861.946 126.768 862.275 125.678 862.81 124.753C862.912 124.588 863.056 124.547 863.18 124.383C863.344 124.177 863.467 123.54 863.899 123.786C864.228 124.958 864.228 126.459 864.393 127.796C864.866 128.125 865.421 128.227 865.976 128.392C866.387 128.515 866.49 128.577 866.819 128.762C867.23 129.009 867.682 129.502 868.032 129.852C868.217 130.037 868.34 130.715 868.525 131.188C868.875 131.743 869.553 131.949 870.108 132.278C870.376 132.812 870.643 133.326 870.91 133.861C871.013 134.046 870.993 134.211 870.993 134.416C870.951 134.622 870.951 134.807 870.931 134.971ZM801.93 166.388C801.601 166.141 801.19 165.894 800.964 165.668C800.923 165.627 801.005 165.483 800.964 165.421C800.943 165.38 800.758 165.339 800.717 165.298C800.388 164.928 800.121 164.373 799.751 164.208C799.422 164.064 798.784 164.023 798.291 164.085C797.633 164.188 796.913 164.64 796.235 164.928C796.009 165.031 795.803 164.948 795.639 165.051C795.515 165.113 795.433 165.318 795.268 165.421C794.919 165.606 794.343 165.606 794.302 166.018C796.831 166.675 800.285 167.066 803.266 166.861C802.629 166.881 802.177 166.573 801.93 166.388Z" fill="#313B6C"/>
<path d="M872.577 132.402C872.042 132.546 871.508 132.731 871.035 133.019C870.582 133.307 870.068 133.698 870.048 134.314C870.089 134.314 870.11 134.314 870.171 134.314C870.192 133.78 870.644 133.369 871.096 133.081C871.569 132.793 872.083 132.608 872.618 132.443C873.687 132.156 874.797 132.032 875.887 132.012C874.756 132.012 873.646 132.115 872.577 132.402Z" fill="#313B6C"/>
<path d="M871.281 133.78C871.055 133.903 870.788 134.026 870.623 134.253C870.377 134.314 870.13 134.376 869.883 134.458C869.904 134.499 869.904 134.499 869.904 134.54C870.13 134.458 870.335 134.397 870.562 134.335C870.52 134.417 870.5 134.499 870.479 134.602C870.52 134.602 870.52 134.602 870.562 134.602C870.562 134.499 870.603 134.397 870.664 134.314C871.898 134.047 873.214 134.191 874.468 134.335C873.234 134.17 871.96 134.006 870.726 134.253C870.87 134.088 871.096 133.944 871.302 133.841C871.651 133.677 872.021 133.574 872.391 133.471C873.132 133.307 873.892 133.245 874.674 133.225C873.913 133.225 873.132 133.286 872.391 133.43C872.001 133.512 871.631 133.615 871.281 133.78Z" fill="#313B6C"/>
<path d="M874.2 130.469C872.782 131.661 871.013 132.34 869.677 133.635C869.698 133.656 869.718 133.676 869.739 133.697C871.055 132.401 872.823 131.702 874.2 130.469Z" fill="#313B6C"/>
</g>
<path d="M821.819 108.297L822.26 111.008L821.819 113.718L821.377 111.008L821.819 108.297Z" fill="white"/>
<path d="M819.108 111.071L821.819 110.566L824.529 111.071L821.819 111.575L819.108 111.071Z" fill="white"/>
<path d="M781.544 94.3555L781.985 95.9045L781.544 97.4535L781.103 95.9045L781.544 94.3555Z" fill="white"/>
<path d="M778.833 95.9405L781.544 95.6523L784.255 95.9405L781.544 96.2287L778.833 95.9405Z" fill="white"/>
</g>
<rect x="790.879" y="199.334" width="76.6509" height="12.1028" rx="1.54902" fill="white" fill-opacity="0.1"/>
<path d="M806.791 204.037H807.291C807.298 203.368 807.839 202.873 808.561 202.873C809.25 202.873 809.722 203.349 809.722 203.95C809.722 204.431 809.529 204.756 808.747 205.573L806.818 207.6V207.963H810.377V207.502H807.536V207.486L808.996 205.962C809.968 204.96 810.237 204.514 810.237 203.924C810.237 203.092 809.541 202.419 808.561 202.419C807.552 202.419 806.799 203.103 806.791 204.037ZM813.87 208.05C814.986 208.05 815.787 207.282 815.787 206.204C815.787 205.161 815.024 204.397 813.984 204.397C813.428 204.397 812.932 204.624 812.656 205.024H812.645L812.86 202.967H815.458V202.506H812.433L812.138 205.565H812.603C812.879 205.093 813.344 204.843 813.9 204.843C814.691 204.843 815.269 205.425 815.269 206.216C815.269 207.017 814.691 207.592 813.878 207.592C813.174 207.592 812.618 207.154 812.546 206.541H812.04C812.108 207.422 812.872 208.05 813.87 208.05ZM819.307 208.05C820.548 208.05 821.281 206.953 821.281 205.229C821.281 203.516 820.544 202.419 819.307 202.419C818.075 202.419 817.329 203.519 817.329 205.232C817.329 206.957 818.067 208.05 819.307 208.05ZM819.307 207.596C818.385 207.596 817.851 206.677 817.851 205.229C817.851 203.807 818.396 202.876 819.307 202.876C820.223 202.876 820.763 203.799 820.763 205.232C820.763 206.677 820.23 207.596 819.307 207.596ZM824.366 206.348L825.444 207.963H826.008L824.646 205.966L826.019 204.03H825.456L824.382 205.607H824.37L823.292 204.03H822.725L824.09 205.985L822.71 207.963H823.27L824.355 206.348H824.366ZM827.58 204.037H828.079C828.087 203.368 828.628 202.873 829.35 202.873C830.038 202.873 830.511 203.349 830.511 203.95C830.511 204.431 830.318 204.756 829.535 205.573L827.607 207.6V207.963H831.165V207.502H828.325V207.486L829.785 205.962C830.757 204.96 831.025 204.514 831.025 203.924C831.025 203.092 830.329 202.419 829.35 202.419C828.34 202.419 827.588 203.103 827.58 204.037ZM834.659 208.05C835.774 208.05 836.576 207.282 836.576 206.204C836.576 205.161 835.812 204.397 834.772 204.397C834.216 204.397 833.721 204.624 833.445 205.024H833.433L833.649 202.967H836.247V202.506H833.222L832.927 205.565H833.392C833.668 205.093 834.133 204.843 834.689 204.843C835.479 204.843 836.058 205.425 836.058 206.216C836.058 207.017 835.479 207.592 834.666 207.592C833.963 207.592 833.407 207.154 833.335 206.541H832.828C832.896 207.422 833.66 208.05 834.659 208.05ZM840.096 208.05C841.336 208.05 842.07 206.953 842.07 205.229C842.07 203.516 841.333 202.419 840.096 202.419C838.863 202.419 838.118 203.519 838.118 205.232C838.118 206.957 838.856 208.05 840.096 208.05ZM840.096 207.596C839.173 207.596 838.64 206.677 838.64 205.229C838.64 203.807 839.185 202.876 840.096 202.876C841.011 202.876 841.552 203.799 841.552 205.232C841.552 206.677 841.019 207.596 840.096 207.596ZM845.609 203.966C844.97 203.966 844.471 204.34 844.255 204.862H844.24V204.03H843.767V209.264H844.266V207.154H844.282C844.49 207.664 844.985 208.027 845.62 208.027C846.607 208.027 847.284 207.222 847.284 205.996C847.284 204.775 846.604 203.966 845.609 203.966ZM845.522 207.585C844.777 207.585 844.266 206.946 844.266 205.996C844.266 205.051 844.777 204.408 845.522 204.408C846.282 204.408 846.774 205.04 846.774 205.996C846.774 206.957 846.282 207.585 845.522 207.585ZM850.146 206.348L851.224 207.963H851.787L850.426 205.966L851.799 204.03H851.235L850.161 205.607H850.15L849.072 204.03H848.505L849.87 205.985L848.49 207.963H849.049L850.135 206.348H850.146Z" fill="white"/>
<circle cx="753.298" cy="52.6946" r="3.136" fill="#707AAA"/>
<circle cx="765.842" cy="52.6946" r="3.136" fill="#707AAA"/>
<circle cx="778.386" cy="52.6946" r="3.136" fill="#707AAA"/>
<g clip-path="url(#clip2)">
<path d="M619.719 100.59C619.162 100.59 618.606 100.61 618.052 100.649C616.383 95.3437 613.247 90.5575 608.97 86.8759C603.221 81.9268 595.776 79.3155 588.16 79.5963C580.696 66.5468 566.741 58.2695 551.802 58.2695C533.036 58.2695 516.431 71.1281 511.446 89.167C500.646 93.9536 493.545 104.706 493.545 116.642C493.545 128.28 500.213 138.394 509.939 143.387V132.403C509.939 125.161 515.849 119.269 523.113 119.269H613.279C620.543 119.269 626.452 125.161 626.452 132.403V145.703C635.93 142.821 642.846 134.026 642.846 123.647C642.846 110.933 632.471 100.59 619.719 100.59Z" fill="url(#paint1_linear)"/>
<path d="M613.278 128.025H523.113C520.687 128.025 518.721 129.986 518.721 132.403V163.325H617.669V132.403C617.669 129.986 615.703 128.025 613.278 128.025ZM556.373 150.499H533.066C530.641 150.499 528.675 148.539 528.675 146.121C528.675 143.703 530.641 141.743 533.066 141.743H556.373C558.798 141.743 560.764 143.703 560.764 146.121C560.764 148.539 558.798 150.499 556.373 150.499ZM584.589 150.457C582.164 150.457 580.198 148.497 580.198 146.079C580.198 143.661 582.164 141.701 584.589 141.701C587.014 141.701 588.98 143.661 588.98 146.079C588.98 148.497 587.014 150.457 584.589 150.457ZM603.325 150.457C600.9 150.457 598.934 148.497 598.934 146.079C598.934 143.661 600.9 141.701 603.325 141.701C605.75 141.701 607.716 143.661 607.716 146.079C607.716 148.497 605.75 150.457 603.325 150.457Z" fill="#313B6C"/>
<path d="M518.721 203.326C518.721 205.744 520.687 207.704 523.113 207.704H613.278C615.703 207.704 617.669 205.744 617.669 203.326V172.08H518.721V203.326ZM603.325 184.355C605.75 184.355 607.716 186.315 607.716 188.733C607.716 191.15 605.75 193.111 603.325 193.111C600.9 193.111 598.934 191.15 598.934 188.733C598.934 186.315 600.9 184.355 603.325 184.355ZM584.589 184.355C587.014 184.355 588.98 186.315 588.98 188.733C588.98 191.15 587.014 193.111 584.589 193.111C582.164 193.111 580.198 191.15 580.198 188.733C580.198 186.315 582.164 184.355 584.589 184.355ZM533.066 184.355H556.373C558.798 184.355 560.764 186.315 560.764 188.733C560.764 191.15 558.798 193.111 556.373 193.111H533.066C530.641 193.111 528.675 191.15 528.675 188.733C528.675 186.315 530.641 184.355 533.066 184.355Z" fill="#313B6C"/>
</g>
<path d="M671 134.475H715.932M715.932 134.475L709.437 128M715.932 134.475L709.437 140.951" stroke="#1AC7ED" stroke-width="2"/>
<path d="M407 135.964H451.932M451.932 135.964L445.437 129.488M451.932 135.964L445.437 142.439" stroke="#1AC7ED" stroke-width="2"/>
<g clip-path="url(#clip3)">
<rect x="116" y="219.488" width="174" height="268" rx="8" transform="rotate(-90 116 219.488)" fill="url(#paint2_linear)"/>
<path d="M311 66.4883L311.977 72.4883L311 78.4883L310.023 72.4883L311 66.4883Z" fill="white"/>
<path d="M305 72.6278L311 71.5115L317 72.6278L311 73.7441L305 72.6278Z" fill="white"/>
<path d="M265.5 93.4883L266.07 96.9883L265.5 100.488L264.93 96.9883L265.5 93.4883Z" fill="white"/>
<path d="M262 97.0697L265.5 96.4185L269 97.0697L265.5 97.7208L262 97.0697Z" fill="white"/>
<path d="M222.5 75.4883L223.07 78.9883L222.5 82.4883L221.93 78.9883L222.5 75.4883Z" fill="white"/>
<path d="M219 79.0697L222.5 78.4185L226 79.0697L222.5 79.7208L219 79.0697Z" fill="white"/>
<path opacity="0.2" d="M132.422 106.475L116.904 78.8007C113.525 72.7737 105.212 71.8742 100.622 77.0387C98.9365 78.9347 98.0303 81.3976 98.0848 83.9338L100.663 203.832C100.85 212.533 107.935 219.488 116.638 219.488H233C234.806 219.488 195.449 154.009 169.754 111.725C165.771 105.171 156.755 103.995 151.207 109.291C145.528 114.711 136.262 113.322 132.422 106.475Z" fill="white"/>
<rect x="116" y="175.488" width="268" height="44" fill="#6F94FF"/>
<g clip-path="url(#clip4)">
<path fill-rule="evenodd" clip-rule="evenodd" d="M302.91 137.929C302.883 138.646 302.697 139.443 301.928 139.682C301.715 140.053 301.875 140.77 301.609 141.088C301.025 141.938 300.122 142.442 299.273 143.133C298.795 143.504 298.37 143.902 298.052 144.38C297.946 144.54 297.733 144.699 297.601 144.832C297.309 145.124 297.096 145.416 296.884 145.761C296.645 146.106 296.379 146.451 296.167 146.769C295.955 147.061 295.583 147.168 295.397 147.486C295.185 147.831 295.026 148.229 294.76 148.575C294.362 149.105 293.884 149.61 293.512 150.141C292.344 151.84 291.415 153.698 290.221 155.45C290.035 155.716 289.796 155.954 289.584 156.22C289.318 156.592 289.159 156.937 288.814 157.308C288.681 157.441 288.628 157.653 288.495 157.786C288.362 157.945 288.097 158.529 287.858 158.875C286.159 161.609 284.248 164.635 282.23 167.316C282.124 167.476 282.018 167.661 281.912 167.794C281.832 167.9 281.673 168.007 281.593 168.113C281.407 168.378 281.328 168.776 281.115 169.042C281.009 169.175 280.744 169.228 280.637 169.36C280.531 169.52 280.584 169.705 280.478 169.838C280.372 169.971 280.107 170.024 280 170.157C279.894 170.316 279.947 170.502 279.841 170.635C279.098 171.484 278.036 172.068 277.346 172.971C280.319 172.493 284.858 172.36 286.902 173.741C290.141 173.634 291.707 175.174 292.371 177.643C292.079 177.802 292.026 178.174 291.893 178.413C291.601 178.917 290.911 179.899 290.327 180.298C290.168 180.404 290.141 180.324 290.008 180.457C290.035 180.43 289.477 180.749 289.371 180.775C287.274 181.2 284.911 179.05 282.947 180.457C278.992 180.749 274.532 181.12 270.258 180.935C269.143 180.882 268.054 180.59 266.966 180.616C266.037 180.643 265.134 181.014 264.311 181.094C262.267 181.253 260.17 180.882 258.843 180.165C258.392 179.926 258.046 179.607 257.595 179.236C257.542 179.209 257.489 178.944 257.436 178.917C257.224 178.811 256.958 178.811 256.666 178.599C256.109 178.227 255.206 177.802 254.622 177.192C253.242 177.032 252.02 176.74 250.852 176.262C249.552 175.705 248.596 174.829 247.109 174.537C246.339 174.378 245.463 174.776 244.773 174.059C243.924 174.776 242.65 175.068 241.959 175.944C240.207 175.997 239.756 177.377 238.057 177.51C239.225 177.643 240.446 177.59 241.8 177.829C243.393 178.121 244.057 178.36 244.933 179.395C245.41 179.952 245.862 180.43 245.862 180.961C245.888 181.758 245.012 182.554 244.614 183.165C243.048 183.51 241.482 183.722 239.756 183.324C238.88 183.908 238.19 183.695 236.783 183.961C236.385 184.041 236.199 184.253 235.854 184.279C235.429 184.306 234.234 184.279 233.518 184.12C232.907 183.987 232.403 183.51 231.792 183.35C231.155 183.165 230.465 183.244 229.456 183.191C229.111 183.165 228.66 183.005 228.368 183.032C227.571 183.085 226.616 183.563 225.713 183.802C221.651 184.89 216.554 185.448 210.847 185.209C209.944 185.155 208.962 184.97 208.033 184.89C206.998 184.81 206.016 184.89 205.06 184.731C203.467 184.465 201.396 183.722 199.883 183.165C199.591 183.058 199.246 183.085 199.113 183.005C198.954 182.926 198.715 182.527 198.476 182.368C197.972 182.023 196.645 181.386 196.273 180.961C196.3 180.988 196.087 180.563 195.954 180.324C195.477 179.501 195.291 177.138 195.795 175.944C195.954 175.572 196.167 175.227 196.432 174.855C196.671 174.51 196.884 174.112 197.069 173.926C197.255 173.714 197.574 173.687 197.839 173.449C198.158 173.183 198.397 172.811 198.768 172.519C198.901 172.413 199.087 172.466 199.246 172.36C200.255 171.643 201.662 170.688 202.857 169.865C203.573 169.36 204.263 168.883 205.06 168.299C205.67 167.847 206.414 167.184 207.104 166.573C207.927 165.856 208.431 165.325 208.989 164.237C209.175 163.839 209.254 163.361 209.467 162.989C209.997 161.98 210.555 161.158 211.192 160.175C211.617 159.512 212.068 158.768 212.599 157.972C212.811 157.653 213.077 157.308 213.369 156.884C213.395 156.83 213.661 156.777 213.687 156.724C213.979 156.061 214.829 155.185 215.413 154.521C217.138 152.583 219.209 150.592 221.519 149.052C221.811 148.867 222.182 148.575 222.607 148.283C222.66 148.256 222.713 147.991 222.766 147.964C224.279 147.274 225.952 146.106 227.624 145.309C228.394 144.938 229.297 144.566 230.12 144.221C232.588 143.133 235.296 142.097 238.269 141.566C239.225 141.38 240.287 141.168 241.243 141.088C242.888 140.956 244.508 141.168 246.101 141.248C246.817 141.274 247.587 141.221 248.304 141.248C252.419 141.487 256.48 142.363 259.878 143.584C261.922 144.327 263.966 144.725 267.072 144.513C267.816 144.46 268.585 144.274 269.408 144.194C270.523 144.088 271.585 144.141 272.541 143.876C274.399 143.371 275.434 141.965 276.602 140.584C277.638 139.363 278.593 137.983 279.735 136.523C278.992 134.585 278.753 132.541 278.646 129.78C278.593 128.612 278.514 127.311 278.646 126.169C278.832 124.444 279.549 123.249 281.301 123.966C281.699 124.125 281.752 124.125 282.071 124.444C282.204 124.577 282.416 124.63 282.549 124.762C282.814 125.028 283.717 125.532 284.115 125.851C285.283 126.807 286.345 128.32 287.566 128.505C288.23 128.612 289.557 128.081 290.539 128.187C291.309 127.337 291.734 125.93 292.424 124.736C292.557 124.524 292.743 124.47 292.902 124.258C293.114 123.993 293.274 123.17 293.831 123.488C294.256 125.001 294.256 126.939 294.468 128.665C295.079 129.09 295.795 129.222 296.512 129.435C297.043 129.594 297.176 129.674 297.601 129.912C298.132 130.231 298.716 130.868 299.167 131.319C299.406 131.558 299.565 132.434 299.804 133.045C300.255 133.762 301.131 134.027 301.848 134.452C302.193 135.142 302.538 135.806 302.883 136.496C303.016 136.735 302.989 136.947 302.989 137.213C302.936 137.478 302.936 137.717 302.91 137.929ZM213.82 178.492C213.395 178.174 212.864 177.855 212.572 177.563C212.519 177.51 212.626 177.324 212.572 177.245C212.546 177.192 212.307 177.138 212.254 177.085C211.829 176.608 211.484 175.891 211.006 175.678C210.582 175.493 209.759 175.44 209.121 175.519C208.272 175.652 207.343 176.236 206.467 176.608C206.175 176.74 205.909 176.634 205.697 176.767C205.538 176.846 205.432 177.112 205.219 177.245C204.768 177.484 204.025 177.484 203.971 178.015C207.237 178.864 211.696 179.368 215.546 179.103C214.723 179.129 214.139 178.731 213.82 178.492Z" fill="#313B6C"/>
<path d="M305.034 134.61C304.344 134.796 303.654 135.035 303.043 135.406C302.459 135.778 301.795 136.282 301.769 137.079C301.822 137.079 301.848 137.079 301.928 137.079C301.955 136.388 302.539 135.858 303.123 135.486C303.733 135.114 304.397 134.875 305.087 134.663C306.468 134.291 307.901 134.132 309.308 134.105C307.848 134.105 306.414 134.238 305.034 134.61Z" fill="#313B6C"/>
<path d="M303.361 136.389C303.069 136.548 302.724 136.707 302.512 136.999C302.193 137.079 301.875 137.158 301.556 137.265C301.583 137.318 301.583 137.318 301.583 137.371C301.875 137.265 302.14 137.185 302.432 137.105C302.379 137.212 302.353 137.318 302.326 137.45C302.379 137.45 302.379 137.45 302.432 137.45C302.432 137.318 302.485 137.185 302.565 137.079C304.158 136.734 305.857 136.92 307.476 137.105C305.883 136.893 304.237 136.681 302.645 136.999C302.831 136.787 303.123 136.601 303.388 136.468C303.839 136.256 304.317 136.123 304.795 135.99C305.751 135.778 306.733 135.698 307.742 135.672C306.759 135.672 305.751 135.752 304.795 135.937C304.291 136.044 303.813 136.176 303.361 136.389Z" fill="#313B6C"/>
<path d="M307.131 132.115C305.299 133.655 303.016 134.531 301.291 136.203C301.317 136.23 301.344 136.256 301.37 136.283C303.069 134.611 305.352 133.708 307.131 132.115Z" fill="#313B6C"/>
</g>
<rect x="193" y="111.488" width="113" height="93" rx="11" stroke="#1AC7ED" stroke-width="2"/>
<rect x="131" y="115.488" width="47" height="83" rx="11" stroke="#1AC7ED" stroke-width="2"/>
<rect x="316" y="133.488" width="54" height="61" rx="11" stroke="#1AC7ED" stroke-width="2"/>
<path d="M239.5 103.488L240.07 106.988L239.5 110.488L238.93 106.988L239.5 103.488Z" fill="white"/>
<path d="M236 107.07L239.5 106.419L243 107.07L239.5 107.721L236 107.07Z" fill="white"/>
<path d="M187.5 85.4883L188.07 87.4883L187.5 89.4883L186.93 87.4883L187.5 85.4883Z" fill="white"/>
<path d="M184 87.5348L187.5 87.1627L191 87.5348L187.5 87.9069L184 87.5348Z" fill="white"/>
<path d="M140 85.4883L140.326 87.4883L140 89.4883L139.674 87.4883L140 85.4883Z" fill="white"/>
<path d="M138 87.5348L140 87.1627L142 87.5348L140 87.9069L138 87.5348Z" fill="white"/>
<path d="M353 112.488L353.326 114.488L353 116.488L352.674 114.488L353 112.488Z" fill="white"/>
<path d="M351 114.535L353 114.163L355 114.535L353 114.907L351 114.535Z" fill="white"/>
<path d="M360 78.4883L360.326 80.4883L360 82.4883L359.674 80.4883L360 78.4883Z" fill="white"/>
<path d="M358 80.5348L360 80.1627L362 80.5348L360 80.9069L358 80.5348Z" fill="white"/>
<path d="M323.738 89.2485C325.056 90.7711 326.683 92.0707 328.586 93.0441C336.511 97.0981 346.222 93.9599 350.275 86.035C354.329 78.11 351.191 68.3992 343.266 64.3453C341.285 63.3317 339.192 62.7677 337.103 62.6157C337.394 62.7419 337.683 62.8782 337.969 63.0245C345.306 66.7778 348.211 75.7683 344.458 83.1055C340.705 90.4427 331.714 93.3481 324.377 89.5948C324.16 89.4839 323.947 89.3683 323.738 89.2485Z" fill="white"/>
<circle cx="154.5" cy="135.988" r="12.5" fill="#F0F4FF"/>
<circle cx="142" cy="159.488" r="9" fill="#F0F4FF"/>
<circle cx="165.5" cy="165.988" r="4.5" fill="#F0F4FF"/>
<rect x="154" y="139.488" width="2" height="49" fill="#F0F4FF"/>
<circle cx="331.892" cy="150.565" r="8.07692" fill="#F0F4FF"/>
<circle cx="323.815" cy="165.749" r="5.81538" fill="#F0F4FF"/>
<circle cx="339" cy="169.951" r="2.90769" fill="#F0F4FF"/>
<rect x="331.569" y="152.826" width="1.29231" height="31.6615" fill="#F0F4FF"/>
<circle cx="357.661" cy="154.604" r="7.11539" fill="#F0F4FF"/>
<circle cx="350.546" cy="167.98" r="5.12308" fill="#F0F4FF"/>
<circle cx="363.923" cy="171.681" r="2.56154" fill="#F0F4FF"/>
<rect x="357.377" y="156.596" width="1.13846" height="27.8923" fill="#F0F4FF"/>
<rect x="314" y="54.4883" width="48" height="48" rx="11" stroke="#1AC7ED" stroke-width="2"/>
<rect opacity="0.5" x="104.5" y="66.9883" width="105" height="114" rx="11.5" stroke="#1AC7ED"/>
</g>
<defs>
<linearGradient id="paint0_linear" x1="758.504" y1="198.141" x2="910.693" y2="313.794" gradientUnits="userSpaceOnUse">
<stop stop-color="#81A0F6"/>
<stop offset="1" stop-color="#ADC1FA"/>
</linearGradient>
<linearGradient id="paint1_linear" x1="529.371" y1="58.2695" x2="582.622" y2="164.701" gradientUnits="userSpaceOnUse">
<stop stop-color="#81A0F6"/>
<stop offset="1" stop-color="#ADC1FA"/>
</linearGradient>
<linearGradient id="paint2_linear" x1="157.753" y1="219.488" x2="354.25" y2="368.814" gradientUnits="userSpaceOnUse">
<stop stop-color="#81A0F6"/>
<stop offset="1" stop-color="#ADC1FA"/>
</linearGradient>
<clipPath id="clip0">
<rect x="776.569" y="77.375" width="105.887" height="105.887" rx="6.19608" fill="white"/>
</clipPath>
<clipPath id="clip1">
<rect width="88.1015" height="47.8647" fill="white" transform="translate(787.763 123.787)"/>
</clipPath>
<clipPath id="clip2">
<rect width="149.886" height="149.434" fill="white" transform="translate(493 58.2695)"/>
</clipPath>
<clipPath id="clip3">
<rect x="116" y="45.4883" width="268" height="174" rx="8" fill="white"/>
</clipPath>
<clipPath id="clip4">
<rect width="113.751" height="61.8" fill="white" transform="translate(195.53 123.488)"/>
</clipPath>
</defs>
</svg>
