<svg width="1137" height="264" viewBox="0 0 1137 264" fill="none" xmlns="http://www.w3.org/2000/svg">
<g clip-path="url(#clip0)">
<g clip-path="url(#clip1)">
<rect width="274.5" height="179.481" transform="translate(96.5 42.2598)" fill="url(#paint0_linear)"/>
<path opacity="0.2" d="M119.344 122.111L107.234 100.017C104.614 95.2381 98.0353 94.5316 94.4609 98.6452C93.1862 100.112 92.5028 102.001 92.5437 103.944L94.5616 199.932C94.7041 206.714 100.227 212.139 107.011 212.139H197.688C199.096 212.139 168.39 159.879 148.366 126.17C145.305 121.017 138.233 120.099 133.944 124.286C129.557 128.571 122.292 127.488 119.344 122.111Z" fill="white"/>
<rect x="96.5004" y="183.908" width="274.5" height="36.9519" fill="#6F94FF"/>
<path d="M208.572 151.249C208.572 145.822 210.431 140.811 213.56 136.76C210.283 133.924 205.966 132.184 201.216 132.184C191.002 132.184 182.721 140.16 182.721 149.997C182.721 149.997 187.072 187.426 201.216 187.426C206.682 187.426 210.681 181.83 213.537 174.97C210.204 164.41 208.857 153.869 208.592 151.6L208.572 151.249Z" fill="#313B6C"/>
<path d="M201.216 130.894C207.404 130.894 212.786 127.578 215.559 122.693C212.791 119.072 211.146 114.61 211.146 109.778C211.146 107.586 211.491 105.47 212.118 103.472C209.226 100.97 205.411 99.4316 201.216 99.4316C192.196 99.4316 184.884 106.476 184.884 115.163C184.884 123.85 192.196 130.894 201.216 130.894Z" fill="#313B6C"/>
<path d="M266.493 132.184C261.743 132.184 257.427 133.924 254.149 136.76C257.28 140.811 259.138 145.822 259.138 151.249L259.117 151.599C258.852 153.87 257.505 164.409 254.173 174.969C257.028 181.829 261.027 187.425 266.493 187.425C280.637 187.425 284.988 149.996 284.988 149.996C284.988 140.16 276.707 132.184 266.493 132.184Z" fill="#313B6C"/>
<path d="M252.152 122.691C254.925 127.576 260.305 130.892 266.495 130.892C275.515 130.892 282.828 123.848 282.828 115.161C282.828 106.474 275.514 99.4297 266.495 99.4297C262.299 99.4297 258.485 100.967 255.593 103.47C256.219 105.469 256.566 107.584 256.566 109.776C256.564 114.608 254.919 119.07 252.152 122.691Z" fill="#313B6C"/>
<path d="M233.854 130.041C221.694 130.041 211.835 139.536 211.835 151.249C211.835 151.249 217.017 195.808 233.854 195.808C250.692 195.808 255.873 151.249 255.873 151.249C255.873 139.536 246.015 130.041 233.854 130.041Z" fill="#313B6C"/>
<path d="M233.855 128.505C244.594 128.505 253.3 120.12 253.3 109.777C253.3 99.4337 244.594 91.0488 233.855 91.0488C223.116 91.0488 214.41 99.4337 214.41 109.777C214.41 120.12 223.116 128.505 233.855 128.505Z" fill="#313B6C"/>
<rect x="209.31" y="87.0293" width="48.2594" height="46.4234" rx="8.57248" stroke="#1AC7ED" stroke-width="1.55863"/>
<ellipse cx="136.51" cy="145.571" rx="9.74146" ry="9.9654" fill="#F0F4FF"/>
<ellipse cx="126.768" cy="164.306" rx="7.01385" ry="7.17509" fill="#F0F4FF"/>
<ellipse cx="145.082" cy="169.488" rx="3.50693" ry="3.58754" fill="#F0F4FF"/>
<rect x="136.12" y="148.361" width="1.55863" height="39.0644" fill="#F0F4FF"/>
<ellipse cx="320.305" cy="157.547" rx="7.90294" ry="6.45912" fill="#F0F4FF"/>
<ellipse cx="312.402" cy="169.692" rx="5.69011" ry="4.65057" fill="#F0F4FF"/>
<ellipse cx="327.259" cy="173.05" rx="2.84506" ry="2.32528" fill="#F0F4FF"/>
<rect x="319.99" y="159.355" width="1.26447" height="25.3198" fill="#F0F4FF"/>
<ellipse cx="345.519" cy="160.776" rx="6.96213" ry="5.69019" fill="#F0F4FF"/>
<ellipse cx="338.557" cy="171.474" rx="5.01273" ry="4.09693" fill="#F0F4FF"/>
<ellipse cx="351.646" cy="174.433" rx="2.50636" ry="2.04846" fill="#F0F4FF"/>
<rect x="345.24" y="162.369" width="1.11394" height="22.3055" fill="#F0F4FF"/>
</g>
<rect x="764" y="41.6719" width="278" height="180.657" fill="#313B6C"/>
<rect x="919.219" y="85.3027" width="32.1907" height="3.83729" fill="#D6DFFC"/>
<rect x="919.22" y="92.6289" width="77.3278" height="1.74422" fill="#D6DFFC"/>
<rect x="919.22" y="96.1172" width="77.3278" height="1.74422" fill="#D6DFFC"/>
<rect x="928.316" y="104.488" width="39.1887" height="3.83729" fill="#D6DFFC"/>
<rect x="928.317" y="111.814" width="58.4332" height="1.74422" fill="#D6DFFC"/>
<rect x="928.317" y="115.303" width="46.5366" height="1.74422" fill="#D6DFFC"/>
<rect x="919.919" y="104.488" width="1.39983" height="16.3957" fill="#53A4FA"/>
<rect x="928.667" y="134.141" width="39.1887" height="3.83729" fill="#D6DFFC"/>
<rect x="928.666" y="141.465" width="58.4332" height="1.74422" fill="#D6DFFC"/>
<rect x="928.666" y="144.953" width="46.5366" height="1.74422" fill="#D6DFFC"/>
<rect x="919.919" y="133.791" width="1.39983" height="16.3957" fill="#29AB99"/>
<rect x="929.016" y="163.795" width="39.1887" height="3.83729" fill="#D6DFFC"/>
<rect x="929.016" y="171.121" width="58.4332" height="1.74422" fill="#D6DFFC"/>
<rect x="929.016" y="174.609" width="46.5366" height="1.74422" fill="#D6DFFC"/>
<rect x="919.919" y="163.096" width="1.39983" height="16.3957" fill="#BF7ADB"/>
<rect x="796.48" y="75.4183" width="93.6783" height="117.254" stroke="#556096" stroke-width="0.684307"/>
<mask id="mask0" mask-type="alpha" maskUnits="userSpaceOnUse" x="796" y="75" width="95" height="119">
<rect x="796.48" y="75.4183" width="93.6783" height="117.254" fill="white" stroke="#556096" stroke-width="0.684307"/>
</mask>
<g mask="url(#mask0)">
<path d="M843.811 136.79C855.021 136.79 864.108 127.73 864.108 116.554C864.108 105.378 855.021 96.3184 843.811 96.3184C832.602 96.3184 823.514 105.378 823.514 116.554C823.514 127.73 832.602 136.79 843.811 136.79Z" fill="#556096"/>
<path d="M873.955 201.514L869.337 155.487C868.82 150.287 864.476 146.371 859.25 146.371H827.84C822.604 146.371 818.26 150.287 817.742 155.477L813.125 201.514C812.983 202.94 813.45 204.347 814.414 205.419C815.368 206.471 816.738 207.078 818.169 207.078H823.72L827.881 248.562C828.398 253.742 832.752 257.668 837.989 257.668H849.101C854.338 257.668 858.681 253.742 859.199 248.562L863.36 207.078H868.911C870.352 207.078 871.712 206.471 872.676 205.419C873.64 204.357 874.107 202.94 873.955 201.514Z" fill="#556096"/>
</g>
<g clip-path="url(#clip2)">
<path d="M621.219 100.101C620.661 100.101 620.106 100.121 619.552 100.161C617.883 94.8555 614.747 90.0692 610.47 86.3876C604.721 81.4385 597.276 78.8272 589.66 79.108C582.195 66.0585 568.241 57.7812 553.302 57.7812C534.536 57.7812 517.931 70.6399 512.946 88.6788C502.146 93.4653 495.045 104.218 495.045 116.154C495.045 127.792 501.713 137.905 511.439 142.899V131.915C511.439 124.673 517.349 118.781 524.613 118.781H614.778C622.043 118.781 627.952 124.673 627.952 131.915V145.214C637.43 142.333 644.346 133.538 644.346 123.159C644.346 110.445 633.971 100.101 621.219 100.101Z" fill="url(#paint1_linear)"/>
<path d="M614.778 127.537H524.612C522.187 127.537 520.221 129.497 520.221 131.915V162.836H619.169V131.915C619.169 129.497 617.203 127.537 614.778 127.537ZM557.873 150.011H534.566C532.141 150.011 530.175 148.05 530.175 145.633C530.175 143.215 532.141 141.255 534.566 141.255H557.873C560.298 141.255 562.264 143.215 562.264 145.633C562.264 148.05 560.298 150.011 557.873 150.011ZM586.089 149.969C583.664 149.969 581.698 148.008 581.698 145.591C581.698 143.173 583.664 141.213 586.089 141.213C588.514 141.213 590.48 143.173 590.48 145.591C590.48 148.008 588.514 149.969 586.089 149.969ZM604.825 149.969C602.4 149.969 600.434 148.008 600.434 145.591C600.434 143.173 602.4 141.213 604.825 141.213C607.25 141.213 609.216 143.173 609.216 145.591C609.216 148.008 607.25 149.969 604.825 149.969Z" fill="#313B6C"/>
<path d="M520.221 202.838C520.221 205.255 522.187 207.215 524.612 207.215H614.778C617.203 207.215 619.169 205.255 619.169 202.838V171.592H520.221V202.838ZM604.825 183.866C607.25 183.866 609.216 185.827 609.216 188.244C609.216 190.662 607.25 192.622 604.825 192.622C602.4 192.622 600.434 190.662 600.434 188.244C600.434 185.827 602.4 183.866 604.825 183.866ZM586.089 183.866C588.514 183.866 590.48 185.827 590.48 188.244C590.48 190.662 588.514 192.622 586.089 192.622C583.664 192.622 581.698 190.662 581.698 188.244C581.698 185.827 583.664 183.866 586.089 183.866ZM534.566 183.866H557.873C560.298 183.866 562.264 185.827 562.264 188.244C562.264 190.662 560.298 192.622 557.873 192.622H534.566C532.141 192.622 530.175 190.662 530.175 188.244C530.175 185.827 532.141 183.866 534.566 183.866Z" fill="#313B6C"/>
</g>
<path d="M661 136.475H705.932M705.932 136.475L699.437 130M705.932 136.475L699.437 142.951" stroke="#1AC7ED" stroke-width="2"/>
<path d="M418.5 135.475H463.432M463.432 135.475L456.937 129M463.432 135.475L456.937 141.951" stroke="#1AC7ED" stroke-width="2"/>
</g>
<defs>
<linearGradient id="paint0_linear" x1="65.8684" y1="4.10146e-06" x2="182.173" y2="208.201" gradientUnits="userSpaceOnUse">
<stop stop-color="#81A0F6"/>
<stop offset="1" stop-color="#ADC1FA"/>
</linearGradient>
<linearGradient id="paint1_linear" x1="530.871" y1="57.7813" x2="584.121" y2="164.212" gradientUnits="userSpaceOnUse">
<stop stop-color="#81A0F6"/>
<stop offset="1" stop-color="#ADC1FA"/>
</linearGradient>
<clipPath id="clip0">
<rect width="946" height="264" fill="white" transform="translate(96)"/>
</clipPath>
<clipPath id="clip1">
<rect width="274.5" height="179.481" fill="white" transform="translate(96.5 42.2598)"/>
</clipPath>
<clipPath id="clip2">
<rect width="149.886" height="149.434" fill="white" transform="translate(494.5 57.7812)"/>
</clipPath>
</defs>
</svg>
