<svg width="272" height="178" viewBox="0 0 272 178" fill="none" xmlns="http://www.w3.org/2000/svg">
<rect y="0.783203" width="271.5" height="176.433" fill="#313B6C"/>
<rect x="40.917" y="48.9355" width="32.4911" height="3.8848" rx="1.9424" fill="#D6DFFC"/>
<rect x="40.9167" y="56.6074" width="147.471" height="1.70487" rx="0.852433" fill="#D6DFFC"/>
<rect x="40.9167" y="59.8838" width="78.0492" height="1.76582" rx="0.88291" fill="#D6DFFC"/>
<rect x="49.3927" y="72.6924" width="39.5544" height="3.8848" rx="1.9424" fill="#D6DFFC"/>
<rect x="49.3928" y="80.1084" width="58.9784" height="1.76582" rx="0.88291" fill="#D6DFFC"/>
<rect x="49.3928" y="83.6406" width="46.9708" height="1.76582" rx="0.88291" fill="#D6DFFC"/>
<rect x="40.9167" y="72.6924" width="1.41266" height="16.5987" rx="0.706328" fill="#53A4FA"/>
<rect x="49.7461" y="100.687" width="39.5544" height="3.8848" rx="1.9424" fill="#D6DFFC"/>
<rect x="49.7458" y="108.104" width="58.9784" height="1.76582" rx="0.88291" fill="#D6DFFC"/>
<rect x="49.7458" y="111.636" width="46.9708" height="1.76582" rx="0.88291" fill="#D6DFFC"/>
<rect x="40.9167" y="100.334" width="1.41266" height="16.5987" rx="0.706328" fill="#29AB99"/>
<rect x="50.0992" y="128.681" width="39.5544" height="3.8848" rx="1.9424" fill="#D6DFFC"/>
<rect x="50.099" y="136.097" width="58.9784" height="1.76582" rx="0.88291" fill="#D6DFFC"/>
<rect x="50.099" y="139.629" width="46.9708" height="1.76582" rx="0.88291" fill="#D6DFFC"/>
<rect x="40.9167" y="127.976" width="1.41266" height="16.5987" rx="0.706328" fill="#BF7ADB"/>
<rect x="160.51" y="72.8037" width="39.5544" height="3.8848" rx="1.9424" fill="#D6DFFC"/>
<rect x="160.51" y="80.2197" width="58.9784" height="1.76582" rx="0.88291" fill="#D6DFFC"/>
<rect x="160.51" y="83.752" width="46.9708" height="1.76582" rx="0.88291" fill="#D6DFFC"/>
<rect x="152.034" y="72.8037" width="1.41266" height="16.5987" rx="0.706328" fill="#53A4FA"/>
<rect x="160.863" y="100.799" width="39.5544" height="3.8848" rx="1.9424" fill="#D6DFFC"/>
<rect x="160.863" y="108.215" width="58.9784" height="1.76582" rx="0.88291" fill="#D6DFFC"/>
<rect x="160.863" y="111.747" width="46.9708" height="1.76582" rx="0.88291" fill="#D6DFFC"/>
<rect x="152.034" y="100.445" width="1.41266" height="16.5987" rx="0.706328" fill="#29AB99"/>
<rect x="161.216" y="128.793" width="39.5544" height="3.8848" rx="1.9424" fill="#D6DFFC"/>
<rect x="161.216" y="136.21" width="58.9784" height="1.76582" rx="0.88291" fill="#D6DFFC"/>
<rect x="161.216" y="139.741" width="46.9708" height="1.76582" rx="0.88291" fill="#D6DFFC"/>
<rect x="152.034" y="128.087" width="1.41266" height="16.5987" rx="0.706328" fill="#BF7ADB"/>
<circle cx="8.72328" cy="10.2416" r="2.67323" fill="#707AAA"/>
<circle cx="19.4161" cy="10.2416" r="2.67323" fill="#707AAA"/>
<circle cx="30.109" cy="10.2416" r="2.67323" fill="#707AAA"/>
</svg>
