<svg width="48" height="48" viewBox="0 0 48 48" fill="none" xmlns="http://www.w3.org/2000/svg">
<rect x="0.5" y="0.5" width="47" height="47" stroke="#E90707" stroke-opacity="0.2"/>
<g clip-path="url(#clip0)">
<path d="M24 27.3333C24.4774 27.3333 25.1488 26.0424 25.2334 24H22.7667C22.8513 26.0424 23.5227 27.3333 24 27.3333Z" fill="#EC1C2A"/>
<path d="M20.2921 23.1667H21.9252C21.9713 22.0317 22.2057 20.9029 22.6127 20.1064C21.3561 20.6097 20.4488 21.7736 20.2921 23.1667Z" fill="#EC1C2A"/>
<path d="M25.3873 20.1064C25.7942 20.903 26.0287 22.0317 26.0748 23.1667H27.7079C27.5512 21.7736 26.6439 20.6097 25.3873 20.1064Z" fill="#EC1C2A"/>
<path d="M24 19.833C23.5227 19.833 22.8513 21.1239 22.7667 23.1663H25.2334C25.1488 21.1239 24.4775 19.833 24 19.833Z" fill="#EC1C2A"/>
<path d="M20.2921 24C20.4488 25.3931 21.3561 26.5569 22.6127 27.0602C22.2057 26.2637 21.9713 25.135 21.9252 24H20.2921Z" fill="#EC1C2A"/>
<path d="M29.8333 16.5H29V15.6379C29 14.5974 28.0185 13.784 26.961 14.0513L18.0716 16.5096C17.1974 16.5601 16.5 17.28 16.5 18.1667V32.3333C16.5 33.2525 17.2475 34 18.1667 34H29.8333C30.7525 34 31.5 33.2525 31.5 32.3333V18.1667C31.5 17.2475 30.7525 16.5 29.8333 16.5ZM27.175 14.8566C27.6613 14.7325 28.1666 15.1264 28.1666 15.6379V16.5H21.233L27.175 14.8566ZM26.0833 31.5H21.5C21.2697 31.5 21.0833 31.3136 21.0833 31.0833C21.0833 30.853 21.2697 30.6667 21.5 30.6667H26.0833C26.3136 30.6667 26.5 30.853 26.5 31.0833C26.5 31.3136 26.3136 31.5 26.0833 31.5ZM27.75 29.8337H19.8334C19.603 29.8337 19.4167 29.6474 19.4167 29.417C19.4167 29.1867 19.603 29.0004 19.8334 29.0004H27.75C27.9803 29.0004 28.1667 29.1867 28.1667 29.417C28.1667 29.6474 27.9803 29.8337 27.75 29.8337ZM24 28.1667C21.4727 28.1667 19.4167 26.1106 19.4167 23.5833C19.4167 21.0561 21.4727 19 24 19C26.5272 19 28.5833 21.0561 28.5833 23.5833C28.5833 26.1106 26.5272 28.1667 24 28.1667Z" fill="#EC1C2A"/>
<path d="M25.3873 27.0602C26.6439 26.5569 27.5512 25.393 27.7079 24H26.0748C26.0287 25.135 25.7942 26.2637 25.3873 27.0602Z" fill="#EC1C2A"/>
</g>
<defs>
<clipPath id="clip0">
<rect width="20" height="20" fill="white" transform="translate(14 14)"/>
</clipPath>
</defs>
</svg>
