<svg width="48" height="48" viewBox="0 0 48 48" fill="none" xmlns="http://www.w3.org/2000/svg">
<rect x="0.5" y="0.5" width="47" height="47" stroke="#E90707" stroke-opacity="0.2"/>
<path d="M30.6667 14.833H27.3334V17.333C27.3334 17.7932 26.9603 18.1663 26.5 18.1663H21.5C21.0398 18.1663 20.6667 17.7932 20.6667 17.333V14.833H17.3333C16.8731 14.833 16.5 15.2061 16.5 15.6664V33.1664C16.5 33.6266 16.8731 33.9997 17.3333 33.9997H26.5V30.6664C26.5 29.7459 27.2462 28.9997 28.1667 28.9997H31.5V15.6664C31.5 15.2061 31.1269 14.833 30.6667 14.833ZM19 25.6664H22.3333V27.333H19V25.6664ZM24.8333 30.6664H19V28.9997H24.8333V30.6664ZM26.5 22.333C25.8422 23.3252 24.9921 24.1752 24 24.833C23.0079 24.1752 22.1578 23.3252 21.5 22.333C20.6667 20.6663 22.3333 18.9997 24 20.6663C25.6667 18.9997 27.3333 20.6664 26.5 22.333Z" fill="#EC1C2A"/>
<path d="M27.3333 30.6664V33.9997L31.4999 29.833H28.1666C27.7064 29.833 27.3333 30.2061 27.3333 30.6664Z" fill="#EC1C2A"/>
<path d="M25.6666 14H22.3333V14.8333H25.6666V14Z" fill="#EC1C2A"/>
<path d="M24.0001 17.3336C24.4603 17.3336 24.8334 16.9605 24.8334 16.5003C24.8334 16.0401 24.4603 15.667 24.0001 15.667C23.5398 15.667 23.1667 16.0401 23.1667 16.5003C23.1667 16.9605 23.5398 17.3336 24.0001 17.3336Z" fill="#EC1C2A"/>
</svg>
