<svg width="48" height="48" viewBox="0 0 48 48" fill="none" xmlns="http://www.w3.org/2000/svg">
<rect x="0.5" y="0.5" width="47" height="47" stroke="#E90707" stroke-opacity="0.2"/>
<path d="M32.7059 29.5996C32.7059 29.5988 32.7058 29.5981 32.7058 29.5972V16.0649C32.7334 14.98 31.8762 14.078 30.7912 14.0504C30.7661 14.0498 30.7409 14.0496 30.7158 14.05H18.5267C18.86 14.4846 19.0354 15.0198 19.0242 15.5674V29.5972C19.0641 30.237 19.6022 30.7312 20.2432 30.7166H25.3427V28.5773C24.6427 27.8782 24.249 26.9297 24.2481 25.9404C24.2294 23.8385 25.9182 22.1195 28.0201 22.1007C30.122 22.082 31.841 23.7708 31.8597 25.8727C31.8687 26.8838 31.475 27.8569 30.7655 28.5773V30.7166H31.686C32.2761 30.6899 32.7327 30.1897 32.7059 29.5996ZM21.4621 17.0351H25.8153C26.0214 17.0351 26.1885 17.2022 26.1885 17.4082C26.1885 17.6143 26.0214 17.7814 25.8153 17.7814H21.4621C21.256 17.7814 21.0889 17.6143 21.0889 17.4082C21.0889 17.2022 21.256 17.0351 21.4621 17.0351ZM30.2929 20.2689H21.4621C21.256 20.2689 21.0889 20.1018 21.0889 19.8958C21.0889 19.6897 21.256 19.5226 21.4621 19.5226H30.2929C30.499 19.5226 30.666 19.6897 30.666 19.8958C30.666 20.1019 30.499 20.2689 30.2929 20.2689Z" fill="#EC1C2A"/>
<path d="M17.059 14.0498H16.7854V14C15.9547 14.0519 15.3042 14.735 15.2928 15.5672V23.5274C15.2928 24.1493 15.7406 24.7463 16.3376 24.7463H18.2779V15.5672C18.2779 14.796 17.8053 14.2985 17.059 14.0498Z" fill="#EC1C2A"/>
<path d="M28.054 28.9749C29.7438 28.9749 31.1137 27.605 31.1137 25.9152C31.1137 24.2253 29.7438 22.8555 28.054 22.8555C26.3641 22.8555 24.9943 24.2253 24.9943 25.9152C24.9943 27.605 26.3641 28.9749 28.054 28.9749Z" fill="#EC1C2A"/>
<path d="M26.0641 29.1494L26.1138 34.0002L27.8054 32.7315C27.9482 32.6352 28.1352 32.6352 28.2781 32.7315L29.9696 34.0002V29.1743C29.3847 29.5301 28.7138 29.7194 28.0293 29.7216C27.3323 29.7275 26.6489 29.5286 26.0641 29.1494Z" fill="#EC1C2A"/>
</svg>
