<svg width="32" height="32" viewBox="0 0 32 32" fill="none" xmlns="http://www.w3.org/2000/svg">
<rect width="32" height="32" rx="12" fill="#EC1C2A"/>
<path d="M5.86621 20H11.4824C14.1895 20 15.8682 18.6113 15.8682 16.3877V16.3701C15.8682 14.709 14.5938 13.4609 12.8271 13.3291V13.2764C14.2246 13.0918 15.2793 11.9053 15.2793 10.5166V10.499C15.2793 8.54785 13.7764 7.31738 11.3857 7.31738H5.86621V20ZM10.7002 9.28613C11.9395 9.28613 12.6689 9.86621 12.6689 10.877V10.8945C12.6689 11.9932 11.8691 12.6172 10.375 12.6172H8.52051V9.28613H10.7002ZM10.6914 14.4189C12.3174 14.4189 13.1611 15.043 13.1611 16.2031V16.2207C13.1611 17.3984 12.3262 18.0225 10.8057 18.0225H8.52051V14.4189H10.6914ZM17.2217 20H26.4414V17.8906H20.6934V17.7852L23.3477 15.3594C25.5361 13.3467 26.2656 12.3447 26.2656 10.8066V10.7891C26.2656 8.62695 24.4199 7.09766 21.7393 7.09766C19.0586 7.09766 17.0723 8.77637 17.0723 11.167V11.2373H19.5332L19.542 11.1582C19.5771 10.0156 20.4561 9.16309 21.7568 9.16309C22.8818 9.16309 23.6729 9.90137 23.6816 10.9385V10.9561C23.6816 11.835 23.3389 12.459 21.7041 13.9883L17.2217 18.1807V20Z" fill="white"/>
</svg>
