<svg width="32" height="32" viewBox="0 0 32 32" fill="none" xmlns="http://www.w3.org/2000/svg">
<rect width="32" height="32" rx="12" fill="#EC1C2A"/>
<path d="M5.62891 20H11.2451C13.9521 20 15.6309 18.6113 15.6309 16.3877V16.3701C15.6309 14.709 14.3564 13.4609 12.5898 13.3291V13.2764C13.9873 13.0918 15.042 11.9053 15.042 10.5166V10.499C15.042 8.54785 13.5391 7.31738 11.1484 7.31738H5.62891V20ZM10.4629 9.28613C11.7021 9.28613 12.4316 9.86621 12.4316 10.877V10.8945C12.4316 11.9932 11.6318 12.6172 10.1377 12.6172H8.2832V9.28613H10.4629ZM10.4541 14.4189C12.0801 14.4189 12.9238 15.043 12.9238 16.2031V16.2207C12.9238 17.3984 12.0889 18.0225 10.5684 18.0225H8.2832V14.4189H10.4541ZM21.7041 20.2197C24.666 20.2197 26.6348 18.6904 26.6348 16.4229V16.4053C26.6348 14.6826 25.4043 13.5928 23.5234 13.417V13.3643C25.0088 13.0566 26.1689 12.0283 26.1689 10.4463V10.4287C26.1689 8.43359 24.4111 7.09766 21.6777 7.09766C19.0146 7.09766 17.2305 8.53906 17.0547 10.7363L17.0459 10.8418H19.4805L19.4893 10.7627C19.5947 9.77832 20.4385 9.13672 21.6777 9.13672C22.9258 9.13672 23.6553 9.75195 23.6553 10.7803V10.7979C23.6553 11.8262 22.7939 12.5293 21.4668 12.5293H20.0518V14.4189H21.502C23.0312 14.4189 23.9365 15.0869 23.9365 16.2998V16.3174C23.9365 17.3545 23.0576 18.084 21.6953 18.084C20.3242 18.084 19.4277 17.4072 19.3135 16.502L19.2959 16.4053H16.7646L16.7734 16.5195C16.9492 18.708 18.8301 20.2197 21.7041 20.2197Z" fill="white"/>
</svg>
