<svg width="32" height="32" viewBox="0 0 32 32" fill="none" xmlns="http://www.w3.org/2000/svg">
<rect width="32" height="32" rx="12" fill="#EC1C2A"/>
<path d="M6.97363 20H12.5898C15.2969 20 16.9756 18.6113 16.9756 16.3877V16.3701C16.9756 14.709 15.7012 13.4609 13.9346 13.3291V13.2764C15.332 13.0918 16.3867 11.9053 16.3867 10.5166V10.499C16.3867 8.54785 14.8838 7.31738 12.4932 7.31738H6.97363V20ZM11.8076 9.28613C13.0469 9.28613 13.7764 9.86621 13.7764 10.877V10.8945C13.7764 11.9932 12.9766 12.6172 11.4824 12.6172H9.62793V9.28613H11.8076ZM11.7988 14.4189C13.4248 14.4189 14.2686 15.043 14.2686 16.2031V16.2207C14.2686 17.3984 13.4336 18.0225 11.9131 18.0225H9.62793V14.4189H11.7988ZM21.502 20H24.1299V7.31738H21.4932L18.2148 9.59375V11.9492L21.4492 9.75195H21.502V20Z" fill="white"/>
</svg>
