<svg width="21" height="20" viewBox="0 0 21 20" fill="none" xmlns="http://www.w3.org/2000/svg">
<path fill-rule="evenodd" clip-rule="evenodd" d="M1.5 1.75781V3.51562H2.1H2.7V2.34375V1.17188H3.9H5.1V0.585938V0H3.3H1.5V1.75781ZM15.9 0.585938V1.17188H17.1H18.3V2.34375V3.51562H18.9H19.5V1.75781V0H17.7H15.9V0.585938ZM5.1 7.07031V11.7578H3.3H1.5V12.3438V12.9297H10.5H19.5V12.3438V11.7578H17.7H15.9V9.41406V7.07031H13.5H11.1V4.72656V2.38281H8.1H5.1V7.07031ZM12.3 4.33594V5.89844H13.9098H15.5196L13.92 4.33594C13.0402 3.47656 12.3158 2.77344 12.3102 2.77344C12.3046 2.77344 12.3 3.47656 12.3 4.33594ZM9.9 7.65625V8.24219H8.7H7.5V7.65625V7.07031H8.7H9.9V7.65625ZM13.5 10V10.5859H10.5H7.5V10V9.41406H10.5H13.5V10ZM5.1 15.8594V17.6172H10.5H15.9V15.8594V14.1016H10.5H5.1V15.8594ZM13.5 15.8594V16.4453H10.5H7.5V15.8594V15.2734H10.5H13.5V15.8594ZM1.5 18.2422V20H3.3H5.1V19.4141V18.8281H3.9H2.7V17.6562V16.4844H2.1H1.5V18.2422ZM18.3 17.6562V18.8281H17.1H15.9V19.4141V20H17.7H19.5V18.2422V16.4844H18.9H18.3V17.6562Z" fill="white"/>
</svg>
