<svg width="21" height="20" viewBox="0 0 21 20" fill="none" xmlns="http://www.w3.org/2000/svg">
<g clip-path="url(#clip0_3162:366)">
<path d="M8.00065 9.16682C8.92112 9.16682 9.66731 8.42063 9.66731 7.50016C9.66731 6.57969 8.92112 5.8335 8.00065 5.8335C7.08017 5.8335 6.33398 6.57969 6.33398 7.50016C6.33398 8.42063 7.08017 9.16682 8.00065 9.16682Z" fill="white"/>
<path d="M19.6667 15.8333H18V5C18 3.62167 16.8783 2.5 15.5 2.5H4.66667V0.833333C4.66667 0.373333 4.29417 0 3.83333 0C3.3725 0 3 0.373333 3 0.833333V2.5H1.33333C0.8725 2.5 0.5 2.87333 0.5 3.33333C0.5 3.79333 0.8725 4.16667 1.33333 4.16667H3V15C3 16.3783 4.12167 17.5 5.5 17.5H16.3333V19.1667C16.3333 19.6267 16.7058 20 17.1667 20C17.6275 20 18 19.6267 18 19.1667V17.5H19.6667C20.1275 17.5 20.5 17.1267 20.5 16.6667C20.5 16.2067 20.1275 15.8333 19.6667 15.8333ZM15.5 4.16667C15.96 4.16667 16.3333 4.54083 16.3333 5V10.7833L14.45 8.9C13.9 8.34917 12.9333 8.34917 12.3833 8.9L8.41667 12.8667L7.36667 11.8167C6.81667 11.2658 5.85 11.2658 5.3 11.8167L4.66667 12.4492V4.16667H15.5Z" fill="white"/>
</g>
<defs>
<clipPath id="clip0_3162:366">
<rect width="20" height="20" fill="white" transform="translate(0.5)"/>
</clipPath>
</defs>
</svg>
