<svg width="21" height="20" viewBox="0 0 21 20" fill="none" xmlns="http://www.w3.org/2000/svg">
<g clip-path="url(#clip0_3162:327)">
<path fill-rule="evenodd" clip-rule="evenodd" d="M9.29134 17.5H14.7288C15.0738 17.5 15.3538 17.22 15.3538 16.875V13.8708C15.3538 13.015 15.618 12.1908 16.1172 11.4883C16.5311 10.9051 16.8273 10.2613 16.9972 9.58337H20.0827C20.4277 9.58337 20.7077 9.30337 20.7077 8.95837C20.7077 8.61337 20.4277 8.33337 20.0827 8.33337H17.1649C17.1659 8.2912 17.1663 8.24896 17.1663 8.20667C17.1663 5.06 14.5813 2.5 11.4055 2.5C8.22967 2.5 5.64551 5.06 5.64551 8.20833C5.64562 8.25015 5.64409 8.29186 5.64093 8.33337H0.916016C0.571016 8.33337 0.291016 8.61337 0.291016 8.95837C0.291016 9.30337 0.571016 9.58337 0.916016 9.58337H5.06951L3.97717 11.2992C3.88301 11.4492 3.83301 11.62 3.83301 11.7933C3.83301 12.3033 4.24884 12.7175 4.75967 12.7175H5.64551V14.185C5.64551 15.0242 6.33301 15.7067 7.17717 15.7067C7.34384 15.7067 7.50217 15.6817 7.62301 15.6383L8.66634 15.325V16.875C8.66634 17.22 8.94634 17.5 9.29134 17.5ZM5.06951 9.58337H16.9972C17.0991 9.17706 17.1556 8.75849 17.1649 8.33337H5.64093C5.62085 8.59714 5.53523 8.85308 5.39051 9.07917L5.06951 9.58337Z" fill="white"/>
<path d="M1.125 5.41667C0.78 5.41667 0.5 5.13667 0.5 4.79167V2.29167C0.5 1.0275 1.5275 0 2.79167 0H5.29167C5.63667 0 5.91667 0.28 5.91667 0.625C5.91667 0.97 5.63667 1.25 5.29167 1.25H2.79167C2.2175 1.25 1.75 1.7175 1.75 2.29167V4.79167C1.75 5.13667 1.47 5.41667 1.125 5.41667Z" fill="white"/>
<path d="M5.29167 20.0001H2.79167C1.5275 20.0001 0.5 18.9727 0.5 17.7085V15.2085C0.5 14.8635 0.78 14.5835 1.125 14.5835C1.47 14.5835 1.75 14.8635 1.75 15.2085V17.7085C1.75 18.2827 2.2175 18.7502 2.79167 18.7502H5.29167C5.63667 18.7502 5.91667 19.0302 5.91667 19.3751C5.91667 19.7201 5.63667 20.0001 5.29167 20.0001Z" fill="white"/>
<path d="M19.8756 5.41667C19.5306 5.41667 19.2506 5.13667 19.2506 4.79167V2.29167C19.2506 1.7175 18.7831 1.25 18.209 1.25H15.709C15.364 1.25 15.084 0.97 15.084 0.625C15.084 0.28 15.364 0 15.709 0H18.209C19.4731 0 20.5006 1.0275 20.5006 2.29167V4.79167C20.5006 5.13667 20.2206 5.41667 19.8756 5.41667Z" fill="white"/>
<path d="M18.209 20.0001H15.709C15.364 20.0001 15.084 19.7201 15.084 19.3751C15.084 19.0302 15.364 18.7502 15.709 18.7502H18.209C18.7831 18.7502 19.2506 18.2827 19.2506 17.7085V15.2085C19.2506 14.8635 19.5306 14.5835 19.8756 14.5835C20.2206 14.5835 20.5006 14.8635 20.5006 15.2085V17.7085C20.5006 18.9727 19.4731 20.0001 18.209 20.0001Z" fill="white"/>
</g>
<defs>
<clipPath id="clip0_3162:327">
<rect width="20" height="20" fill="white" transform="translate(0.5)"/>
</clipPath>
</defs>
</svg>
