<svg width="25" height="24" viewBox="0 0 25 24" fill="none" xmlns="http://www.w3.org/2000/svg">
<path d="M12.7595 4.74757C12.6897 4.68081 12.5968 4.64355 12.5002 4.64355C12.4037 4.64355 12.3108 4.68081 12.241 4.74757L3.61133 12.9915C3.57468 13.0265 3.54552 13.0687 3.52562 13.1153C3.50572 13.162 3.49549 13.2122 3.49555 13.2629L3.49414 21.0001C3.49414 21.3979 3.65218 21.7794 3.93348 22.0607C4.21478 22.342 4.59632 22.5001 4.99414 22.5001H9.49883C9.69774 22.5001 9.88851 22.4211 10.0292 22.2804C10.1698 22.1398 10.2488 21.949 10.2488 21.7501V15.3751C10.2488 15.2756 10.2883 15.1802 10.3587 15.1099C10.429 15.0396 10.5244 15.0001 10.6238 15.0001H14.3738C14.4733 15.0001 14.5687 15.0396 14.639 15.1099C14.7093 15.1802 14.7488 15.2756 14.7488 15.3751V21.7501C14.7488 21.949 14.8278 22.1398 14.9685 22.2804C15.1092 22.4211 15.2999 22.5001 15.4988 22.5001H20.0016C20.3995 22.5001 20.781 22.342 21.0623 22.0607C21.3436 21.7794 21.5016 21.3979 21.5016 21.0001V13.2629C21.5017 13.2122 21.4915 13.162 21.4716 13.1153C21.4517 13.0687 21.4225 13.0265 21.3859 12.9915L12.7595 4.74757Z" fill="white"/>
<path d="M23.5114 11.4445L20.0052 8.09016V3C20.0052 2.80109 19.9262 2.61032 19.7855 2.46967C19.6448 2.32902 19.4541 2.25 19.2552 2.25H17.0052C16.8063 2.25 16.6155 2.32902 16.4748 2.46967C16.3342 2.61032 16.2552 2.80109 16.2552 3V4.5L13.5402 1.90406C13.2861 1.64719 12.9083 1.5 12.5 1.5C12.0931 1.5 11.7163 1.64719 11.4622 1.90453L1.49189 11.4436C1.20033 11.7249 1.16377 12.1875 1.42908 12.4922C1.4957 12.5691 1.57728 12.6317 1.66885 12.676C1.76041 12.7204 1.86005 12.7457 1.96169 12.7503C2.06334 12.755 2.16487 12.7389 2.2601 12.7031C2.35533 12.6672 2.44228 12.6124 2.51564 12.5419L12.2422 3.2475C12.312 3.18074 12.4048 3.14348 12.5014 3.14348C12.598 3.14348 12.6909 3.18074 12.7606 3.2475L22.4881 12.5419C22.6314 12.6793 22.8234 12.7543 23.0219 12.7504C23.2204 12.7466 23.4092 12.6642 23.547 12.5213C23.8349 12.2231 23.811 11.731 23.5114 11.4445Z" fill="white"/>
</svg>
