<svg width="21" height="20" viewBox="0 0 21 20" fill="none" xmlns="http://www.w3.org/2000/svg">
<g clip-path="url(#clip0_3162:341)">
<path d="M10.5034 1.64062C6.45193 1.64062 3.15625 4.96896 3.15625 9.02039C3.15625 10.3317 3.50052 11.583 4.13586 12.6833V11.9592C4.13586 6.60796 8.50896 6.57171 10.2044 6.57148C11.4604 6.57148 12.4861 5.71605 12.7802 4.62936L13.0579 2.14947C12.2482 1.84726 11.3908 1.64062 10.5034 1.64062Z" fill="white"/>
<path d="M17.851 9.0204C17.851 6.59481 16.6614 4.33471 14.6692 2.97337L13.9971 2.51465L13.7753 4.51411C13.743 4.80499 13.667 5.09479 13.5508 5.36422L13.9316 5.60847C15.7722 6.78707 16.8714 8.79512 16.8714 10.9796V12.6833C17.5067 11.583 17.851 10.3317 17.851 9.0204Z" fill="white"/>
<path d="M12.9523 10.4897C12.4122 10.4897 11.9727 10.9293 11.9727 11.4694C11.9727 12.0094 12.4122 12.449 12.9523 12.449C13.4923 12.449 13.9319 12.0094 13.9319 11.4694C13.9319 10.9293 13.4923 10.4897 12.9523 10.4897Z" fill="white"/>
<path d="M8.05383 10.4897C7.5138 10.4897 7.07422 10.9293 7.07422 11.4694C7.07422 12.0094 7.5138 12.449 8.05383 12.449C8.59386 12.449 9.03345 12.0094 9.03345 11.4694C9.03345 10.9293 8.59386 10.4897 8.05383 10.4897Z" fill="white"/>
<path d="M13.4022 6.43308L13.0703 6.22021L12.7919 6.49908C12.1237 7.1678 11.1933 7.55092 10.2386 7.55092C8.57546 7.55092 5.11523 7.55092 5.11523 11.9592V12.9715C5.11523 13.3584 5.15207 13.7234 5.22286 14.0482C5.727 16.546 7.9474 18.3593 10.5031 18.3593C13.0588 18.3593 15.2792 16.546 15.7815 14.0553C15.8542 13.7234 15.891 13.3584 15.891 12.9715V10.9796C15.891 9.13035 14.9607 7.43085 13.4022 6.43308ZM6.09485 11.4694C6.09485 10.3888 6.97353 9.51015 8.05408 9.51015C9.13462 9.51015 10.0133 10.3888 10.0133 11.4694C10.0133 12.5499 9.13462 13.4286 8.05408 13.4286C6.97353 13.4286 6.09485 12.5499 6.09485 11.4694ZM10.5031 16.4001C9.63302 16.4001 8.82082 15.9314 8.38267 15.1765L9.23027 14.6848C9.49336 15.1388 9.98127 15.4205 10.5031 15.4205C11.025 15.4205 11.5129 15.1388 11.7759 14.6848L12.6235 15.1766C12.1854 15.9314 11.3732 16.4001 10.5031 16.4001ZM12.9521 13.4286C11.8716 13.4286 10.9929 12.5499 10.9929 11.4694C10.9929 10.3888 11.8716 9.51015 12.9521 9.51015C14.0327 9.51015 14.9114 10.3888 14.9114 11.4694C14.9114 12.5499 14.0327 13.4286 12.9521 13.4286Z" fill="white"/>
<path d="M0.5 4.60938V0H5.10938" stroke="white" stroke-width="1.5"/>
<path d="M20.5 4.60938V0H15.8906" stroke="white" stroke-width="1.5"/>
<path d="M0.5 15.3906V20H5.10938" stroke="white" stroke-width="1.5"/>
<path d="M20.5 15.3906V20H15.8906" stroke="white" stroke-width="1.5"/>
</g>
<defs>
<clipPath id="clip0_3162:341">
<rect width="20" height="20" fill="white" transform="translate(0.5)"/>
</clipPath>
</defs>
</svg>
