<?xml version="1.0" standalone="no"?>
<!DOCTYPE svg PUBLIC "-//W3C//DTD SVG 20010904//EN"
 "http://www.w3.org/TR/2001/REC-SVG-20010904/DTD/svg10.dtd">
<svg version="1.0" xmlns="http://www.w3.org/2000/svg"
 width="477.000000pt" height="80.000000pt" viewBox="0 0 477.000000 80.000000"
 preserveAspectRatio="xMidYMid meet">

<g transform="translate(0.000000,80.000000) scale(0.100000,-0.100000)"
fill="#000000" stroke="none">
<path d="M0 480 l0 -320 94 0 c52 0 101 -3 109 -6 11 -4 13 1 9 21 -4 25 -58
75 -79 75 -15 0 -34 26 -26 34 11 11 12 65 2 72 -12 7 12 43 26 38 6 -3 25 8
43 24 25 23 32 37 32 66 l0 36 -40 -20 c-53 -27 -51 -17 3 14 l42 25 -3 130
-3 131 -105 0 -104 0 0 -320z m135 238 c5 4 5 -1 2 -11 -4 -10 -7 -22 -7 -25
0 -4 -11 -8 -24 -8 -17 -1 -23 2 -19 12 3 8 0 14 -6 14 -6 0 -11 5 -11 11 0 5
5 7 10 4 6 -3 13 1 17 11 6 15 7 15 18 1 7 -9 16 -13 20 -9z"/>
<path d="M277 744 c-4 -4 -7 -18 -7 -31 0 -28 23 -27 28 1 4 20 -11 40 -21 30z"/>
<path d="M398 742 c-40 -5 -38 -38 2 -44 17 -3 33 -1 36 4 3 5 12 4 19 -2 8
-7 15 -7 19 -1 3 5 0 12 -6 14 -10 4 -10 8 1 15 8 6 9 12 3 16 -6 3 -14 2 -17
-4 -4 -6 -12 -7 -18 -3 -7 5 -24 7 -39 5z"/>
<path d="M313 720 c-1 -13 4 -20 16 -20 10 0 21 9 24 20 3 11 1 20 -3 20 -5 0
-11 -8 -13 -17 -4 -17 -5 -17 -6 0 -1 24 -16 22 -18 -3z"/>
<path d="M370 645 c0 -13 20 -35 32 -35 4 0 8 5 8 11 0 5 -4 8 -9 4 -6 -3 -14
3 -20 12 -6 10 -11 13 -11 8z"/>
<path d="M4696 603 c-3 -4 -6 -15 -6 -25 0 -24 33 -21 38 3 3 17 -21 33 -32
22z"/>
<path d="M4213 584 c-4 -10 -2 -19 5 -22 15 -5 16 -38 2 -47 -5 -3 -10 -13
-10 -22 0 -12 11 -14 54 -11 30 1 52 0 50 -3 -6 -11 8 -69 16 -64 3 2 6 19 6
37 -2 32 -1 33 43 35 24 1 48 6 54 12 8 8 7 11 -2 11 -10 0 -12 11 -7 44 l7
44 -106 1 c-92 2 -106 0 -112 -15z"/>
<path d="M4610 580 c0 -16 7 -20 35 -20 28 0 35 4 35 20 0 25 -27 27 -33 3 -4
-17 -5 -17 -6 0 -1 24 -31 22 -31 -3z"/>
<path d="M1075 580 c3 -5 13 -10 21 -10 8 0 12 5 9 10 -3 6 -13 10 -21 10 -8
0 -12 -4 -9 -10z"/>
<path d="M2475 580 c-3 -5 1 -10 9 -10 8 0 18 5 21 10 3 6 -1 10 -9 10 -8 0
-18 -4 -21 -10z"/>
<path d="M3595 580 c3 -5 10 -10 16 -10 5 0 9 5 9 10 0 6 -7 10 -16 10 -8 0
-12 -4 -9 -10z"/>
<path d="M3916 581 c-3 -5 5 -8 19 -8 14 0 22 3 19 8 -3 5 -11 9 -19 9 -8 0
-16 -4 -19 -9z"/>
<path d="M1010 572 c0 -5 -9 -12 -20 -15 -17 -4 -20 -14 -20 -55 0 -33 -5 -52
-14 -55 -23 -9 -36 15 -36 66 0 56 -23 62 -28 7 -8 -77 33 -119 83 -86 20 13
25 25 25 58 0 24 7 49 16 59 10 11 12 19 5 24 -6 3 -11 2 -11 -3z"/>
<path d="M1150 560 c0 -7 -13 -8 -34 -4 -29 5 -39 2 -60 -20 -28 -27 -32 -46
-16 -76 17 -32 48 -43 81 -30 32 14 45 45 35 85 -4 14 -2 25 4 25 5 0 10 7 10
15 0 8 -4 15 -10 15 -5 0 -10 -5 -10 -10z m-32 -32 c19 -19 15 -66 -7 -78 -37
-19 -63 28 -41 71 12 22 30 25 48 7z"/>
<path d="M655 549 c-4 -6 2 -13 14 -16 18 -4 21 -13 21 -54 0 -37 4 -49 15
-49 11 0 15 12 15 49 0 41 3 50 21 54 35 9 11 27 -36 27 -24 0 -47 -5 -50 -11z"/>
<path d="M780 495 c0 -37 4 -65 10 -65 6 0 10 11 10 25 0 15 6 25 15 25 8 0
17 -11 21 -25 3 -14 12 -25 20 -25 17 0 18 14 3 43 -9 16 -9 22 0 25 18 6 13
40 -8 52 -11 5 -31 10 -45 10 -25 0 -26 -2 -26 -65z m58 22 c2 -12 -3 -17 -17
-17 -15 0 -21 6 -21 21 0 25 33 22 38 -4z"/>
<path d="M1187 553 c-4 -3 -7 -33 -7 -65 0 -44 4 -58 14 -58 10 0 16 14 18 43
l3 42 21 -40 c12 -22 28 -41 37 -43 14 -3 17 6 17 62 0 76 -17 90 -22 19 l-3
-48 -23 48 c-22 44 -39 56 -55 40z"/>
<path d="M1350 547 c-19 -10 -26 -21 -28 -53 -3 -45 9 -61 48 -65 53 -5 60 -1
60 36 0 31 -3 35 -25 35 -27 0 -34 -15 -10 -24 24 -9 17 -26 -10 -26 -31 0
-50 32 -35 59 10 20 39 34 58 29 5 -2 11 2 11 7 2 15 -41 17 -69 2z"/>
<path d="M1498 523 c-3 -21 -2 -51 2 -68 6 -28 9 -30 46 -28 42 3 74 30 74 65
0 31 -45 68 -83 68 -33 0 -35 -2 -39 -37z m76 1 c22 -22 20 -50 -6 -68 -12 -9
-26 -16 -30 -16 -15 0 -8 33 10 46 16 13 16 13 0 14 -11 0 -18 8 -18 20 0 24
22 26 44 4z"/>
<path d="M1666 548 c-2 -7 -11 -35 -20 -62 -19 -60 -19 -56 -2 -56 8 0 16 7
20 15 3 8 15 15 26 15 11 0 20 -7 20 -15 0 -8 9 -15 19 -15 18 0 18 2 -3 62
-14 41 -27 64 -39 66 -9 2 -19 -2 -21 -10z m34 -55 c0 -7 -7 -13 -16 -13 -11
0 -14 5 -10 16 3 9 6 21 6 27 0 16 20 -14 20 -30z"/>
<path d="M1770 496 c0 -53 3 -66 15 -66 13 0 15 11 13 62 -2 38 -8 63 -15 66
-10 3 -13 -14 -13 -62z"/>
<path d="M1870 495 c0 -37 4 -65 10 -65 6 0 10 11 10 25 0 21 5 25 30 25 25 0
30 -4 30 -25 0 -14 6 -25 13 -25 8 0 12 18 11 62 -2 63 -20 92 -26 41 -2 -22
-8 -28 -28 -28 -20 0 -26 6 -28 28 -6 53 -22 26 -22 -38z"/>
<path d="M2020 540 c-41 -41 -17 -113 38 -113 44 0 62 19 62 64 0 61 -59 90
-100 49z m64 -16 c21 -20 20 -37 -3 -65 -16 -20 -21 -21 -35 -10 -19 16 -21
62 -4 79 16 16 23 15 42 -4z"/>
<path d="M2165 535 c-29 -29 -32 -55 -7 -84 19 -24 72 -33 79 -13 3 7 -4 12
-19 12 -45 0 -63 43 -32 75 10 9 25 14 35 12 12 -3 19 0 19 9 0 23 -49 16 -75
-11z"/>
<path d="M2310 496 c0 -36 4 -67 9 -70 5 -3 23 -3 40 0 38 8 58 37 37 56 -10
10 -11 17 -2 31 14 23 -14 47 -56 47 -28 0 -28 0 -28 -64z m60 30 c0 -8 -5
-18 -11 -22 -14 -8 -33 11 -25 25 10 16 36 13 36 -3z m-4 -74 c-19 -19 -42 -3
-32 23 5 13 10 14 27 4 20 -10 20 -12 5 -27z"/>
<path d="M2441 497 c-12 -40 -15 -63 -9 -66 6 -2 15 4 20 13 11 20 44 21 52 1
3 -8 12 -15 20 -15 23 0 -19 116 -45 123 -16 4 -22 -5 -38 -56z m49 2 c0 -11
-7 -19 -16 -19 -11 0 -14 5 -10 16 3 9 6 20 6 25 0 6 5 7 10 4 6 -3 10 -15 10
-26z"/>
<path d="M2582 548 c-44 -22 -42 -96 4 -117 27 -12 64 -7 64 9 0 5 -15 10 -32
12 -29 3 -33 7 -36 35 -2 24 2 34 18 43 12 6 28 9 36 6 8 -3 14 1 14 9 0 18
-34 19 -68 3z"/>
<path d="M2679 558 c0 -2 -1 -31 -2 -66 -1 -44 2 -62 11 -62 6 0 12 11 12 25
0 21 5 25 31 25 28 0 31 -3 27 -25 -4 -17 -1 -25 8 -25 10 0 14 17 14 65 0 64
-16 91 -22 38 -2 -22 -8 -28 -28 -28 -20 0 -26 6 -28 28 -2 15 -8 27 -13 27
-5 0 -9 -1 -10 -2z"/>
<path d="M2857 553 c-4 -3 -7 -33 -7 -65 0 -45 3 -58 15 -58 9 0 15 9 15 25 0
14 4 25 8 25 5 0 15 -11 22 -25 7 -14 22 -25 32 -25 19 0 19 1 -1 29 -25 34
-26 54 -6 71 19 16 19 30 0 30 -8 0 -22 -15 -32 -32 l-18 -33 -3 33 c-3 31
-11 39 -25 25z"/>
<path d="M2980 495 c0 -48 4 -65 14 -65 9 0 12 8 8 25 -4 22 -1 25 27 25 26 0
31 -4 31 -25 0 -14 6 -25 13 -25 8 0 12 18 11 62 -2 63 -20 92 -26 41 -2 -22
-8 -28 -28 -28 -20 0 -26 6 -28 28 -6 53 -22 26 -22 -38z"/>
<path d="M3130 540 c-42 -42 -17 -113 39 -113 41 0 62 21 63 63 2 59 -62 90
-102 50z m64 -16 c21 -20 20 -37 -3 -65 -16 -20 -21 -21 -35 -10 -19 16 -21
62 -4 79 16 16 23 15 42 -4z"/>
<path d="M3287 553 c-5 -7 -37 -113 -37 -120 0 -2 7 -3 15 -3 8 0 15 7 15 15
0 9 9 15 25 15 16 0 25 -6 25 -15 0 -8 7 -15 15 -15 19 0 18 12 -4 75 -16 46
-42 68 -54 48z m32 -65 c1 -5 -6 -8 -14 -8 -16 0 -19 9 -8 36 6 16 7 16 14 -2
4 -10 8 -22 8 -26z"/>
<path d="M3430 496 c0 -49 4 -66 14 -66 9 0 12 8 8 25 -4 22 -1 25 27 25 26 0
31 -4 31 -25 0 -16 6 -25 15 -25 13 0 15 11 13 62 -3 64 -24 93 -30 41 -2 -22
-8 -28 -28 -28 -20 0 -25 5 -25 24 0 14 -6 26 -13 29 -9 3 -12 -15 -12 -62z"/>
<path d="M3740 496 c0 -76 17 -90 22 -18 l3 47 23 -47 c16 -33 30 -48 43 -48
18 0 20 6 17 62 -2 41 -8 63 -17 66 -10 3 -12 -6 -10 -42 2 -25 2 -46 -1 -46
-3 1 -14 20 -26 43 -11 23 -28 43 -37 45 -15 3 -17 -6 -17 -62z"/>
<path d="M3903 550 c-44 -18 -42 -103 2 -120 34 -13 73 3 85 35 14 37 13 43
-15 70 -26 27 -37 29 -72 15z m57 -29 c14 -27 13 -47 -6 -65 -22 -23 -54 -4
-54 32 0 48 40 70 60 33z"/>
<path d="M4020 495 c0 -51 3 -65 15 -65 12 0 15 14 15 65 0 51 -3 65 -15 65
-12 0 -15 -14 -15 -65z"/>
<path d="M3581 508 c-7 -24 -15 -51 -17 -60 -4 -12 0 -18 10 -18 9 0 16 7 16
15 0 9 9 15 25 15 16 0 25 -6 25 -15 0 -8 7 -15 15 -15 19 0 19 2 -2 67 -13
42 -21 53 -38 53 -17 0 -25 -9 -34 -42z m49 -15 c0 -7 -7 -13 -16 -13 -11 0
-14 5 -10 16 3 9 6 21 6 27 0 16 20 -14 20 -30z"/>
<path d="M4588 473 c-9 -38 -18 -74 -19 -82 -2 -8 10 -22 26 -32 l30 -18 1 47
1 47 -13 -35 c-7 -21 -12 -27 -12 -15 0 11 5 36 12 55 l13 35 6 -30 c3 -17 3
-43 1 -60 -4 -25 -3 -27 5 -10 8 17 10 14 8 -14 -2 -38 10 -48 36 -29 15 12
15 20 -10 111 -23 84 -29 97 -48 97 -18 0 -23 -10 -37 -67z"/>
<path d="M4676 516 c-6 -24 6 -84 29 -153 4 -11 31 -6 63 13 9 5 -45 164 -55
164 -17 0 -17 -1 8 -88 11 -40 18 -76 15 -80 -3 -3 -6 1 -7 9 0 9 -4 6 -10 -6
-8 -17 -9 -16 -4 7 3 14 2 41 -2 60 -7 32 -7 32 -15 8 -6 -19 -6 -16 -3 11 3
20 2 47 -3 60 -9 23 -9 23 -16 -5z m11 -38 c-3 -7 -5 -2 -5 12 0 14 2 19 5 13
2 -7 2 -19 0 -25z m20 -70 c-3 -8 -6 -5 -6 6 -1 11 2 17 5 13 3 -3 4 -12 1
-19z"/>
<path d="M161 384 c-23 -19 -31 -34 -31 -59 0 -36 29 -80 60 -88 17 -4 20 0
20 31 0 22 10 54 25 77 13 22 24 45 25 50 0 6 -10 -6 -23 -25 l-22 -35 -3 38
c-4 44 -10 45 -51 11z"/>
<path d="M1676 401 c-4 -5 -2 -12 3 -15 5 -4 12 -2 15 3 4 5 2 12 -3 15 -5 4
-12 2 -15 -3z"/>
<path d="M2056 401 c-4 -7 -5 -15 -2 -18 9 -9 19 4 14 18 -4 11 -6 11 -12 0z"/>
<path d="M3926 401 c-4 -5 -2 -12 3 -15 5 -4 12 -2 15 3 4 5 2 12 -3 15 -5 4
-12 2 -15 -3z"/>
<path d="M4316 364 c-4 -15 -2 -32 3 -37 8 -8 11 0 11 26 0 44 -5 47 -14 11z"/>
<path d="M670 280 c0 -27 5 -50 10 -50 6 0 10 9 10 20 0 30 47 28 53 -2 2 -13
4 2 4 32 0 30 -2 45 -4 33 -6 -31 -53 -33 -53 -3 0 11 -4 20 -10 20 -5 0 -10
-22 -10 -50z"/>
<path d="M788 280 c-9 -27 -12 -50 -7 -50 5 0 9 7 9 15 0 8 9 15 20 15 11 0
23 -7 26 -15 4 -8 10 -15 14 -15 11 0 -25 93 -37 97 -5 2 -16 -19 -25 -47z
m30 -9 c-15 -5 -21 7 -13 26 7 17 8 17 15 -2 4 -11 3 -22 -2 -24z"/>
<path d="M876 314 c-10 -26 -7 -84 5 -84 7 0 10 14 7 35 -2 19 -1 35 2 35 4 0
15 -16 26 -35 10 -19 22 -35 26 -35 5 0 7 24 6 53 l-1 52 -4 -44 -4 -45 -25
42 c-28 47 -30 48 -38 26z"/>
<path d="M984 305 c-31 -48 15 -101 62 -70 26 16 31 44 14 76 -15 27 -56 24
-76 -6z m66 -5 c21 -39 -15 -85 -46 -59 -14 12 -19 60 -7 72 13 14 43 6 53
-13z"/>
<path d="M1093 280 c0 -30 2 -43 4 -27 2 15 2 39 0 55 -2 15 -4 2 -4 -28z"/>
<path d="M1161 293 c-1 -26 5 -47 15 -57 18 -19 20 -19 45 -6 15 9 19 20 17
58 l-1 47 -4 -42 c-5 -46 -27 -73 -45 -55 -6 6 -15 31 -19 54 l-6 43 -2 -42z"/>
<path d="M1266 314 c-10 -26 -7 -84 5 -84 7 0 10 14 7 35 -2 19 0 35 4 35 4 0
8 -3 8 -7 0 -5 11 -21 25 -38 l24 -30 -1 55 c-1 52 -1 53 -7 15 l-6 -40 -23
38 c-27 42 -28 43 -36 21z"/>
<path d="M1373 280 c0 -30 2 -43 4 -27 2 15 2 39 0 55 -2 15 -4 2 -4 -28z"/>
<path d="M1404 307 c11 -46 25 -77 35 -77 10 0 44 91 36 98 -5 6 -25 -44 -25
-64 0 -29 -19 -13 -26 21 -3 19 -11 38 -17 42 -6 4 -8 -3 -3 -20z"/>
<path d="M1502 278 c3 -46 6 -53 26 -56 12 -2 22 1 22 7 0 6 -9 11 -20 11 -11
0 -20 7 -20 15 0 8 9 15 20 15 11 0 20 5 20 10 0 6 -9 10 -20 10 -27 0 -25 28
3 33 18 4 18 4 -6 6 -28 1 -28 0 -25 -51z"/>
<path d="M1579 323 c-5 -28 -3 -93 3 -93 5 0 8 9 8 20 0 27 26 25 35 -2 4 -15
8 -18 12 -10 3 7 0 18 -6 26 -7 9 -7 16 1 24 17 17 1 42 -27 42 -14 0 -26 -3
-26 -7z m46 -23 c0 -8 -8 -16 -17 -18 -13 -2 -18 3 -18 18 0 15 5 20 18 18 9
-2 17 -10 17 -18z"/>
<path d="M1663 313 c-4 -11 3 -23 21 -38 24 -19 25 -23 12 -34 -8 -7 -21 -9
-28 -5 -11 6 -11 4 0 -7 9 -10 17 -11 30 -3 27 18 26 42 -2 55 -32 15 -33 27
-3 39 l22 9 -23 0 c-12 1 -25 -6 -29 -16z"/>
<path d="M1743 280 c0 -30 2 -43 4 -27 2 15 2 39 0 55 -2 15 -4 2 -4 -28z"/>
<path d="M1782 323 c12 -3 18 -18 21 -51 l3 -47 2 47 c2 35 6 48 20 51 9 3 -1
5 -23 5 -22 0 -32 -2 -23 -5z"/>
<path d="M1866 315 c4 -11 13 -36 20 -55 12 -31 13 -32 14 -10 0 14 7 36 16
48 9 13 14 26 11 29 -3 2 -12 -8 -20 -23 l-14 -28 -17 30 c-10 16 -14 20 -10
9z"/>
<path d="M1992 318 c-7 -7 -12 -27 -12 -45 0 -26 6 -36 25 -45 21 -9 28 -8 45
7 37 33 21 95 -25 95 -12 0 -26 -5 -33 -12z m56 -10 c30 -30 -3 -87 -39 -68
-32 17 -19 80 16 80 6 0 16 -5 23 -12z"/>
<path d="M2090 280 c0 -27 4 -50 9 -50 5 0 7 9 4 20 -4 16 0 20 18 21 l24 0
-23 10 c-29 11 -24 31 9 40 21 6 21 7 -8 8 -33 1 -33 1 -33 -49z"/>
<path d="M2203 314 c-4 -10 4 -24 23 -40 23 -19 26 -25 15 -33 -8 -5 -21 -7
-30 -4 -13 5 -13 3 -4 -7 14 -15 41 -7 50 16 4 10 -4 24 -23 39 l-29 24 25 10
c25 10 25 10 2 10 -12 1 -25 -6 -29 -15z"/>
<path d="M2290 315 c-18 -22 -15 -66 6 -82 21 -16 54 -17 54 -2 0 5 -4 7 -10
4 -17 -11 -50 15 -50 39 0 26 14 41 45 49 16 4 15 5 -6 6 -15 0 -32 -6 -39
-14z"/>
<path d="M2370 280 c0 -27 5 -50 10 -50 6 0 10 23 10 50 0 28 -4 50 -10 50 -5
0 -10 -22 -10 -50z"/>
<path d="M2410 281 c0 -35 4 -51 16 -55 24 -9 44 -7 44 4 0 6 -9 10 -20 10
-11 0 -20 7 -20 15 0 8 7 15 15 15 8 0 15 5 15 10 0 6 -7 10 -15 10 -24 0 -17
28 8 33 16 3 13 5 -10 6 -33 1 -33 1 -33 -48z"/>
<path d="M2492 278 c1 -44 2 -46 5 -15 5 44 15 47 32 11 6 -15 14 -24 17 -21
7 6 -38 77 -48 77 -5 0 -7 -24 -6 -52z"/>
<path d="M2559 285 c-5 -50 -4 -63 7 -53 3 3 4 28 2 54 l-3 49 -6 -50z"/>
<path d="M2606 311 c-24 -26 -17 -62 16 -81 23 -12 30 -12 40 -2 11 11 10 13
-2 12 -33 -5 -49 1 -55 20 -9 28 11 58 42 63 l28 4 -26 2 c-14 0 -34 -7 -43
-18z"/>
<path d="M2692 278 c3 -46 6 -53 26 -56 12 -2 22 1 22 7 0 6 -9 11 -20 11 -11
0 -20 7 -20 15 0 8 9 15 20 15 11 0 20 5 20 10 0 6 -9 10 -20 10 -27 0 -25 28
3 33 18 4 18 4 -6 6 -28 1 -28 0 -25 -51z"/>
<path d="M2820 305 c-5 -14 -12 -38 -16 -53 -4 -23 -3 -24 6 -9 13 21 50 23
50 2 0 -8 4 -15 9 -15 5 0 2 23 -7 50 -18 56 -28 62 -42 25z m30 -21 c0 -8 -6
-14 -14 -14 -9 0 -12 7 -9 20 6 22 23 18 23 -6z"/>
<path d="M2901 278 c2 -52 2 -52 8 -13 l6 40 23 -37 c13 -21 28 -38 33 -38 5
0 8 24 7 53 l-1 52 -6 -45 -6 -45 -24 43 c-14 23 -28 42 -33 42 -4 0 -7 -24
-7 -52z"/>
<path d="M3007 323 c-4 -3 -7 -25 -7 -49 0 -49 17 -61 58 -41 50 23 33 97 -22
97 -12 0 -26 -3 -29 -7z m61 -15 c19 -19 14 -45 -10 -62 -33 -24 -38 -20 -38
29 0 37 3 45 18 45 10 0 23 -5 30 -12z"/>
<path d="M3142 323 c12 -3 18 -18 21 -51 l3 -47 2 47 c2 35 6 48 20 51 9 3 -1
5 -23 5 -22 0 -32 -2 -23 -5z"/>
<path d="M3222 278 c3 -46 6 -53 26 -56 12 -2 22 1 22 7 0 6 -9 11 -20 11 -11
0 -20 7 -20 15 0 8 9 15 20 15 11 0 20 5 20 10 0 6 -9 10 -20 10 -27 0 -25 28
3 33 18 4 18 4 -6 6 -28 1 -28 0 -25 -51z"/>
<path d="M3305 314 c-24 -24 -15 -66 17 -84 23 -12 29 -13 40 -1 11 11 9 12
-8 7 -40 -12 -73 46 -41 72 6 5 23 12 37 15 l25 4 -27 2 c-15 0 -34 -6 -43
-15z"/>
<path d="M3393 280 c0 -30 2 -45 4 -32 6 30 53 32 53 2 0 -11 5 -20 10 -20 6
0 10 23 10 50 0 28 -4 50 -10 50 -5 0 -10 -9 -10 -20 0 -30 -47 -28 -53 3 -2
12 -4 -3 -4 -33z"/>
<path d="M3492 278 c1 -44 2 -46 5 -15 5 44 15 47 32 11 6 -15 14 -24 17 -22
7 7 -36 78 -47 78 -5 0 -8 -24 -7 -52z"/>
<path d="M3559 285 c-5 -50 -4 -63 7 -53 3 3 4 28 2 54 l-3 49 -6 -50z"/>
<path d="M3606 314 c-39 -38 6 -110 53 -84 30 15 38 56 16 80 -22 24 -48 26
-69 4z m62 -30 c3 -34 -17 -58 -41 -48 -38 14 -24 88 16 82 16 -2 23 -11 25
-34z"/>
<path d="M3714 280 c1 -49 3 -55 24 -58 12 -2 22 1 22 7 0 6 -9 11 -19 11 -16
0 -21 9 -24 48 -4 44 -4 43 -3 -8z"/>
<path d="M3786 314 c-22 -21 -20 -57 3 -78 42 -39 98 21 66 70 -18 28 -47 31
-69 8z m62 -30 c3 -34 -17 -58 -41 -48 -40 15 -25 88 16 82 16 -2 23 -11 25
-34z"/>
<path d="M3896 314 c-38 -37 4 -105 54 -89 27 9 24 49 -5 52 -11 2 -14 0 -7
-3 17 -8 15 -44 -2 -44 -18 0 -46 27 -46 44 0 21 24 44 50 49 l25 4 -27 2
c-15 0 -34 -6 -42 -15z"/>
<path d="M3995 300 c8 -16 15 -38 15 -50 0 -11 5 -20 10 -20 6 0 10 9 10 20 0
12 7 34 15 50 9 17 11 30 6 30 -5 0 -13 -9 -16 -20 -3 -11 -10 -20 -15 -20 -5
0 -12 9 -15 20 -3 11 -11 20 -16 20 -5 0 -3 -13 6 -30z"/>
<path d="M4285 320 c3 -5 3 -15 -1 -21 -5 -8 -9 -8 -14 1 -4 6 -23 10 -46 8
l-39 -3 43 -14 c34 -12 41 -18 36 -33 -8 -26 23 -58 56 -58 23 0 28 4 28 26 0
14 -7 28 -15 31 -8 3 -11 13 -7 25 4 13 -1 24 -13 33 -21 17 -37 19 -28 5z"/>
<path d="M4350 306 c0 -2 8 -10 18 -17 15 -13 16 -12 3 4 -13 16 -21 21 -21
13z"/>
<path d="M4644 300 c-80 -32 -64 -140 21 -140 74 0 99 70 44 121 -34 32 -34
32 -65 19z m53 -35 c2 -5 -8 -10 -22 -10 -25 0 -31 6 -18 19 9 9 36 3 40 -9z
m-2 -55 c3 -5 1 -10 -4 -10 -6 0 -11 5 -11 10 0 6 2 10 4 10 3 0 8 -4 11 -10z"/>
<path d="M4408 293 c7 -3 16 -2 19 1 4 3 -2 6 -13 5 -11 0 -14 -3 -6 -6z"/>
<path d="M4370 230 c-6 -11 -8 -20 -6 -20 3 0 10 9 16 20 6 11 8 20 6 20 -3 0
-10 -9 -16 -20z"/>
<path d="M4370 193 c0 -6 9 -21 21 -34 l20 -24 -17 30 c-24 39 -24 40 -24 28z"/>
<path d="M105 115 c-3 -14 -7 -36 -10 -50 -3 -14 -1 -25 5 -25 5 0 10 5 10 11
0 8 6 7 17 -2 15 -13 16 -11 9 26 -4 22 -8 46 -8 53 -2 21 -17 13 -23 -13z"/>
<path d="M40 80 c0 -33 3 -40 20 -40 17 0 20 7 20 40 0 33 -3 40 -20 40 -17 0
-20 -7 -20 -40z"/>
<path d="M154 106 c-9 -24 0 -61 15 -61 8 0 16 6 19 13 2 7 -2 10 -10 7 -9 -4
-14 2 -14 15 0 13 5 19 13 16 7 -3 13 1 13 9 0 19 -29 20 -36 1z"/>
<path d="M200 80 c0 -40 15 -55 23 -22 4 16 5 16 6 0 2 -36 21 -16 21 22 0 40
-15 55 -23 23 -4 -17 -5 -17 -6 0 -2 35 -21 15 -21 -23z"/>
<path d="M280 80 c0 -22 5 -40 10 -40 6 0 10 6 10 13 0 8 3 7 10 -3 13 -21 24
-6 12 17 -7 12 -7 25 -1 36 7 11 7 17 0 17 -5 0 -12 -6 -14 -12 -4 -10 -6 -10
-6 0 -1 6 -5 12 -11 12 -5 0 -10 -18 -10 -40z"/>
<path d="M342 80 c0 -25 2 -37 5 -27 2 9 9 17 14 17 6 0 8 -4 4 -9 -3 -5 -1
-12 5 -16 6 -4 10 10 10 37 -1 37 -2 40 -12 23 -11 -19 -11 -19 -19 0 -5 14
-7 6 -7 -25z"/>
<path d="M394 106 c-9 -24 0 -61 16 -61 15 0 30 41 22 63 -6 17 -31 15 -38 -2z
m23 -33 c-3 -10 -5 -4 -5 12 0 17 2 24 5 18 2 -7 2 -21 0 -30z"/>
<path d="M448 83 c-5 -38 1 -59 9 -35 4 10 8 10 19 1 11 -9 14 -8 14 7 -1 66
-35 88 -42 27z"/>
</g>
</svg>
