<svg width="72" height="33" viewBox="0 0 72 33" fill="none" xmlns="http://www.w3.org/2000/svg">
<path d="M15.5252 0L18.5152 7.92065H19.9454C21.1135 7.92065 22.1593 8.64472 22.5704 9.73812L31.0501 32.2918H39.4336L28.882 4.01288C27.9816 1.59986 25.677 0 23.1015 0H15.5252Z" fill="#EC1C2A"/>
<path fill-rule="evenodd" clip-rule="evenodd" d="M0 16.2013C0 7.25358 7.25359 0 16.2013 0H23.3753V7.92065H16.2013C11.628 7.92065 7.92065 11.628 7.92065 16.2013C7.92065 20.7746 11.628 24.482 16.2013 24.482H23.6475L26.6242 32.2918H16.1459C7.19815 32.2918 0 25.1491 0 16.2013Z" fill="#EC1C2A"/>
<path fill-rule="evenodd" clip-rule="evenodd" d="M50.0933 0C50.0323 0.0400643 49.9716 0.0807403 49.9111 0.122029C49.8603 0.156664 49.8097 0.191771 49.7592 0.227305C44.7779 3.73596 43.1813 10.2823 45.702 15.6215L39.4342 32.2918H31.0508L41.6024 4.01288C42.5028 1.59986 44.8073 0 47.3829 0H50.0933Z" fill="#EC1C2A"/>
<path d="M62.4341 16.0193C62.4341 18.5916 60.3489 20.6768 57.7766 20.6768C55.2044 20.6768 53.1191 18.5916 53.1191 16.0193C53.1191 13.4471 55.2044 11.3618 57.7766 11.3618C60.3489 11.3618 62.4341 13.4471 62.4341 16.0193Z" fill="#EC1C2A"/>
<path d="M68.4557 7.77424H61.771H58.191L58.1722 7.79087C58.0282 7.78352 57.8832 7.77979 57.7374 7.77979C53.1073 7.77979 49.3539 11.5332 49.3539 16.1632C49.3539 16.5821 49.3847 16.9939 49.444 17.3963L48.5429 16.1019C45.3207 11.4728 46.4391 5.09263 51.0409 1.85133C51.0828 1.82183 51.1248 1.79268 51.167 1.7639C52.7416 0.689336 54.5121 0.118164 56.2877 0.0165382L56.3313 0.0141392C56.7031 -0.00552977 57.0751 -0.00462941 57.4455 0.0165382H71.3601L68.4557 7.77424Z" fill="#EC1C2A"/>
<path d="M56.5006 24.4561H53.5011H46.8165L43.9121 32.2138H57.8267C58.1971 32.235 58.5691 32.2359 58.9409 32.2162L58.9845 32.2138C60.7601 32.1122 62.5306 31.541 64.1052 30.4664C64.1474 30.4376 64.1894 30.4085 64.2313 30.379C68.8331 27.1377 69.9515 20.7575 66.7292 16.1285L66.0627 15.1709C66.1011 15.4963 66.1208 15.8275 66.1208 16.1632C66.1208 20.7933 62.3674 24.5467 57.7374 24.5467C57.3172 24.5467 56.9042 24.5158 56.5006 24.4561Z" fill="#EC1C2A"/>
</svg>
