<svg width="175" height="33" viewBox="0 0 175 33" fill="none" xmlns="http://www.w3.org/2000/svg">
<path d="M81.3821 10.1546C80.2194 10.1546 79.2591 9.76827 78.5012 8.99563C77.7433 8.22299 77.3643 7.27007 77.3643 6.13687C77.3643 4.9963 77.7433 4.04338 78.5012 3.2781C79.2591 2.50546 80.2194 2.11914 81.3821 2.11914C82.0811 2.11914 82.725 2.28471 83.3137 2.61584C83.9097 2.93961 84.3733 3.38112 84.7044 3.94036L83.3909 4.70196C83.1996 4.35612 82.9273 4.08753 82.5741 3.89621C82.2209 3.69753 81.8236 3.59819 81.3821 3.59819C80.6315 3.59819 80.0244 3.83366 79.5608 4.30461C79.1046 4.77555 78.8765 5.3863 78.8765 6.13687C78.8765 6.88007 79.1046 7.48714 79.5608 7.95809C80.0244 8.42903 80.6315 8.6645 81.3821 8.6645C81.8236 8.6645 82.2209 8.56884 82.5741 8.37752C82.9347 8.17884 83.207 7.91026 83.3909 7.57177L84.7044 8.33337C84.3733 8.89261 83.9134 9.3378 83.3247 9.66893C82.736 9.9927 82.0885 10.1546 81.3821 10.1546Z" fill="#EC1C2A"/>
<path d="M92.1762 8.99563C91.3962 9.76827 90.447 10.1546 89.3285 10.1546C88.21 10.1546 87.2608 9.76827 86.4808 8.99563C85.7081 8.21563 85.3218 7.26271 85.3218 6.13687C85.3218 5.01102 85.7081 4.06178 86.4808 3.28914C87.2608 2.50914 88.21 2.11914 89.3285 2.11914C90.447 2.11914 91.3962 2.50914 92.1762 3.28914C92.9562 4.06178 93.3462 5.01102 93.3462 6.13687C93.3462 7.26271 92.9562 8.21563 92.1762 8.99563ZM87.5514 7.95809C88.0297 8.42903 88.6221 8.6645 89.3285 8.6645C90.0349 8.6645 90.6273 8.42903 91.1056 7.95809C91.5839 7.47979 91.823 6.87271 91.823 6.13687C91.823 5.40102 91.5839 4.79394 91.1056 4.31564C90.6273 3.83734 90.0349 3.59819 89.3285 3.59819C88.6221 3.59819 88.0297 3.83734 87.5514 4.31564C87.0731 4.79394 86.834 5.40102 86.834 6.13687C86.834 6.87271 87.0731 7.47979 87.5514 7.95809Z" fill="#EC1C2A"/>
<path d="M102.088 2.27367V10.0001H100.576V4.98894L98.4014 8.5762H98.2248L96.0504 4.99998V10.0001H94.5272V2.27367H96.0945L98.3131 5.92715L100.521 2.27367H102.088Z" fill="#EC1C2A"/>
<path d="M106.519 2.27367C107.262 2.27367 107.888 2.52386 108.395 3.02423C108.903 3.52461 109.157 4.13904 109.157 4.86753C109.157 5.59602 108.903 6.21045 108.395 6.71083C107.888 7.2112 107.262 7.46139 106.519 7.46139H105.161V10.0001H103.638V2.27367H106.519ZM106.519 6.03753C106.843 6.03753 107.111 5.92715 107.325 5.70639C107.538 5.47828 107.645 5.19866 107.645 4.86753C107.645 4.52904 107.538 4.24942 107.325 4.02866C107.111 3.80791 106.843 3.69753 106.519 3.69753H105.161V6.03753H106.519Z" fill="#EC1C2A"/>
<path d="M113.14 10.1546C112.279 10.1546 111.572 9.91176 111.021 9.4261C110.469 8.94044 110.193 8.28922 110.193 7.47243V2.27367H111.705V7.35101C111.705 7.75573 111.819 8.07582 112.047 8.31129C112.283 8.54676 112.647 8.6645 113.14 8.6645C113.633 8.6645 113.993 8.54676 114.221 8.31129C114.457 8.07582 114.575 7.75573 114.575 7.35101V2.27367H116.098V7.47243C116.098 8.28922 115.822 8.94044 115.27 9.4261C114.718 9.91176 114.008 10.1546 113.14 10.1546Z" fill="#EC1C2A"/>
<path d="M122.691 2.27367V3.73065H120.605V10.0001H119.082V3.73065H117.007V2.27367H122.691Z" fill="#EC1C2A"/>
<path d="M125.175 8.54308H128.431V10.0001H123.652V2.27367H128.376V3.73065H125.175V5.37526H128.1V6.81016H125.175V8.54308Z" fill="#EC1C2A"/>
<path d="M133.853 10.0001L132.297 7.3179H131.138V10.0001H129.615V2.27367H132.706C133.419 2.27367 134.026 2.52386 134.527 3.02423C135.027 3.52461 135.277 4.128 135.277 4.83442C135.277 5.31272 135.141 5.7579 134.869 6.16998C134.597 6.57469 134.236 6.88007 133.787 7.08611L135.498 10.0001H133.853ZM131.138 3.69753V5.98234H132.706C132.993 5.98234 133.239 5.87196 133.445 5.65121C133.651 5.42309 133.754 5.15083 133.754 4.83442C133.754 4.518 133.651 4.24942 133.445 4.02866C133.239 3.80791 132.993 3.69753 132.706 3.69753H131.138Z" fill="#EC1C2A"/>
<path d="M141.285 10.0001L138.691 2.27367H140.347L142.234 8.21195L144.11 2.27367H145.777L143.172 10.0001H141.285Z" fill="#EC1C2A"/>
<path d="M146.632 2.27367H148.155V10.0001H146.632V2.27367Z" fill="#EC1C2A"/>
<path d="M152.215 10.1546C151.45 10.1546 150.806 9.98534 150.284 9.64685C149.761 9.30101 149.393 8.83374 149.18 8.24507L150.482 7.48346C150.784 8.27082 151.376 8.6645 152.259 8.6645C152.686 8.6645 152.999 8.58723 153.198 8.43271C153.396 8.27818 153.496 8.08318 153.496 7.84771C153.496 7.57545 153.374 7.36573 153.131 7.21856C152.889 7.06403 152.454 6.89847 151.829 6.72186C151.483 6.61884 151.189 6.51583 150.946 6.41281C150.711 6.30979 150.471 6.17366 150.229 6.00441C149.993 5.82781 149.813 5.60706 149.688 5.34215C149.563 5.07725 149.5 4.76819 149.5 4.41498C149.5 3.71593 149.747 3.16036 150.24 2.74829C150.74 2.32886 151.34 2.11914 152.039 2.11914C152.664 2.11914 153.212 2.27367 153.683 2.58272C154.162 2.88442 154.533 3.30753 154.798 3.85206L153.518 4.59159C153.209 3.92932 152.716 3.59819 152.039 3.59819C151.722 3.59819 151.472 3.67178 151.288 3.81895C151.112 3.95876 151.023 4.14272 151.023 4.37083C151.023 4.61366 151.123 4.81234 151.321 4.96687C151.527 5.11404 151.917 5.27592 152.491 5.45253C152.727 5.52611 152.903 5.58498 153.021 5.62913C153.146 5.66592 153.312 5.72847 153.518 5.81677C153.731 5.89771 153.893 5.97498 154.003 6.04856C154.121 6.12215 154.254 6.22149 154.401 6.34658C154.548 6.47168 154.658 6.60045 154.732 6.7329C154.813 6.86535 154.879 7.02724 154.931 7.21856C154.989 7.40252 155.019 7.60488 155.019 7.82563C155.019 8.5394 154.758 9.10601 154.235 9.52544C153.72 9.94487 153.047 10.1546 152.215 10.1546Z" fill="#EC1C2A"/>
<path d="M156.069 2.27367H157.592V10.0001H156.069V2.27367Z" fill="#EC1C2A"/>
<path d="M165.634 8.99563C164.854 9.76827 163.905 10.1546 162.786 10.1546C161.668 10.1546 160.718 9.76827 159.938 8.99563C159.166 8.21563 158.779 7.26271 158.779 6.13687C158.779 5.01102 159.166 4.06178 159.938 3.28914C160.718 2.50914 161.668 2.11914 162.786 2.11914C163.905 2.11914 164.854 2.50914 165.634 3.28914C166.414 4.06178 166.804 5.01102 166.804 6.13687C166.804 7.26271 166.414 8.21563 165.634 8.99563ZM161.009 7.95809C161.487 8.42903 162.08 8.6645 162.786 8.6645C163.493 8.6645 164.085 8.42903 164.563 7.95809C165.042 7.47979 165.281 6.87271 165.281 6.13687C165.281 5.40102 165.042 4.79394 164.563 4.31564C164.085 3.83734 163.493 3.59819 162.786 3.59819C162.08 3.59819 161.487 3.83734 161.009 4.31564C160.531 4.79394 160.292 5.40102 160.292 6.13687C160.292 6.87271 160.531 7.47979 161.009 7.95809Z" fill="#EC1C2A"/>
<path d="M172.455 2.27367H173.978V10.0001H172.819L169.508 5.27592V10.0001H167.985V2.27367H169.144L172.455 6.98677V2.27367Z" fill="#EC1C2A"/>
<path d="M79.6271 21.0001L77.0332 13.2737H78.6889L80.5763 19.212L82.4527 13.2737H84.1194L81.5145 21.0001H79.6271Z" fill="#EC1C2A"/>
<path d="M84.9744 13.2737H86.4976V21.0001H84.9744V13.2737Z" fill="#EC1C2A"/>
<path d="M89.5614 19.5431H92.8176V21.0001H88.0382V13.2737H92.7624V14.7306H89.5614V16.3753H92.4864V17.8102H89.5614V19.5431Z" fill="#EC1C2A"/>
<path d="M99.1121 13.2737V14.7306H97.0259V21.0001H95.5027V14.7306H93.4276V13.2737H99.1121Z" fill="#EC1C2A"/>
<path d="M104.543 13.2737H106.066V21.0001H104.907L101.596 16.2759V21.0001H100.073V13.2737H101.232L104.543 17.9868V13.2737Z" fill="#EC1C2A"/>
<path d="M112.577 21.0001L112.113 19.6093H109.034L108.57 21.0001H106.926L109.63 13.2737H111.517L114.233 21.0001H112.577ZM109.519 18.1854H111.639L110.579 15.0287L109.519 18.1854Z" fill="#EC1C2A"/>
<path d="M122.654 13.2737V21.0001H121.142V15.9889L118.967 19.5762H118.791L116.616 16V21.0001H115.093V13.2737H116.66L118.879 16.9271L121.087 13.2737H122.654Z" fill="#EC1C2A"/>
<path d="M79.1364 29.9566L77.7461 26.5126H77.7257C77.7393 26.7235 77.7461 26.9395 77.7461 27.1606V29.9566H77.4961V26.2269H77.8992L79.2206 29.5076H79.2359L80.5574 26.2269H80.9502V29.9566H80.6875V27.13C80.6875 26.9327 80.6977 26.7286 80.7181 26.5177H80.6977L79.3022 29.9566H79.1364Z" fill="white"/>
<path d="M87.1983 28.6402H85.6829L85.1625 29.9566H84.8742L86.3743 26.2116H86.5401L88.0095 29.9566H87.7161L87.1983 28.6402ZM85.7773 28.4055H87.1115L86.6039 27.0611C86.5613 26.9557 86.5103 26.8094 86.4508 26.6223C86.4049 26.7856 86.3547 26.9336 86.3003 27.0662L85.7773 28.4055Z" fill="white"/>
<path d="M93.5279 26.408C93.0602 26.408 92.692 26.5577 92.4233 26.857C92.1546 27.1563 92.0203 27.5662 92.0203 28.0866C92.0203 28.6189 92.147 29.0322 92.4004 29.3264C92.6538 29.6207 93.016 29.7678 93.4871 29.7678C93.8 29.7678 94.0875 29.7278 94.3494 29.6479V29.8775C94.1028 29.9642 93.7949 30.0076 93.4259 30.0076C92.9021 30.0076 92.4896 29.8384 92.1886 29.4999C91.8876 29.1615 91.7371 28.6887 91.7371 28.0815C91.7371 27.7023 91.8085 27.3681 91.9514 27.079C92.0959 26.7898 92.3026 26.5671 92.5713 26.4106C92.8417 26.2524 93.1555 26.1733 93.5126 26.1733C93.8766 26.1733 94.2023 26.2414 94.4897 26.3774L94.3851 26.6121C94.113 26.4761 93.8273 26.408 93.5279 26.408Z" fill="white"/>
<path d="M101.279 29.9566H101.016V28.1223H98.8372V29.9566H98.577V26.2269H98.8372V27.8825H101.016V26.2269H101.279V29.9566Z" fill="white"/>
<path d="M105.733 29.9566V26.2269H105.993V29.9566H105.733Z" fill="white"/>
<path d="M113.157 29.9566H112.894L110.685 26.6453H110.665C110.685 27.0398 110.695 27.3375 110.695 27.5382V29.9566H110.445V26.2269H110.706L112.912 29.5331H112.928C112.912 29.2269 112.905 28.9361 112.905 28.6606V26.2269H113.157V29.9566Z" fill="white"/>
<path d="M119.65 29.9566H117.612V26.2269H119.65V26.4667H117.872V27.8774H119.551V28.1172H117.872V29.7168H119.65V29.9566Z" fill="white"/>
<path d="M125.949 28.9948C125.949 29.306 125.834 29.5526 125.605 29.7346C125.377 29.9166 125.073 30.0076 124.694 30.0076C124.238 30.0076 123.889 29.9574 123.646 29.8571V29.5969C123.914 29.7108 124.257 29.7678 124.674 29.7678C124.98 29.7678 125.222 29.698 125.401 29.5586C125.581 29.4174 125.671 29.2329 125.671 29.005C125.671 28.8638 125.641 28.7474 125.582 28.6555C125.522 28.562 125.425 28.4769 125.291 28.4004C125.157 28.3239 124.959 28.2414 124.699 28.153C124.318 28.022 124.055 27.8808 123.908 27.7295C123.764 27.5764 123.692 27.3732 123.692 27.1198C123.692 26.8409 123.8 26.6138 124.018 26.4386C124.237 26.2618 124.519 26.1733 124.863 26.1733C125.213 26.1733 125.542 26.2397 125.85 26.3723L125.755 26.5968C125.446 26.4676 125.15 26.4029 124.868 26.4029C124.592 26.4029 124.373 26.4667 124.209 26.5943C124.046 26.7218 123.965 26.8953 123.965 27.1147C123.965 27.2524 123.989 27.3655 124.039 27.454C124.09 27.5424 124.172 27.6223 124.286 27.6938C124.4 27.7635 124.595 27.8477 124.873 27.9463C125.164 28.0467 125.382 28.1445 125.528 28.2397C125.675 28.3332 125.781 28.4404 125.847 28.5611C125.915 28.6802 125.949 28.8247 125.949 28.9948Z" fill="white"/>
<path d="M136.478 26.408C136.011 26.408 135.643 26.5577 135.374 26.857C135.105 27.1563 134.971 27.5662 134.971 28.0866C134.971 28.6189 135.097 29.0322 135.351 29.3264C135.604 29.6207 135.967 29.7678 136.438 29.7678C136.751 29.7678 137.038 29.7278 137.3 29.6479V29.8775C137.053 29.9642 136.745 30.0076 136.376 30.0076C135.853 30.0076 135.44 29.8384 135.139 29.4999C134.838 29.1615 134.688 28.6887 134.688 28.0815C134.688 27.7023 134.759 27.3681 134.902 27.079C135.046 26.7898 135.253 26.5671 135.522 26.4106C135.792 26.2524 136.106 26.1733 136.463 26.1733C136.827 26.1733 137.153 26.2414 137.44 26.3774L137.336 26.6121C137.064 26.4761 136.778 26.408 136.478 26.408Z" fill="white"/>
<path d="M143.323 28.6402H141.808L141.288 29.9566H140.999L142.499 26.2116H142.665L144.135 29.9566H143.841L143.323 28.6402ZM141.903 28.4055H143.237L142.729 27.0611C142.687 26.9557 142.636 26.8094 142.576 26.6223C142.53 26.7856 142.48 26.9336 142.425 27.0662L141.903 28.4055Z" fill="white"/>
<path d="M150.773 29.9566H150.51L148.301 26.6453H148.281C148.301 27.0398 148.311 27.3375 148.311 27.5382V29.9566H148.061V26.2269H148.321L150.528 29.5331H150.543C150.528 29.2269 150.52 28.9361 150.52 28.6606V26.2269H150.773V29.9566Z" fill="white"/>
<path d="M162.039 28.9948C162.039 29.306 161.925 29.5526 161.695 29.7346C161.467 29.9166 161.164 30.0076 160.784 30.0076C160.329 30.0076 159.979 29.9574 159.736 29.8571V29.5969C160.005 29.7108 160.347 29.7678 160.764 29.7678C161.07 29.7678 161.312 29.698 161.491 29.5586C161.671 29.4174 161.761 29.2329 161.761 29.005C161.761 28.8638 161.732 28.7474 161.672 28.6555C161.613 28.562 161.516 28.4769 161.381 28.4004C161.247 28.3239 161.05 28.2414 160.789 28.153C160.409 28.022 160.145 27.8808 159.999 27.7295C159.854 27.5764 159.782 27.3732 159.782 27.1198C159.782 26.8409 159.891 26.6138 160.108 26.4386C160.328 26.2618 160.609 26.1733 160.953 26.1733C161.303 26.1733 161.632 26.2397 161.94 26.3723L161.846 26.5968C161.536 26.4676 161.24 26.4029 160.958 26.4029C160.682 26.4029 160.463 26.4667 160.3 26.5943C160.136 26.7218 160.055 26.8953 160.055 27.1147C160.055 27.2524 160.079 27.3655 160.129 27.454C160.18 27.5424 160.262 27.6223 160.376 27.6938C160.49 27.7635 160.686 27.8477 160.963 27.9463C161.254 28.0467 161.472 28.1445 161.619 28.2397C161.765 28.3332 161.871 28.4404 161.937 28.5611C162.005 28.6802 162.039 28.8247 162.039 28.9948Z" fill="white"/>
<path d="M168.262 29.9566H166.224V26.2269H168.262V26.4667H166.484V27.8774H168.163V28.1172H166.484V29.7168H168.262V29.9566Z" fill="white"/>
<path d="M174.541 29.9566H172.502V26.2269H174.541V26.4667H172.763V27.8774H174.441V28.1172H172.763V29.7168H174.541V29.9566Z" fill="white"/>
<path d="M15.5252 0L18.5152 7.92065H19.9454C21.1135 7.92065 22.1593 8.64472 22.5704 9.73812L31.0501 32.2918H39.4336L28.882 4.01288C27.9816 1.59986 25.677 0 23.1015 0H15.5252Z" fill="#EC1C2A"/>
<path fill-rule="evenodd" clip-rule="evenodd" d="M0 16.2013C0 7.25358 7.25359 0 16.2013 0H23.3753V7.92065H16.2013C11.628 7.92065 7.92065 11.628 7.92065 16.2013C7.92065 20.7746 11.628 24.482 16.2013 24.482H23.6475L26.6242 32.2918H16.1459C7.19815 32.2918 0 25.1491 0 16.2013Z" fill="#EC1C2A"/>
<path fill-rule="evenodd" clip-rule="evenodd" d="M50.0933 0C50.0323 0.0400643 49.9716 0.0807403 49.9111 0.122029C49.8603 0.156664 49.8097 0.191771 49.7592 0.227305C44.7779 3.73596 43.1813 10.2823 45.702 15.6215L39.4342 32.2918H31.0508L41.6024 4.01288C42.5028 1.59986 44.8073 0 47.3829 0H50.0933Z" fill="#EC1C2A"/>
<path d="M62.4341 16.0193C62.4341 18.5916 60.3489 20.6768 57.7766 20.6768C55.2044 20.6768 53.1191 18.5916 53.1191 16.0193C53.1191 13.4471 55.2044 11.3618 57.7766 11.3618C60.3489 11.3618 62.4341 13.4471 62.4341 16.0193Z" fill="#EC1C2A"/>
<path d="M68.4557 7.77424H61.771H58.191L58.1722 7.79087C58.0282 7.78352 57.8832 7.77979 57.7374 7.77979C53.1073 7.77979 49.3539 11.5332 49.3539 16.1632C49.3539 16.5821 49.3847 16.9939 49.444 17.3963L48.5429 16.1019C45.3207 11.4728 46.4391 5.09263 51.0409 1.85133C51.0828 1.82183 51.1248 1.79268 51.167 1.7639C52.7416 0.689336 54.5121 0.118164 56.2877 0.0165382L56.3313 0.0141392C56.7031 -0.00552977 57.0751 -0.00462941 57.4455 0.0165382H71.3601L68.4557 7.77424Z" fill="#EC1C2A"/>
<path d="M56.5006 24.4561H53.5011H46.8165L43.9121 32.2138H57.8267C58.1971 32.235 58.5691 32.2359 58.9409 32.2162L58.9845 32.2138C60.7601 32.1122 62.5306 31.541 64.1052 30.4664C64.1474 30.4376 64.1894 30.4085 64.2313 30.379C68.8331 27.1377 69.9515 20.7575 66.7292 16.1285L66.0627 15.1709C66.1011 15.4963 66.1208 15.8275 66.1208 16.1632C66.1208 20.7933 62.3674 24.5467 57.7374 24.5467C57.3172 24.5467 56.9042 24.5158 56.5006 24.4561Z" fill="#EC1C2A"/>
</svg>
